<?xml version="1.0" encoding="UTF-8" standalone="no"?>
<svg
   xmlns:dc="http://purl.org/dc/elements/1.1/"
   xmlns:cc="http://creativecommons.org/ns#"
   xmlns:rdf="http://www.w3.org/1999/02/22-rdf-syntax-ns#"
   xmlns:svg="http://www.w3.org/2000/svg"
   xmlns="http://www.w3.org/2000/svg"
   xmlns:sodipodi="http://sodipodi.sourceforge.net/DTD/sodipodi-0.dtd"
   xmlns:inkscape="http://www.inkscape.org/namespaces/inkscape"
   enable-background="new 0 0 373.914 252.148"
   viewBox="0 0 500 500"
   xml:space="preserve"
   id="svg3333"
   version="1.1"
   inkscape:version="0.48.4 r9939"
   width="100%"
   height="100%"
   sodipodi:docname="top-46575.svg"><metadata
     id="metadata3627"><rdf:RDF><cc:Work
         rdf:about=""><dc:format>image/svg+xml</dc:format><dc:type
           rdf:resource="http://purl.org/dc/dcmitype/StillImage" /><dc:title></dc:title></cc:Work></rdf:RDF></metadata><defs
     id="defs3625" /><sodipodi:namedview
     pagecolor="#ffffff"
     bordercolor="#666666"
     borderopacity="1"
     objecttolerance="10"
     gridtolerance="10"
     guidetolerance="10"
     inkscape:pageopacity="0"
     inkscape:pageshadow="2"
     inkscape:window-width="640"
     inkscape:window-height="480"
     id="namedview3623"
     showgrid="false"
     inkscape:zoom="0.46797912"
     inkscape:cx="275.52374"
     inkscape:cy="213.7966"
     inkscape:window-x="0"
     inkscape:window-y="0"
     inkscape:window-maximized="0"
     inkscape:current-layer="svg3333" /><path
     d="m 206.5955,97.249116 c -1.0219,2.73357 -1.96623,5.547164 -2.16747,9.102634 -1.39526,-0.0958 -1.83409,0.76612 -3.46697,0.43276 -1.21222,-4.32523 1.67046,-10.383954 5.63444,-9.535394 z m -3.46697,6.502394 c 0.24972,-0.26305 1.01464,-2.05594 0,-2.16746 -0.25093,0.26306 -1.01463,2.05594 0,2.16746 z"
     id="path3335"
     inkscape:connector-curvature="0"
     style="fill-rule:evenodd" /><path
     d="m 288.08389,100.28332 c 4.25493,0.65704 5.55079,4.27432 6.06963,8.66865 -1.08616,0.62793 -1.70197,1.04979 -3.03421,0.43398 0.674,-4.72042 -2.11412,-5.97871 -3.03542,-9.10263 z"
     id="path3337"
     inkscape:connector-curvature="0"
     style="fill-rule:evenodd" /><path
     d="m 289.81737,111.98618 c -2.92631,1.35527 -5.10469,-3.24878 -8.66863,-1.29951 1.1007,-3.38211 8.91836,-2.80267 8.66863,1.29951 z"
     id="path3339"
     inkscape:connector-curvature="0"
     style="fill-rule:evenodd" /><path
     d="m 292.85159,111.55341 c 3.38211,2.2693 1.20859,7.09881 0,10.83611 -0.60733,1.87896 -0.99282,4.74102 -2.60145,4.7689 0.80735,-5.26349 -2.05836,-14.19761 2.60145,-15.60501 z"
     id="path3341"
     inkscape:connector-curvature="0"
     style="fill-rule:evenodd" /><path
     d="m 288.08389,125.85771 c 1.46195,0.70672 1.29709,3.03663 2.16746,4.33492 1.80744,0.074 2.13959,-1.32981 3.90217,-1.30072 -0.53944,2.062 -2.1905,3.01118 -3.03421,4.76769 1.27406,2.84631 -0.93099,8.59349 -5.20167,8.66865 -1.90804,-2.46567 -0.10668,-6.49148 -0.86674,-9.5366 2.20625,0.10425 1.62559,2.99784 3.90095,3.03421 0.35033,-0.0824 0.43155,-0.43398 0.86674,-0.43277 -0.01,-1.86926 -1.90441,-1.85107 -2.16746,-3.46697 0.1879,-1.97957 -0.43883,-4.77376 0.43276,-6.06841 z"
     id="path3343"
     inkscape:connector-curvature="0"
     style="fill-rule:evenodd" /><path
     d="m 469.2647,154.89784 c 2.60144,0.57944 1.42922,3.68517 0.43277,5.20166 -1.58559,1.19284 -3.55061,0.43398 -6.06841,0.43277 -7.06971,-0.003 -16.44266,4.25614 -22.10498,0 0.45823,-2.04866 3.27544,-1.62681 5.20167,-2.16746 3.00511,-0.84371 6.06599,-1.89471 10.40213,-2.16746 4.80406,-0.29942 7.911,0.2485 12.13682,-1.29951 z"
     id="path3345"
     inkscape:connector-curvature="0"
     style="fill-rule:evenodd" /><path
     d="m 444.12552,163.56648 c -1.8341,2.55295 -4.08399,0.51398 -6.50239,0.43276 -3.50697,-0.11637 -7.237,1.03767 -10.83489,1.30073 -5.08287,0.36973 -10.15484,-0.81705 -14.73706,-0.43277 -16.07172,1.34437 -29.20621,9.76087 -41.61094,13.87032 0.377,-5.28653 7.78372,-6.57755 12.56959,-8.66865 7.26246,-3.17482 17.92279,-8.05647 26.00714,-10.40333 1.43528,-0.41701 5.53504,1.92501 7.80311,2.16746 3.0427,0.32488 7.01396,0.19759 10.40213,0 3.22816,-0.18791 6.66726,-1.63287 9.53539,-1.30073 2.74449,0.31882 4.45251,2.58689 7.36792,3.03421 z"
     id="path3347"
     inkscape:connector-curvature="0"
     style="fill-rule:evenodd" /><path
     d="m 60.090468,166.16793 c -5.958101,5.71686 -19.55445,1.52255 -29.041347,1.73348 -0.797646,-1.24132 -1.386789,-4.45979 -0.432765,-6.06841 9.530536,0.0169 21.527957,1.29101 29.474112,4.33493 z"
     id="path3349"
     inkscape:connector-curvature="0"
     style="fill-rule:evenodd" /><path
     d="m 468.39917,162.69974 c 0.26427,3.8767 -1.53589,5.6902 -3.03421,7.80189 -7.00061,-1.52255 -17.90096,0.8522 -20.37269,-5.20166 3.15664,-1.4474 7.52066,-1.99048 11.70284,-2.60144 3.73973,-0.54429 7.99707,-0.70189 11.70406,9.5e-4 z"
     id="path3351"
     inkscape:connector-curvature="0"
     style="fill-rule:evenodd" /><path
     d="m 138.54465,188.70688 c -15.10436,-7.76675 -32.96533,-15.2959 -55.048483,-16.47054 -6.133874,-0.32731 -12.490798,-0.12729 -18.638007,-0.43398 -2.550527,-0.12607 -5.564126,-0.0849 -7.801899,-1.73349 1.512861,-1.52135 4.139759,-1.92865 5.634436,-3.46697 6.994556,1.82319 17.466994,1.09222 21.672212,-2.60144 17.065741,3.69851 35.266141,9.90026 48.112121,17.3385 0.52368,0.30306 0.94069,0.18546 1.30072,0.43276 2.40263,1.6559 4.64768,3.87065 4.7689,6.93516 z"
     id="path3353"
     inkscape:connector-curvature="0"
     style="fill-rule:evenodd" /><path
     d="m 444.99227,168.33539 c -1.97108,2.36384 -7.16185,1.50801 -11.27009,1.73348 -1.21465,-1.10798 -4.43675,-2.48265 -3.90095,-3.90094 4.40766,-0.32246 13.80607,-1.98806 15.17104,2.16746 z"
     id="path3355"
     inkscape:connector-curvature="0"
     style="fill-rule:evenodd" /><path
     d="m 428.9557,170.06887 c -4.62223,1.95047 -12.66172,0.39276 -14.30429,-3.46697 4.05733,0.16971 13.91153,-1.80501 14.30429,3.46697 z"
     id="path3357"
     inkscape:connector-curvature="0"
     style="fill-rule:evenodd" /><path
     d="m 414.65141,170.06887 c -3.71669,1.21223 -9.23354,-0.0558 -13.43755,-0.86674 1.28254,-1.44861 7.13275,-3.22817 9.97058,-2.60145 1.78197,0.39519 2.91298,2.05837 3.46697,3.46819 z"
     id="path3359"
     inkscape:connector-curvature="0"
     style="fill-rule:evenodd" /><path
     d="m 402.51458,171.80236 c -6.0575,1.17101 -10.944,3.19906 -16.03778,5.63443 -3.49243,1.67045 -7.30973,3.41121 -11.26886,5.63444 -2.03776,1.14435 -4.20886,2.9045 -6.93637,2.60144 -0.0691,-2.38081 1.04736,-3.57608 1.73469,-5.20167 7.13276,-3.5288 18.3095,-7.90979 26.00714,-11.26887 0.77947,-0.34064 6.01265,0.40003 6.50118,2.60023 z"
     id="path3361"
     inkscape:connector-curvature="0"
     style="fill-rule:evenodd" /><path
     d="m 71.359339,173.96982 c -4.727689,5.93264 -17.760353,1.43285 -26.873882,2.60144 -3.213617,0.41216 -5.456239,1.8535 -7.801901,2.60024 -2.373541,-1.72137 -5.25622,-5.07804 -3.900948,-9.10263 13.753938,-1.43042 26.339289,3.76882 38.576731,3.90095 z"
     id="path3363"
     inkscape:connector-curvature="0"
     style="fill-rule:evenodd" /><path
     d="m 214.83138,170.93561 c 0.84735,-1.24374 4.57252,-0.96372 6.50117,-0.43398 1.54196,0.42429 2.86935,1.6741 3.46819,2.16747 5.50836,0.70431 7.46975,4.95559 11.70285,6.93515 0.13092,2.15414 0.0776,4.1228 -1.29951,4.7677 -1.89229,0.30306 -1.92744,-1.25101 -3.46818,-1.30072 -2.56144,-7.11821 -9.81663,-9.54266 -16.90452,-12.13562 z m 19.50474,10.83611 c -0.8922,-3.5894 -5.24167,-6.02235 -7.80189,-6.50118 3.14937,1.61833 5.09014,4.44524 7.80189,6.50118 z"
     id="path3365"
     inkscape:connector-curvature="0"
     style="fill-rule:evenodd" /><path
     d="m 445.859,175.27054 c 5.31563,2.13352 12.66658,-0.31275 14.3043,5.63444 -4.82952,-0.42913 -10.92703,-2.54689 -17.3385,-3.03421 -3.37363,-0.25699 -6.62725,-0.0351 -9.53539,-0.86674 2.31294,-2.02079 8.07344,-0.59521 11.27009,-1.73349 -4.05248,-1.92138 -12.86053,1.09586 -16.03777,-2.60144 -0.0763,-1.52134 1.46436,-1.42558 1.73469,-2.60144 9.28931,4.33129 25.69197,-2.34323 33.80904,3.90095 0.44247,2.03169 -0.71279,2.46567 -1.29951,3.46697 -4.89255,-1.20131 -11.15734,-3.25725 -16.90695,-2.16504 z"
     id="path3367"
     inkscape:connector-curvature="0"
     style="fill-rule:evenodd" /><path
     d="m 430.68797,176.13729 c -6.99698,2.71902 -21.70858,2.24019 -24.70642,-4.33493 1.44134,-1.00979 3.1118,0.45701 4.76891,0.43398 1.93835,-0.0278 3.51546,-1.28739 5.20045,-1.30073 2.08504,-0.017 4.06582,1.45589 6.50118,1.73349 3.8852,0.44367 7.07942,-0.0667 8.23588,3.46819 z"
     id="path3369"
     inkscape:connector-curvature="0"
     style="fill-rule:evenodd" /><path
     d="m 84.362909,173.96982 c -1.585594,3.46334 -8.680764,4.08399 -12.136826,3.03421 -0.366094,-1.95533 1.013422,-2.16504 1.30072,-3.46698 4.324018,0.16002 7.146084,-0.59277 10.836106,0.43277 z"
     id="path3371"
     inkscape:connector-curvature="0"
     style="fill-rule:evenodd" /><path
     d="m 98.233221,174.83657 c -0.66066,1.36254 -3.323927,0.72127 -5.201669,0.86674 -0.861894,0.61217 1.748033,1.40012 0.866743,3.46697 -3.167551,0.44489 -5.377444,1.84743 -7.369134,3.46819 -4.491305,0.32366 -12.759912,1.08494 -17.771263,-0.43398 5.897489,-3.63912 14.572193,-4.49979 22.538956,-6.06841 -0.312755,-1.8535 -4.235525,-0.0982 -5.20167,-1.30073 1.825614,-2.44506 8.723193,-0.14061 12.138037,9.5e-4 z"
     id="path3373"
     inkscape:connector-curvature="0"
     style="fill-rule:evenodd" /><path
     d="m 139.4114,192.17506 c -0.35155,1.37951 -2.63053,0.16123 -3.03421,0 -1.00978,-0.40367 -2.26444,-1.34678 -3.0342,-1.73349 -3.19544,-1.6062 -6.21389,-2.80387 -9.96937,-4.33492 -6.1363,-2.49961 -13.98669,-5.73384 -22.53896,-6.93515 -1.682569,-0.23639 -4.193089,0.78188 -5.634432,-0.86675 -0.122435,-0.70067 0.409734,-0.74674 0.432765,-1.30072 0.351548,-0.0824 0.431558,-0.4352 0.866748,-0.43277 11.559799,0.0278 22.797159,4.59435 31.641569,8.23467 2.83783,1.16858 5.2538,2.1711 7.36914,4.33493 1.41709,0.8934 4.30947,0.31275 3.90095,3.0342 z"
     id="path3375"
     inkscape:connector-curvature="0"
     style="fill-rule:evenodd" /><path
     d="m 412.91671,178.73752 c -5.65625,7.03455 -20.00661,6.69392 -30.34086,9.96936 -6.15084,1.94926 -10.7864,5.77141 -16.03656,6.50118 1.14798,-2.52386 4.4416,-4.2925 6.93516,-5.63444 5.39805,-2.90571 11.19735,-5.35683 17.77126,-7.36913 4.60768,-1.40982 8.03586,-2.02927 13.43755,-3.46697 1.50316,-0.40004 3.58213,-1.42316 4.76769,-2.16747 0.93705,0.93947 2.36142,1.39406 3.46576,2.16747 z"
     id="path3377"
     inkscape:connector-curvature="0"
     style="fill-rule:evenodd" /><path
     d="m 71.793317,178.73752 c -2.395363,2.77114 -7.988583,2.41597 -13.436335,3.0342 -6.813934,0.7734 -13.658174,2.15655 -18.205241,5.20167 -1.054638,-1.83652 -3.167552,-2.61235 -3.466972,-5.20167 5.891428,-6.94606 17.877939,-2.44627 25.573162,-2.60144 3.626987,-0.0727 6.699984,-2.62327 9.535386,-0.43276 z"
     id="path3379"
     inkscape:connector-curvature="0"
     style="fill-rule:evenodd" /><path
     d="m 422.45209,180.03823 c -0.8134,0.63037 -0.0521,2.83662 -0.86673,3.46697 -4.06461,0.37943 -6.88546,-1.04857 -9.96937,-0.43276 -0.6437,-2.07049 3.4597,-2.80388 3.90095,-5.20167 2.64751,0.3867 5.70596,0.36367 6.93515,2.16746 z"
     id="path3381"
     inkscape:connector-curvature="0"
     style="fill-rule:evenodd" /><path
     d="m 308.02262,218.61497 c 0.0267,-2.76994 2.93965,-4.56889 4.76891,-6.06841 5.29985,-4.34584 10.767,-7.66493 16.9033,-11.70286 6.10721,-4.01732 13.47997,-8.63591 19.93872,-13.00357 5.4126,-3.65971 11.36101,-7.21638 17.3385,-9.53538 0.0922,2.40385 -1.39648,3.22695 -2.60143,4.33493 0.4267,1.21465 1.15646,-0.63037 1.73469,0.43276 -0.26305,1.03767 -0.6243,1.97714 -0.43397,3.46697 -2.84995,0.61824 -4.1434,2.79177 -7.8019,2.60145 0.051,-1.82804 1.56377,-2.19293 2.16746,-3.46697 -2.82085,0.99281 -3.83549,4.53858 -6.50239,6.06841 -2.28505,1.31162 -5.05136,2.22686 -7.36793,3.46697 -12.73202,6.81272 -24.11242,18.12766 -38.14396,23.4057 z m 54.6145,-34.67579 c 0.74553,0.023 1.11162,-0.33335 1.30073,-0.86674 -0.74552,-0.023 -1.11161,0.33336 -1.30073,0.86674 z"
     id="path3383"
     inkscape:connector-curvature="0"
     style="fill-rule:evenodd" /><path
     d="m 458.4286,183.07244 c -0.81583,2.07292 -2.479,3.29969 -4.33371,4.33493 -7.26368,-3.94459 -17.98704,-5.9678 -29.47411,-4.33493 0.0521,-1.09707 -1.83047,-2.45718 -0.86675,-3.03421 1.07767,-1.31162 4.70223,-1.21101 6.93516,-1.30071 10.00815,-0.40004 20.9776,1.36982 27.73941,4.33492 z"
     id="path3385"
     inkscape:connector-curvature="0"
     style="fill-rule:evenodd" /><path
     d="m 143.31235,186.97339 c 4.8477,3.38818 10.8846,5.58594 14.30428,10.40213 -5.77747,-2.16989 -11.39493,-4.49737 -16.47054,-7.36793 -0.17698,-0.86916 -1.07403,-3.21482 0,-3.90094 -0.53095,-1.14192 -2.32868,-2.55538 -1.30071,-3.90095 3.10572,1.3189 5.95689,2.38445 8.66864,3.90095 2.54083,1.42073 4.65011,4.27068 8.23467,4.33492 11.13794,9.02625 26.65567,15.1771 37.276,25.57316 1.28133,1.25466 4.31796,2.64752 2.60145,5.20168 -2.88026,0.27153 -5.12409,-2.05836 -7.36914,-3.46697 -2.42324,-1.52135 -4.93619,-2.4184 -7.36913,-3.90095 -7.11335,-4.33615 -12.74779,-11.75861 -21.23944,-14.3043 -3.18211,-6.78605 -10.46153,-9.47598 -17.33608,-12.5708 z"
     id="path3387"
     inkscape:connector-curvature="0"
     style="fill-rule:evenodd" /><path
     d="m 68.75911,183.93918 c -0.996451,1.77228 -3.213616,0.66795 -4.767692,0.86675 -7.070927,0.9019 -16.026868,2.56144 -21.239448,5.63443 -0.579445,-3.30453 3.759119,-5.2453 6.501179,-6.06841 2.834189,-0.85099 7.680677,-1.4571 11.270084,-1.73348 2.937229,-0.22669 6.547243,-0.63643 8.235877,1.30071 z"
     id="path3389"
     inkscape:connector-curvature="0"
     style="fill-rule:evenodd" /><path
     d="m 411.61721,183.5052 c 3.12148,1.93351 10.42879,-1.78197 10.40213,3.90096 -3.26818,-0.9213 -7.49764,-0.88251 -10.40213,-2.16746 v -1.7335 z"
     id="path3391"
     inkscape:connector-curvature="0"
     style="fill-rule:evenodd" /><path
     d="m 418.98512,189.57362 c -4.78102,-2.02685 -10.40333,-0.55763 -13.86909,-3.90095 1.09949,-3.60032 4.72526,-0.35154 6.06841,0.86674 3.32029,0.29094 7.03941,0.18426 7.80068,3.03421 z"
     id="path3393"
     inkscape:connector-curvature="0"
     style="fill-rule:evenodd" /><path
     d="m 93.032764,187.84013 c -1.898349,1.20738 -4.647682,1.19647 -6.935156,1.30073 -12.014392,0.5455 -24.867646,-1.13829 -34.243018,2.60144 -2.374754,0.94675 -5.463511,3.5894 -7.369133,0.86674 3.349386,-3.63305 9.56569,-5.53625 16.470542,-6.06842 4.767692,-0.3673 9.340216,0.74432 11.702848,-2.16746 4.838003,0.8716 9.674792,0.10061 14.737057,0 1.597717,1.43649 3.306958,2.76146 5.63686,3.46697 z"
     id="path3395"
     inkscape:connector-curvature="0"
     style="fill-rule:evenodd" /><path
     d="m 139.4114,197.37552 c -2.03776,1.65226 -3.87186,-0.90311 -5.63443,-1.73348 -5.81628,-2.73964 -13.18178,-5.68415 -19.50476,-8.23467 -0.0739,-1.08494 0.66551,-1.35649 1.30072,-1.73348 0.38549,-0.2667 0.77461,-0.52369 0.86675,0 5.52533,0.53095 10.87369,3.63668 15.60501,6.06841 2.6075,1.34073 7.15942,1.72742 7.36671,5.63322 z"
     id="path3397"
     inkscape:connector-curvature="0"
     style="fill-rule:evenodd" /><path
     d="m 405.11603,188.70688 c -2.95178,1.13343 -10.53548,2.89359 -10.83611,-1.73349 4.1446,-0.3867 10.08695,-3.9155 10.83611,1.73349 z"
     id="path3399"
     inkscape:connector-curvature="0"
     style="fill-rule:evenodd" /><path
     d="m 393.84594,190.44036 c -6.4636,1.60984 -13.28966,2.68994 -19.07198,5.20168 -3.15665,1.37102 -5.63687,4.57131 -9.10262,3.90094 0.73824,-3.51182 6.42722,-5.05257 10.8361,-6.93515 3.14695,-1.34194 5.95204,-2.36263 9.96936,-3.46697 2.40628,-0.66188 6.28662,-3.37363 7.36914,1.2995 z"
     id="path3401"
     inkscape:connector-curvature="0"
     style="fill-rule:evenodd" /><path
     d="m 98.233221,190.44036 c -0.35882,5.24895 -7.510963,2.74085 -12.136825,3.46697 -2.786913,0.43762 -4.164004,2.72389 -6.068414,1.30073 0.276388,-1.26678 2.108064,-1.83774 3.466973,-2.16747 2.476581,-0.60126 6.090233,0.52974 7.369133,-1.30072 -0.144254,-1.46437 -2.1711,-0.12607 -3.466972,0 -2.751757,0.2679 -6.034471,0.60127 -8.668642,0.86675 0.236384,-4.57011 9.542658,-2.25354 12.569592,-2.60024 1.459522,-2.21837 5.259855,-0.77582 6.935155,0.43398 z"
     id="path3403"
     inkscape:connector-curvature="0"
     style="fill-rule:evenodd" /><path
     d="m 364.37062,189.57362 c 0.64853,4.5701 -4.47434,5.21258 -7.36793,6.5024 -3.1433,1.40011 -6.28055,3.45726 -9.10383,4.76768 -3.16027,1.46801 -6.38359,2.84026 -9.53538,4.33493 -3.07421,1.4571 -6.13387,3.99914 -9.53539,3.46698 8.60924,-9.5948 21.92436,-14.48492 35.54253,-19.07199 z"
     id="path3405"
     inkscape:connector-curvature="0"
     style="fill-rule:evenodd" /><path
     d="m 418.11838,192.17506 c -3.5797,0.73825 -10.06512,2.08625 -15.17104,1.30072 -1.80742,-0.2776 -4.07308,-1.00979 -5.20166,-2.16746 4.69253,-0.25094 16.64025,-4.29008 20.3727,0.86674 z"
     id="path3407"
     inkscape:connector-curvature="0"
     style="fill-rule:evenodd" /><path
     d="m 77.861731,192.17506 c -0.368518,-0.08 -0.408521,0.16971 -0.432766,0.43277 0.06182,1.79531 -3.016023,0.45215 -4.334927,0.86674 -2.679025,1.42194 -5.824756,2.07775 -9.10262,4.33493 -4.901039,3.37484 -7.130326,7.4552 -12.569593,2.60023 -1.243746,-1.1104 -3.266955,-2.80267 -3.034207,-4.33371 0.48368,-3.19423 14.79888,-5.91568 20.371492,-6.06843 2.363845,-0.0654 8.576513,-0.15395 9.102621,2.16747 z"
     id="path3409"
     inkscape:connector-curvature="0"
     style="fill-rule:evenodd" /><path
     d="m 107.33584,191.74109 c -0.28002,3.78699 -5.19439,3.92519 -8.234659,2.60022 0.17092,-4.86346 4.621009,-3.68153 8.234659,-2.60022 z"
     id="path3411"
     inkscape:connector-curvature="0"
     style="fill-rule:evenodd" /><path
     d="m 398.17966,193.90855 c -0.49459,3.70821 -11.57799,4.91073 -11.70286,0 3.58335,-1.03767 9.75481,-3.3215 11.70286,0 z"
     id="path3413"
     inkscape:connector-curvature="0"
     style="fill-rule:evenodd" /><path
     d="m 138.11067,203.44393 c -9.65418,-3.34938 -20.00176,-6.00659 -31.20881,-7.8031 -0.2776,-1.74319 2.27778,-2.89481 2.60145,-2.60024 7.93403,1.34436 15.35651,4.65617 22.53895,7.36792 2.03291,0.76856 4.96529,0.81826 6.06841,3.03542 z"
     id="path3415"
     inkscape:connector-curvature="0"
     style="fill-rule:evenodd" /><path
     d="m 176.25465,212.11258 c -4.67436,0.4461 -8.9911,-3.11665 -13.43634,-4.33372 -4.37372,-7.32913 -12.95751,-10.44819 -21.23945,-13.87031 0.18911,-0.53338 0.5552,-0.88978 1.30072,-0.86675 9.16687,3.75791 17.85249,7.82857 26.44112,13.00358 2.43658,1.468 5.77991,3.17967 6.93395,6.0672 z"
     id="path3417"
     inkscape:connector-curvature="0"
     style="fill-rule:evenodd" /><path
     d="m 207.89622,193.0418 c 1.57711,-0.42185 0.20123,2.11171 2.16747,1.29951 -0.65461,1.5165 -0.52005,2.69236 1.30071,1.73471 -0.22547,0.64126 -0.64126,1.09221 -0.86674,1.73348 -2.19898,0.0315 -1.61711,-2.7166 -3.46697,-3.03421 0.22426,-0.64126 0.64006,-1.09221 0.86553,-1.73349 z"
     id="path3419"
     inkscape:connector-curvature="0"
     style="fill-rule:evenodd" /><path
     d="m 290.25135,193.0418 c -0.28123,1.30679 -0.55641,2.62206 -2.16746,2.60024 0.28246,-1.30679 0.55641,-2.62206 2.16746,-2.60024 z"
     id="path3421"
     inkscape:connector-curvature="0"
     style="fill-rule:evenodd" /><path
     d="m 385.61007,195.20806 c -2.34082,2.74084 -5.80537,4.11066 -8.66865,6.06841 -2.78933,1.90684 -5.66474,4.34584 -9.96937,4.33493 0.0194,-0.74189 -0.32244,-1.12253 -0.86674,-1.30072 0.21093,-3.08997 4.17856,-4.85013 6.93516,-6.06842 3.72639,-1.64741 7.77159,-2.3202 11.70285,-3.90095 0.73703,-0.1588 0.81825,0.33822 0.86675,0.86675 z"
     id="path3423"
     inkscape:connector-curvature="0"
     style="fill-rule:evenodd" /><path
     d="m 78.728474,195.64204 c -3.827005,2.2414 -9.66267,2.47416 -13.870314,4.33492 2.875406,-2.83661 8.594697,-6.70119 13.870314,-4.33492 z"
     id="path3425"
     inkscape:connector-curvature="0"
     style="fill-rule:evenodd" /><path
     d="m 103.43489,196.94275 c -0.57581,1.73592 -0.62066,4.00278 -1.7347,5.20168 -5.538669,0.6352 -10.682148,0.88249 -15.171029,0.86673 -0.592779,-0.55398 -0.592779,-2.04624 0,-2.60143 -0.529744,-1.49226 -2.937228,-1.10798 -3.466972,-2.60023 3.740936,-5.16651 14.692202,-2.29475 20.372701,-0.86675 z"
     id="path3427"
     inkscape:connector-curvature="0"
     style="fill-rule:evenodd" /><path
     d="m 158.48217,204.74466 c -6.20176,-0.0121 -12.28835,-3.89247 -16.90452,-6.93516 v -1.30073 c 0.34912,-0.2291 0.70431,-0.45216 1.30072,-0.43275 6.47936,1.61226 11.71739,4.46341 15.6038,8.66864 z"
     id="path3429"
     inkscape:connector-curvature="0"
     style="fill-rule:evenodd" /><path
     d="m 287.21715,196.07602 c 0.70067,-0.12245 0.74673,0.40972 1.30072,0.43275 -0.3564,1.08859 -0.56853,2.32264 -2.16746,2.16747 -0.95887,-0.95281 0.76006,-1.44012 0.86674,-2.60022 z"
     id="path3431"
     inkscape:connector-curvature="0"
     style="fill-rule:evenodd" /><path
     d="m 362.20316,196.07602 h 0.86794 c -3.30816,4.15309 -8.80561,5.51806 -13.43755,7.80189 -13.4727,6.64179 -28.25945,14.06912 -41.17816,22.10619 -1.06919,-1.52377 -0.32852,-4.9374 0.43276,-6.06841 4.08036,-2.22201 8.52803,-4.26704 13.00478,-6.5024 2.69357,-1.34435 4.88286,-1.9335 8.66864,-3.0342 5.03681,-1.46437 9.9427,-4.60647 14.73706,-6.93516 2.34323,-1.13828 4.88043,-2.39415 7.36792,-3.46818 3.23059,-1.39406 5.92052,-2.3602 9.10263,-3.90095 l 0.43398,9.5e-4 z"
     id="path3433"
     inkscape:connector-curvature="0"
     style="fill-rule:evenodd" /><path
     d="m 113.40426,199.54298 c -0.30549,3.94823 -5.99084,2.33718 -8.66865,1.73349 -2.15898,-6.2151 5.92659,-2.78207 8.66865,-1.73349 z"
     id="path3435"
     inkscape:connector-curvature="0"
     style="fill-rule:evenodd" /><path
     d="m 397.31291,202.57719 c -4.97013,-2.39172 -12.7284,-0.89341 -18.638,-0.43276 1.05342,-2.99178 5.20288,-2.88874 7.36791,-4.76891 3.68761,1.80259 10.63974,0.34185 11.27009,5.20167 z"
     id="path3437"
     inkscape:connector-curvature="0"
     style="fill-rule:evenodd" /><path
     d="m 85.229652,200.8437 c -0.391549,2.2196 -3.802759,2.70934 -6.068413,1.73349 -0.264265,-1.03646 0.544291,-3.14452 -0.432765,-3.46697 2.139582,-3.23059 3.802759,1.62923 6.501178,1.73348 z"
     id="path3439"
     inkscape:connector-curvature="0"
     style="fill-rule:evenodd" /><path
     d="m 77.861731,199.11022 c -2.030482,2.63902 -6.524212,3.22937 -9.969364,4.76769 -3.092393,1.38194 -6.946066,4.63192 -9.536597,2.16747 1.183134,-3.54335 6.799386,-4.68527 11.702848,-6.06842 3.402725,-0.95887 4.967711,-2.3299 7.803113,-0.86674 z"
     id="path3441"
     inkscape:connector-curvature="0"
     style="fill-rule:evenodd" /><path
     d="m 212.22994,198.67624 c -0.33701,0.38549 -0.4655,0.97948 -0.43277,1.73349 -2.04988,0.12 -1.00857,-1.85229 0.43277,-1.73349 z"
     id="path3443"
     inkscape:connector-curvature="0"
     style="fill-rule:evenodd" /><path
     d="m 114.70498,200.8437 c 2.76873,-3.15663 9.25051,-0.51519 14.30429,1.30073 3.72882,1.3395 7.34004,2.64144 9.96936,3.90095 0.19395,1.92743 -0.30791,3.15906 -0.86674,4.33492 -6.29025,0.86069 -10.37546,-1.80621 -14.30429,-4.76769 -2.80752,-2.11655 -5.92052,-3.11907 -9.10262,-4.76891 z"
     id="path3445"
     inkscape:connector-curvature="0"
     style="fill-rule:evenodd" /><path
     d="m 285.0509,199.54298 c 0.13334,-0.58793 1.08494,-0.36003 1.73348,-0.43276 -0.12122,1.00373 -1.15889,0.99645 -1.73348,0.43276 z"
     id="path3447"
     inkscape:connector-curvature="0"
     style="fill-rule:evenodd" /><path
     d="m 213.96342,199.54298 c 0.0194,1.31891 -0.91523,1.68621 -1.2995,2.60145 -1.57711,-0.31276 0.0437,-2.5178 1.2995,-2.60145 z"
     id="path3449"
     inkscape:connector-curvature="0"
     style="fill-rule:evenodd" /><path
     d="m 148.08004,205.17863 c 11.62648,5.71081 22.45773,12.21805 35.54253,16.47055 0.674,1.54074 -1.47164,0.26183 -1.30072,1.30071 5.17621,-0.85219 9.62387,3.83186 14.73706,5.63444 -4.93256,1.02918 -8.66986,-2.8851 -13.87032,-3.0342 0.0473,-1.49104 -1.49468,-1.39528 -1.73349,-2.60024 -1.32132,-0.54914 -2.20746,1.48134 -2.60144,0.43277 -5.19197,-1.45346 -8.81532,-4.47676 -14.73706,-5.20167 -5.93385,-5.91325 -14.19034,-9.50508 -22.97293,-12.56959 -0.0788,-3.05724 0.62067,-3.63669 0.86674,-5.63444 6.32178,4.13128 14.06185,6.17873 22.10619,9.5366 3.55184,1.48255 7.00305,3.6476 10.40334,4.33493 2.47416,0.49943 5.30714,0.30427 8.23589,1.29951 2.00623,1.94078 4.7895,3.19906 7.36913,4.7689 2.26686,1.37952 5.76172,2.21474 6.50118,5.20167 -4.8671,1.71167 -8.99352,-3.71669 -13.00357,-5.63444 -13.48119,-2.70205 -21.41643,-10.94642 -34.67579,-13.8703 -0.36852,0.08 -0.40852,-0.16972 -0.43276,-0.43277 l -0.43398,-0.003 z m -1.30072,-0.43397 c 0.0921,-1.39164 -1.54559,-1.05464 -2.16747,-1.7335 0.0813,1.2183 0.75523,1.84623 2.16747,1.7335 z"
     id="path3451"
     inkscape:connector-curvature="0"
     style="fill-rule:evenodd" /><path
     d="m 363.0711,200.40973 c 0.94433,3.64517 -3.41727,5.04771 -5.63443,6.06841 -6.18721,2.84752 -12.51868,3.6973 -18.63921,6.50118 -2.62327,1.20132 -4.73497,3.39787 -7.36793,4.76769 -1.78319,0.92736 -3.73851,1.3674 -5.63443,2.16746 -4.98105,2.09838 -10.53427,5.29138 -15.60381,7.80191 1.64137,-3.84156 6.69999,-4.94832 10.40213,-6.93516 1.85229,-0.99403 3.69973,-2.00745 5.63444,-3.03421 5.40169,-2.86449 10.86762,-6.33753 16.90452,-9.10262 1.97472,-0.90432 4.11552,-1.68985 6.06842,-2.60144 1.82561,-0.85098 3.38574,-2.18322 5.20166,-3.03421 2.16989,-1.01706 5.49503,-1.21707 7.36793,-2.60144 l 1.30071,0.003 z"
     id="path3453"
     inkscape:connector-curvature="0"
     style="fill-rule:evenodd" /><path
     d="m 78.728474,201.71045 c -0.649755,3.26574 -4.86952,3.26331 -7.369135,4.33493 -2.826915,1.21222 -5.027109,3.2524 -7.801899,3.90094 -0.133346,-1.02191 -1.505587,-0.80734 -1.300721,-2.16746 5.655044,-1.61953 9.799651,-6.89394 16.471755,-6.06841 z"
     id="path3455"
     inkscape:connector-curvature="0"
     style="fill-rule:evenodd" /><path
     d="m 215.26414,201.27647 c 1.1007,0.57823 0.27397,2.83298 -1.30072,2.16746 -0.10789,-1.26435 0.81704,-1.49468 1.30072,-2.16746 z"
     id="path3457"
     inkscape:connector-curvature="0"
     style="fill-rule:evenodd" /><path
     d="m 124.24037,207.77886 c -5.62353,-1.36376 -11.1125,-1.46195 -18.63801,-0.43398 -0.18305,-0.90553 0.29699,-1.14797 0.43276,-1.73348 -1.17707,0.26669 -2.02927,0.85946 -2.60023,1.73348 -13.127214,-2.20625 -26.408385,-0.009 -36.843243,4.33493 1.162526,-3.37121 6.207819,-5.05862 9.969363,-6.06841 8.586211,-2.30445 21.009121,0.90674 28.17339,-3.46697 0.634,0.80976 2.37839,0.51156 2.16746,2.16746 5.55201,-2.10321 15.23044,-1.63408 17.33851,3.46697 z"
     id="path3459"
     inkscape:connector-curvature="0"
     style="fill-rule:evenodd" /><path
     d="m 394.27871,204.74466 c -5.08772,0.35639 -10.39486,4.72283 -15.6038,3.90095 -2.0523,-0.32367 -2.66327,-2.55174 -5.20168,-2.16747 2.60144,-2.80146 8.82503,-2.90207 13.43755,-3.03421 2.53962,-0.0727 6.21389,-1.71893 7.36793,1.30073 z"
     id="path3461"
     inkscape:connector-curvature="0"
     style="fill-rule:evenodd" /><path
     d="m 421.58536,206.91212 c -0.48489,1.1213 -2.94935,1.32739 -4.33372,1.30072 -1.96381,-0.0376 -4.16521,-0.7928 -5.20167,-1.73349 v -1.30072 c 0.35033,-0.0824 0.43155,-0.43519 0.86674,-0.43397 2.85359,0.56732 8.09525,-0.59036 8.66865,2.16746 z"
     id="path3463"
     inkscape:connector-curvature="0"
     style="fill-rule:evenodd" /><path
     d="m 363.50387,205.6114 c 0.87038,1.02312 1.1407,2.90207 0.43277,4.33492 -6.56907,3.68882 -15.89231,4.62345 -24.70642,6.06841 -0.42913,-2.39535 2.53719,-2.72508 4.33371,-3.46696 3.81973,-1.57833 7.88797,-2.71418 12.13683,-4.33493 2.85358,-1.08858 4.25734,-2.37354 7.80311,-2.60144 z"
     id="path3465"
     inkscape:connector-curvature="0"
     style="fill-rule:evenodd" /><path
     d="m 401.64663,209.94632 c -1.06191,2.10322 -4.05854,1.13708 -6.50118,1.30073 -3.88519,0.26062 -8.33286,0.91159 -11.26887,-0.43277 1.20495,-1.88017 6.32662,-3.30454 9.53538,-4.33493 1.84259,-0.59157 7.9704,0.72249 8.23467,3.46697 z"
     id="path3467"
     inkscape:connector-curvature="0"
     style="fill-rule:evenodd" /><path
     d="m 140.71091,207.34488 h 1.30072 c 3.07057,1.49226 6.45147,2.8051 9.53659,4.33493 3.05966,1.51771 6.52421,2.75418 8.66865,5.20167 -7.49763,-1.17101 -15.36257,-1.97593 -19.93873,-6.06841 -0.30791,-1.60741 0.74067,-1.86078 0.43277,-3.46819 z"
     id="path3469"
     inkscape:connector-curvature="0"
     style="fill-rule:evenodd" /><path
     d="m 377.80695,210.81307 c -3.24877,1.08615 -6.49996,2.16746 -9.96936,3.0342 -0.95888,-1.20858 -1.40498,-2.92995 -1.29951,-5.20166 3.74457,-1.645 9.72813,-0.92372 11.26887,2.16746 z"
     id="path3471"
     inkscape:connector-curvature="0"
     style="fill-rule:evenodd" /><path
     d="m 93.46553,208.21284 c -0.104252,4.73859 -5.753235,3.98823 -10.836107,5.63443 -6.084172,1.96987 -9.077163,5.07318 -13.003569,-0.43398 4.761631,-4.91801 14.618257,-4.74223 23.839676,-5.20045 z"
     id="path3473"
     inkscape:connector-curvature="0"
     style="fill-rule:evenodd" /><path
     d="m 137.6767,214.71402 c 0.26669,2.00018 -0.97341,2.49476 -0.86674,4.33493 -3.74458,-0.30185 -5.93022,-2.16141 -10.40334,-1.73349 -4.36403,-3.7276 -12.14896,-4.03308 -16.90453,-7.36914 1.21951,-2.00987 4.23795,-1.7856 6.06842,-1.73348 6.96061,0.19638 16.56509,4.27916 22.10619,6.50118 z"
     id="path3475"
     inkscape:connector-curvature="0"
     style="fill-rule:evenodd" /><path
     d="m 107.33584,211.67981 c -1.81955,2.19656 -9.994819,1.34193 -13.436333,0.43277 0.790373,-5.80415 10.952483,-2.16626 13.436333,-0.43277 z"
     id="path3477"
     inkscape:connector-curvature="0"
     style="fill-rule:evenodd" /><path
     d="m 392.97919,212.98053 c -1.36011,8.92685 -10.85064,0.50186 -17.33849,2.60145 0.20971,-1.36497 -1.33103,-0.98191 -0.86795,-2.60145 5.73747,-3.42333 11.73193,0.93341 18.20644,0 z"
     id="path3479"
     inkscape:connector-curvature="0"
     style="fill-rule:evenodd" /><path
     d="m 119.90665,216.4475 c -3.04633,3.10089 -8.73411,1.49953 -13.00357,0.86675 -2.49962,-0.37095 -6.6018,0.93947 -6.50118,-2.16746 2.27535,0.25335 3.2815,-0.76371 5.63443,-0.43277 1.54559,-0.47641 2.20141,-1.8438 3.90095,-2.16746 3.65245,0.97098 7.92919,1.31768 9.96937,3.90094 z"
     id="path3481"
     inkscape:connector-curvature="0"
     style="fill-rule:evenodd" /><path
     d="m 364.37062,213.41329 c 0.76854,3.02815 -2.57599,2.20626 -3.90096,2.60144 -4.45978,1.32497 -9.676,2.03777 -14.73705,3.46698 -1.19405,0.337 -2.24505,1.3383 -3.46697,1.73349 -4.54828,1.47164 -9.45174,1.96502 -13.43755,3.46818 -2.16747,0.81705 -4.66708,1.92987 -6.93516,3.46697 -1.17586,0.79643 -0.62671,1.11525 -1.7347,1.30072 -2.08624,0.34912 -3.43424,-0.32002 -5.20045,-0.86674 1.22192,-3.75912 6.05871,-4.62344 9.96936,-6.50117 3.55668,-1.70925 7.31701,-3.87065 11.70285,-4.7677 4.43311,-0.90675 9.02503,-0.8716 13.43633,-1.73348 4.13371,-0.80856 8.13648,-1.89714 11.70286,-3.03421 0.27274,-0.0884 2.30322,-0.4461 2.60144,0.86552 z"
     id="path3483"
     inkscape:connector-curvature="0"
     style="fill-rule:evenodd" /><path
     d="m 100.40069,217.74822 c -4.722844,-0.10909 -8.28437,0.85342 -11.702853,2.16747 -1.060699,0.40731 -2.732362,0.45337 -3.034207,1.73349 5.823544,-0.43762 16.66692,-4.89498 23.83968,-1.30073 -0.78553,3.60395 -2.79661,1.46195 -5.20167,1.73349 -2.49962,0.28245 -6.132669,0.88977 -8.668647,1.73348 -1.8935,0.63036 -3.240285,2.13474 -4.767693,2.16747 -1.354058,0.0278 -3.285137,-1.17586 -5.20167,-2.16747 -3.254832,-1.6862 -6.076899,-2.65841 -7.803111,-5.63443 2.367481,-0.66673 4.721627,-1.34679 6.068413,-3.0342 5.465936,-0.39034 15.303169,-4.49131 16.471758,2.60143 z"
     id="path3485"
     inkscape:connector-curvature="0"
     style="fill-rule:evenodd" /><path
     d="m 373.906,216.4475 c -1.22071,0.36973 -1.77834,1.40013 -3.46697,1.30072 -0.64248,-0.51277 -0.67521,-1.63771 -1.29951,-2.16746 0.96372,-1.75773 5.25501,-2.76388 4.76648,0.86674 z"
     id="path3487"
     inkscape:connector-curvature="0"
     style="fill-rule:evenodd" /><path
     d="m 367.8388,219.91569 c -1.81835,2.37112 -5.93992,2.439 -7.8019,4.76769 -12.63869,0.47762 -22.48198,9.61054 -34.67578,5.20167 9.05049,-8.30861 26.56113,-7.42975 38.57673,-12.56959 0.39519,-0.16971 0.76734,-0.39883 0.86674,-0.86675 1.72985,0.43519 1.7347,2.59903 3.03421,3.46698 z"
     id="path3489"
     inkscape:connector-curvature="0"
     style="fill-rule:evenodd" /><path
     d="m 383.00862,218.18099 c -2.47416,2.58326 -5.72656,4.38827 -9.10262,6.06841 -1.61832,-1.12615 -3.25362,-2.23655 -3.03421,-5.20166 3.05118,-1.11526 9.59236,-4.58466 12.13683,-0.86675 z"
     id="path3491"
     inkscape:connector-curvature="0"
     style="fill-rule:evenodd" /><path
     d="m 129.00806,220.34845 c -0.80614,1.78562 -4.48525,0.28973 -7.80312,0.86675 -1.38557,0.24123 -2.60144,1.20616 -3.90095,1.30072 -1.91653,0.14062 -4.52403,-0.68976 -5.63443,-1.30072 0.15031,-2.20748 2.42324,-1.21708 4.33492,-1.73349 2.74207,-0.74067 5.97508,-2.33596 8.23589,-2.16746 1.69105,0.12728 4.21006,1.25587 4.76769,3.0342 z"
     id="path3493"
     inkscape:connector-curvature="0"
     style="fill-rule:evenodd" /><path
     d="m 392.97919,220.78243 c 0.17093,1.90562 -1.97229,1.49589 -3.0342,2.16746 -4.46221,2.32991 -7.62007,5.96174 -13.00478,7.36793 -0.89827,-0.83523 -1.65469,-1.81228 -2.16746,-3.03421 2.29716,-3.62941 7.42126,-6.73513 10.40334,-8.23466 3.48758,-0.3067 6.01507,-0.4364 7.8031,1.73348 z"
     id="path3495"
     inkscape:connector-curvature="0"
     style="fill-rule:evenodd" /><path
     d="m 136.37719,221.64918 c 0.34307,1.49831 -0.48125,1.82924 -0.86674,2.60022 -1.57711,-1.02433 -3.39182,-1.80986 -5.20167,-2.60022 0.48853,-3.31788 4.13976,-0.33337 6.06841,0 z"
     id="path3497"
     inkscape:connector-curvature="0"
     style="fill-rule:evenodd" /><path
     d="m 180.58836,230.75179 c -2.26202,2.34203 -7.04062,1.16132 -11.26887,1.30073 -4.64647,0.15274 -9.26143,0.76491 -13.00357,-0.43398 -2.90692,-0.93099 -5.06469,-3.82216 -7.8019,-5.63444 -3.05603,-2.02321 -6.19812,-2.93965 -8.66864,-4.7689 -0.0703,-0.50429 0.0958,-0.77098 0.43276,-0.86675 2.48144,-0.80491 7.61522,0.7928 11.70285,1.73349 6.85879,1.57953 13.78546,2.67296 20.37271,4.76769 3.02208,0.96251 6.42359,2.06806 8.23466,3.90216 z"
     id="path3499"
     inkscape:connector-curvature="0"
     style="fill-rule:evenodd" /><path
     d="m 305.42118,219.91569 c 0.93463,1.81107 0.50671,4.98346 1.73469,6.50117 -1.41588,2.91905 -2.75175,5.9181 -5.20166,7.80191 -4.60404,0.41458 -8.0601,-0.31882 -10.8349,-1.73348 -0.0727,-2.2887 2.10443,-3.85489 3.46697,-5.20168 2.78328,-2.74933 5.34108,-4.79921 8.66864,-7.36792 h 2.16626 z"
     id="path3501"
     inkscape:connector-curvature="0"
     style="fill-rule:evenodd" /><path
     d="m 214.83138,233.786 c -4.30341,4.12157 -9.21414,-0.27759 -14.3043,-1.30071 -1.3492,-2.78207 -3.76639,-8.64805 -0.86673,-11.70286 6.70119,1.3977 11.83376,7.91949 15.17103,13.00357 z"
     id="path3503"
     inkscape:connector-curvature="0"
     style="fill-rule:evenodd" /><path
     d="m 402.08182,223.81664 c -1.61833,2.78934 -6.13873,4.48039 -9.53661,6.06841 -3.52515,1.64742 -10.58274,5.59808 -14.73705,3.0342 1.03525,-1.76136 3.19786,-2.41232 5.20167,-3.90094 2.99178,-2.22202 6.58362,-5.63202 9.97058,-6.50239 2.42688,-0.62309 6.63816,-0.6534 9.10141,1.30072 z"
     id="path3505"
     inkscape:connector-curvature="0"
     style="fill-rule:evenodd" /><path
     d="m 134.64249,225.9841 c -0.074,3.10452 -1.91895,4.43797 -3.03421,6.50119 -2.71781,-3.92884 -6.91091,-6.38117 -12.13682,-7.80191 2.98572,-3.82943 12.8375,-1.94684 15.17103,1.30072 z"
     id="path3507"
     inkscape:connector-curvature="0"
     style="fill-rule:evenodd" /><path
     d="m 369.57228,222.51592 c 0.5637,1.31405 1.25587,2.49962 1.73349,3.90094 -4.33493,1.57954 -9.98027,2.51538 -13.8691,0.43277 3.4597,-2.02806 6.84667,-4.13248 12.13561,-4.33371 z"
     id="path3509"
     inkscape:connector-curvature="0"
     style="fill-rule:evenodd" /><path
     d="m 138.97742,222.94989 c 5.18348,1.89593 9.17293,4.9859 13.87031,7.36793 -1.23041,1.46316 -3.95792,0.31397 -6.06841,0.43397 -2.71297,0.15395 -6.94849,-0.0473 -9.96936,-0.86674 0.36972,-2.66569 1.84016,-4.22946 2.16746,-6.93516 z"
     id="path3511"
     inkscape:connector-curvature="0"
     style="fill-rule:evenodd" /><path
     d="m 112.97028,223.81664 c -0.61218,1.55407 -2.0911,2.24384 -2.60144,3.90095 -3.71791,-1.82562 -9.20081,-0.65824 -10.836109,2.16746 -2.68751,-0.057 -4.817394,-0.67278 -5.634436,-2.60144 2.699636,-4.67314 12.804765,-3.75063 19.071985,-3.46697 z"
     id="path3513"
     inkscape:connector-curvature="0"
     style="fill-rule:evenodd" /><path
     d="m 129.00806,238.11972 c -4.19431,-4.04157 -9.4372,-7.03456 -15.17104,-9.5366 -0.85947,-0.81947 -0.20971,-2.04745 0,-3.0342 6.70484,0.11031 21.45644,7.70976 15.17104,12.5708 z"
     id="path3515"
     inkscape:connector-curvature="0"
     style="fill-rule:evenodd" /><path
     d="m 284.61571,227.28361 c 1.35042,-0.20244 1.54922,1.08979 0.86796,1.7347 -0.7625,-0.10547 -0.98797,-0.74673 -0.86796,-1.7347 z"
     id="path3517"
     inkscape:connector-curvature="0"
     style="fill-rule:evenodd" /><path
     d="m 373.906,229.01831 c -0.0715,2.72751 -3.44515,2.08988 -5.63443,2.60023 -5.97144,1.39164 -18.40769,2.10806 -25.57317,0 1.85228,-2.64994 4.67193,-3.43424 7.36792,-3.90095 1.15526,-0.20002 3.38212,-0.5152 4.33493,-0.43398 2.14807,0.18547 3.45243,1.8935 5.63444,2.16746 4.75799,0.59521 9.83117,-2.06442 13.87031,-0.43276 z"
     id="path3519"
     inkscape:connector-curvature="0"
     style="fill-rule:evenodd" /><path
     d="m 110.37005,229.45107 c 0.23396,1.53469 -1.53468,1.06556 -1.30072,2.60145 2.08139,0.20244 2.84631,-0.91039 3.90095,-1.7347 1.67166,0.0618 2.0026,1.46437 3.90095,1.30072 0.39397,2.12746 -1.81713,1.65105 -1.73349,3.46818 2.04382,0.16486 2.71903,-1.03766 3.90095,-1.73349 4.49616,0.84978 7.53036,3.1615 9.10262,6.93516 -7.04668,0.3564 -14.52613,-2.18443 -20.3727,-4.76769 -2.36142,-1.04373 -5.72657,-2.51173 -6.50118,-5.20167 1.02676,-3.30938 6.63695,-2.03776 9.10262,-0.86796 z"
     id="path3521"
     inkscape:connector-curvature="0"
     style="fill-rule:evenodd" /><path
     d="m 220.03305,228.15035 c 0.64248,0.36852 0.9322,1.09101 0.86674,2.16747 -1.4571,0.44488 -0.67521,-1.348 -0.86674,-2.16747 z"
     id="path3523"
     inkscape:connector-curvature="0"
     style="fill-rule:evenodd" /><path
     d="m 222.1993,229.01831 c 1.43649,0.008 0.44004,2.44991 1.30072,3.03421 0.86068,-0.006 0.55157,-1.18314 1.73349,-0.86675 -1.21102,1.05706 1.051,2.57235 0,3.46698 -1.84381,0.25456 -0.83766,-2.33961 -3.03421,-1.7335 0.0594,-1.81954 -0.78674,-2.42202 0,-3.90094 z"
     id="path3525"
     inkscape:connector-curvature="0"
     style="fill-rule:evenodd" /><path
     d="m 282.88223,229.01831 c 0.88128,0.31518 1.76984,1.30435 0.86673,2.16746 -0.94675,-0.0654 -0.92978,-1.09342 -0.86673,-2.16746 z"
     id="path3527"
     inkscape:connector-curvature="0"
     style="fill-rule:evenodd" /><path
     d="m 158.48217,233.35202 c -2.72145,1.37103 -7.81281,1.11161 -12.13683,0.86675 -4.08641,-0.23153 -7.87221,-1.3177 -11.26887,-1.30073 -0.0703,-0.50428 0.0958,-0.77097 0.43277,-0.86673 -0.0703,-0.50429 0.0958,-0.77098 0.43276,-0.86675 6.59088,2.03654 16.92634,0.26669 22.54017,2.16746 z"
     id="path3529"
     inkscape:connector-curvature="0"
     style="fill-rule:evenodd" /><path
     d="m 280.71476,231.18456 c 0.76249,0.10425 0.98796,0.74552 0.86674,1.73348 -1.60499,-0.0521 -1.08979,-0.63035 -0.86674,-1.73348 z"
     id="path3531"
     inkscape:connector-curvature="0"
     style="fill-rule:evenodd" /><path
     d="m 245.60621,231.61854 c 0.76249,0.10425 0.98797,0.74552 0.86675,1.73469 -1.34922,0.20124 -1.54924,-1.091 -0.86675,-1.73469 z"
     id="path3533"
     inkscape:connector-curvature="0"
     style="fill-rule:evenodd" /><path
     d="m 258.60978,231.61854 c 0.58066,0.28487 0.80735,0.92736 0.86675,1.73469 -1.30315,0.43641 -0.76856,-0.96735 -0.86675,-1.73469 z"
     id="path3535"
     inkscape:connector-curvature="0"
     style="fill-rule:evenodd" /><path
     d="m 278.5473,232.05252 c 0.94796,0.0642 0.93099,1.09221 0.86795,2.16746 -1.4571,0.44368 -0.674,-1.34921 -0.86795,-2.16746 z"
     id="path3537"
     inkscape:connector-curvature="0"
     style="fill-rule:evenodd" /><path
     d="m 240.8373,232.91804 c 0.6437,0.36852 0.93221,1.09102 0.86675,2.16747 -1.49953,0.30427 -1.55286,-1.51892 -0.86675,-2.16747 z"
     id="path3539"
     inkscape:connector-curvature="0"
     style="fill-rule:evenodd" /><path
     d="m 243.00598,232.91804 c 1.21344,-0.0679 1.41467,1.22557 0.86674,1.73349 -0.7637,-0.10303 -0.98918,-0.74431 -0.86674,-1.73349 z"
     id="path3541"
     inkscape:connector-curvature="0"
     style="fill-rule:evenodd" /><path
     d="m 260.34326,232.91804 c 1.26436,-0.63641 1.26436,1.93836 0,1.30073 v -1.30073 z"
     id="path3543"
     inkscape:connector-curvature="0"
     style="fill-rule:evenodd" /><path
     d="m 263.37747,232.91804 c 0.58794,0.13457 0.36003,1.08617 0.43277,1.73349 -1.00373,-0.12 -0.99524,-1.15646 -0.43277,-1.73349 z"
     id="path3545"
     inkscape:connector-curvature="0"
     style="fill-rule:evenodd" /><path
     d="m 268.57914,232.91804 c 0.94676,0.0643 0.931,1.09223 0.86675,2.16747 -1.4571,0.4461 -0.67522,-1.348 -0.86675,-2.16747 z"
     id="path3547"
     inkscape:connector-curvature="0"
     style="fill-rule:evenodd" /><path
     d="m 271.17937,232.91804 c 0.92008,0.34913 1.68985,1.78441 0.86675,2.60145 -0.56975,-0.15275 -0.68128,-0.76249 -1.29951,-0.86674 -0.0558,-0.77826 0.52974,-0.91403 0.43276,-1.73471 z"
     id="path3549"
     inkscape:connector-curvature="0"
     style="fill-rule:evenodd" /><path
     d="m 273.78081,232.91804 c 0.75159,0.39519 1.12011,1.51892 0.43277,2.16747 -1.35891,-0.29942 -0.56611,-1.15647 -0.43277,-2.16747 z"
     id="path3551"
     inkscape:connector-curvature="0"
     style="fill-rule:evenodd" /><path
     d="m 275.94707,232.91804 c 1.41952,-0.0909 1.71166,2.03412 0,1.73349 v -1.73349 z"
     id="path3553"
     inkscape:connector-curvature="0"
     style="fill-rule:evenodd" /><path
     d="m 226.9682,233.35202 c 1.48013,-0.15759 1.82926,2.50689 0,2.16747 v -2.16747 z"
     id="path3555"
     inkscape:connector-curvature="0"
     style="fill-rule:evenodd" /><path
     d="m 265.97771,233.35202 c 1.21464,-0.0679 1.41467,1.22557 0.86673,1.73349 -0.76248,-0.10425 -0.98675,-0.74552 -0.86673,-1.73349 z"
     id="path3557"
     inkscape:connector-curvature="0"
     style="fill-rule:evenodd" /><path
     d="m 229.56844,233.786 c 1.26435,-0.63763 1.26435,1.93714 0,1.30072 V 233.786 z"
     id="path3559"
     inkscape:connector-curvature="0"
     style="fill-rule:evenodd" /><path
     d="m 235.20287,233.786 c 0.64248,0.36852 0.9322,1.091 0.86675,2.16746 -1.49953,0.30306 -1.55408,-1.52013 -0.86675,-2.16746 z"
     id="path3561"
     inkscape:connector-curvature="0"
     style="fill-rule:evenodd" /><path
     d="m 237.8031,233.786 c 0.94796,0.0642 0.93099,1.09222 0.86674,2.16746 -1.49952,0.30306 -1.55286,-1.52013 -0.86674,-2.16746 z"
     id="path3563"
     inkscape:connector-curvature="0"
     style="fill-rule:evenodd" /><path
     d="m 232.16988,234.21877 h 0.86674 v 1.73348 h -0.86674 v -1.73348 z"
     id="path3565"
     inkscape:connector-curvature="0"
     style="fill-rule:evenodd" /><path
     d="m 206.16152,237.68695 c -2.31051,-1.05948 -4.01368,1.14071 -6.06841,1.73348 -5.57262,1.60743 -12.99872,1.98442 -19.93872,3.03421 -8.42863,1.27406 -15.03527,2.77358 -22.97294,2.16747 -9.06747,-0.69219 -19.4211,1.32617 -26.87388,-2.60144 0.8728,-5.5023 6.74725,-0.7928 9.10262,-0.43277 6.91576,1.05828 14.64007,0.34791 22.53895,0 7.06244,-0.31033 14.12367,-1.59286 20.80547,-2.60144 6.92667,-1.04373 13.48119,-3.52395 19.50475,-3.03421 0.36973,-2.40021 4.15673,-0.42549 3.90216,1.7347 z"
     id="path3567"
     inkscape:connector-curvature="0"
     style="fill-rule:evenodd" /><path
     d="m 250.80788,291.86749 c 2.60508,3.03178 0.89705,7.7437 1.29951,10.83488 -1.44861,1.23406 -2.01836,-1.1904 -3.46697,-1.2995 -13.60483,-1.87532 -25.49316,1.17586 -35.10976,5.63443 -1.10435,-3.75185 1.06555,-7.4649 1.73348,-10.8361 7.80312,-3.86701 23.89544,-6.97032 35.54374,-4.33371 z"
     id="path3569"
     inkscape:connector-curvature="0"
     style="fill-rule:evenodd" /><path
     d="m 252.10739,317.00788 c -7.71462,-2.64629 -16.81967,-0.8025 -23.83968,0.86796 -3.25361,0.77339 -6.91455,1.79288 -8.66864,3.90095 -2.30445,-0.15154 -1.74925,-3.1615 -2.60022,-4.76891 -2.00989,1.59893 -0.13214,3.63547 0,6.06841 0.24244,4.48646 -1.36982,11.87378 -2.16747,17.3385 -0.32487,2.22322 0.24851,4.06703 0.86674,5.63444 -0.13213,1.8438 -1.84259,-1.02312 -2.60144,0.86674 -0.68855,3.43424 2.00988,3.48031 1.73348,6.50118 -1.78681,0.34185 -0.81461,-2.07533 -2.60144,-1.73349 -1.62923,2.18444 1.68985,5.0853 0.43398,6.93516 -1.29102,-0.009 -0.55641,-2.04503 -1.30072,-2.60144 -3.28028,0.75522 -1.55893,4.19916 -0.86675,6.50118 -1.6765,0.37821 -1.54195,-1.05828 -2.60144,-1.29951 -2.32747,0.84977 -1.8838,4.47191 -4.76768,4.7689 1.14555,2.14443 2.14079,4.55192 0.86673,6.93516 -1.73833,-0.30064 -3.16633,-2.67902 -5.20166,-1.29951 1.14797,0.5843 2.78085,0.68612 3.46818,1.73349 -0.0521,1.24859 0.23638,2.83783 -0.43398,3.46697 -1.93714,-0.76007 -3.31181,-0.94675 -5.63443,-0.43277 -0.29215,-2.14564 3.17118,-3.2718 0.86674,-4.76769 0.63521,-2.54447 2.28747,-4.07066 3.90095,-5.63444 -0.17699,-0.83522 -1.68015,-0.34306 -1.30072,-1.73469 1.60014,-7.06851 5.6405,-11.69679 6.50118,-19.50475 -1.17465,-1.18314 -1.07888,1.12131 -2.60144,0.86674 0.53459,-1.34314 1.31647,-2.44143 3.03421,-2.60144 0.36123,-2.52871 1.39769,-4.38099 1.30071,-7.36914 -1.50437,0.37458 -2.40506,1.35164 -3.46697,2.16747 -0.77703,-1.80016 2.8148,-2.95541 3.90095,-4.33372 2.08624,-7.45035 0.91887,-18.15311 5.63443,-22.97293 -0.057,-1.06918 -0.0654,-2.08867 0.43398,-2.60144 10.77065,-2.9845 27.58426,-9.23597 37.70878,-2.60145 0.48247,3.93853 1.77591,7.9801 0.004,11.70407 z"
     id="path3571"
     inkscape:connector-curvature="0"
     style="fill-rule:evenodd" /><path
     d="m 252.97535,304.00431 h 0.86673 v 0.86675 h -0.86673 v -0.86675 z"
     id="path3573"
     inkscape:connector-curvature="0"
     style="fill-rule:evenodd" /><path
     d="m 286.78317,319.17534 c 1.00736,5.02226 -1.46074,10.01543 -3.46697,13.43634 -5.03439,-5.41503 -17.0912,-7.78614 -26.87388,-5.63322 -2.17959,-1.00009 -0.99403,-3.1724 -1.29951,-5.20167 -0.28003,-1.85714 -1.05828,-3.53244 -0.86796,-4.76891 9.96936,-3.15179 24.03,-1.2195 32.50832,2.16746 z"
     id="path3575"
     inkscape:connector-curvature="0"
     style="fill-rule:evenodd" /><path
     d="m 252.54137,319.17534 c 0.63642,2.25233 0.40125,5.37745 0.43277,8.23588 -9.52812,0.37458 -21.7595,0.82068 -27.74063,6.93516 -2.06321,-2.85359 -4.72526,-7.40671 -4.33493,-11.27009 2.63054,-3.02572 7.91463,-3.50697 13.43633,-4.33372 5.7496,-0.8631 12.60476,-1.0316 18.20646,0.43277 z"
     id="path3577"
     inkscape:connector-curvature="0"
     style="fill-rule:evenodd" /><path
     d="m 280.28199,332.61168 c -0.26062,4.07429 -2.25595,6.4139 -4.33492,8.66865 -3.10574,0.64975 -3.25969,-1.65107 -5.20046,-2.16626 -4.45737,-0.8631 -10.10271,-1.95411 -15.17103,-0.86795 -0.92978,-1.96017 -0.20488,-5.57504 -0.43277,-8.23467 6.85757,-3.8064 19.90963,-1.62681 25.13918,2.60023 z"
     id="path3579"
     inkscape:connector-curvature="0"
     style="fill-rule:evenodd" /><path
     d="m 252.10739,330.44543 c 0.34185,2.92511 0.22426,6.11447 -0.86675,8.66864 -4.6998,-0.28002 -10.98521,-0.17577 -15.17102,1.29951 -1.7141,0.45337 -1.43528,2.89965 -3.46698,3.03421 -2.00017,-1.88866 -4.62707,-4.21735 -4.33493,-6.93516 0.65581,-6.07205 17.21728,-7.87706 23.83968,-6.0672 z"
     id="path3581"
     inkscape:connector-curvature="0"
     style="fill-rule:evenodd" /><path
     d="m 274.21358,342.58104 c -0.72249,3.90095 -3.30453,5.94234 -5.63444,8.23588 -3.77367,-1.18071 -9.08807,-2.50204 -13.43633,-1.7347 -0.8025,-2.52022 -0.96615,-5.68171 -1.30073,-8.66864 6.38602,-1.22799 15.62805,-0.79401 20.3715,2.16746 z"
     id="path3583"
     inkscape:connector-curvature="0"
     style="fill-rule:evenodd" /><path
     d="m 251.67341,340.84756 c -0.16122,3.01723 0.40004,6.75695 -0.43277,9.10262 -4.89012,0.45216 -8.47347,0.38912 -12.13682,2.16746 -1.49225,-2.84267 -4.47676,-4.19188 -3.90095,-9.10262 3.57607,-2.47901 10.74762,-3.2318 16.47054,-2.16746 z"
     id="path3585"
     inkscape:connector-curvature="0"
     style="fill-rule:evenodd" /><path
     d="m 265.54494,351.2509 c 0.7443,4.34341 -4.48888,6.10599 -7.36914,8.23466 -1.26435,1.33709 -1.62559,3.57486 -3.46697,4.33493 -1.36861,-0.9322 -1.388,-4.40524 -1.29951,-6.93516 0.0958,-2.80267 0.55763,-5.23561 1.7347,-6.50239 3.63426,0.12001 7.9704,-0.45943 10.40092,0.86796 z"
     id="path3587"
     inkscape:connector-curvature="0"
     style="fill-rule:evenodd" /><path
     d="m 251.24064,351.68366 c -0.21092,4.97256 0.62672,8.37892 -0.43276,12.5696 -2.08867,-0.0776 -3.42818,-0.90554 -3.46697,-3.03421 -1.6159,-0.46064 -0.68612,1.6256 -2.16746,1.29951 v -3.90096 c -1.6159,-0.46064 -0.68612,1.62561 -2.16747,1.30073 -1.21223,-1.26315 0.39761,-2.14928 0.86674,-3.03421 -0.70672,-1.46073 -2.48385,-1.84986 -2.60023,-3.90216 1.53468,-2.3396 7.20307,-2.76388 9.96815,-1.2983 z"
     id="path3589"
     inkscape:connector-curvature="0"
     style="fill-rule:evenodd" /><path
     d="m 262.07675,358.61882 c 1.21829,-0.0631 1.24981,1.06191 1.29951,2.16747 -1.35406,0.19759 -1.38436,-0.92615 -1.29951,-2.16747 z"
     id="path3591"
     inkscape:connector-curvature="0"
     style="fill-rule:evenodd" /><path
     d="m 259.90929,359.91954 c 0.71885,0.43762 0.47155,1.84138 0.86674,2.60023 -2.20746,0.4958 -1.00736,-1.74318 -0.86674,-2.60023 z"
     id="path3593"
     inkscape:connector-curvature="0"
     style="fill-rule:evenodd" /><path
     d="m 257.30906,361.65302 c 0.73946,0.16851 1.94805,2.04261 0.86674,2.60145 -1.56619,0.40973 -0.60369,-1.70803 -0.86674,-2.60145 z"
     id="path3595"
     inkscape:connector-curvature="0"
     style="fill-rule:evenodd" /><path
     d="m 246.47296,362.95375 c 1.26435,-0.63763 1.26435,1.93714 0,1.29951 v -1.29951 z"
     id="path3597"
     inkscape:connector-curvature="0"
     style="fill-rule:evenodd" /><path
     d="m 312.79032,366.8547 c -0.55885,2.32869 -3.95672,-0.12001 -3.90217,2.16746 0.36973,1.27163 1.09101,-0.5649 2.16746,0 2.19292,5.75445 6.44421,9.4481 6.06842,17.77126 1.54437,2.28141 3.08027,6.42724 1.30072,9.53539 -1.28133,-0.59884 -0.99888,-2.75782 -1.30072,-4.33493 -2.816,0.074 -2.4875,3.29241 -6.06842,2.60144 0.15395,-2.23777 3.93368,-2.76388 3.03421,-6.93515 -0.22062,-1.02191 -1.38073,-1.62318 -2.16746,-3.46697 -1.58681,-3.72518 -0.27761,-14.5916 -6.06841,-13.87032 0.34911,-2.18323 0.68854,-4.4113 0,-6.50118 1.95532,-2.41839 5.16045,1.32375 6.93637,3.033 z"
     id="path3599"
     inkscape:connector-curvature="0"
     style="fill-rule:evenodd" /><path
     d="m 249.94114,365.11999 c 1.10313,0.0437 1.02433,1.61591 0.43276,2.16747 -0.93947,0.074 -0.19638,-1.5371 -0.43276,-2.16747 z"
     id="path3601"
     inkscape:connector-curvature="0"
     style="fill-rule:evenodd" /><path
     d="m 252.54137,365.98795 c 1.10191,0.0437 1.02433,1.61469 0.43277,2.16625 -0.93948,0.074 -0.19518,-1.5371 -0.43277,-2.16625 z"
     id="path3603"
     inkscape:connector-curvature="0"
     style="fill-rule:evenodd" /><path
     d="m 199.22758,377.25683 c -0.20851,5.73868 -0.49217,15.09466 -4.76891,18.20523 0.0194,2.75661 0.39398,4.66345 1.30072,7.36914 -3.1336,-0.0642 -4.44039,-5.33138 -2.16746,-6.93516 -0.55642,-0.7443 -1.72985,-0.87159 -2.16747,-1.73469 0.97948,-6.67817 3.59547,-11.71983 6.06842,-16.90452 h 1.7347 z"
     id="path3605"
     inkscape:connector-curvature="0"
     style="fill-rule:evenodd" /><path
     d="m 196.19337,395.89604 c 2.01836,0.004 2.39416,1.65105 4.76769,1.29951 -0.60369,2.03291 -3.72032,1.90199 -5.20167,0.86674 -0.13819,-1.00494 0.0703,-1.66317 0.43398,-2.16625 z"
     id="path3607"
     inkscape:connector-curvature="0"
     style="fill-rule:evenodd" /><path
     d="m 210.93042,123.68902 c -0.0267,2.86693 0.79765,10.3294 -2.60022,11.27009 1.3383,1.57953 2.55174,-2.10442 3.46697,-0.86674 -0.0581,1.96502 -1.0607,2.9845 -1.30072,4.76769 -0.0134,1.16495 2.1808,1.16495 2.16747,0 1.07282,0.41822 -0.59763,1.6656 0,3.03421 0.81946,1.47407 1.51892,-0.74189 2.60022,-0.43277 -0.0909,2.07533 -2.69235,1.64136 -2.16746,4.33493 1.20738,1.59408 1.02797,-1.82683 2.60144,-1.30072 0.1188,1.8535 -1.2583,2.2099 -2.16746,3.0342 0.36609,0.93463 1.90077,0.69947 2.60144,1.30073 -1.46195,1.57226 -2.25354,3.81366 -4.7677,4.33492 -1.09949,1.05949 0.91402,0.92372 0.43277,2.60145 -3.6779,1.76742 -4.73253,6.66119 -6.50118,11.70284 -1.61347,4.59798 -2.9348,8.15346 -1.30072,13.43755 1.18193,1.1298 0.8231,-1.72378 3.03421,-0.86674 2.3396,0.98311 2.42809,4.21734 3.90094,6.06842 2.68873,-1.39407 -0.22062,-5.03318 0.86675,-6.93516 2.39658,2.66084 3.70457,6.41025 4.33493,10.8361 2.00018,-0.2279 -0.34306,-2.55295 0.43277,-4.33492 2.3905,1.08979 1.62317,4.56161 2.16746,6.93516 0.6352,2.77114 2.77237,5.6417 1.30072,8.23587 -2.71055,-2.3396 -3.12149,-7.50975 -6.06842,-9.96937 -2.03897,-0.417 -3.43545,-1.47649 -4.33371,-3.0342 -1.90077,1.47649 -2.84752,-0.99766 -4.76891,-0.86675 -3.6088,3.99793 1.99654,11.55011 4.76891,15.60381 1.30799,1.91289 3.25604,3.94579 4.76769,3.90094 3.62578,-0.10667 3.16635,-4.93983 7.8019,-4.7689 -7.51096,-7.72917 13.04479,-19.89509 13.43634,-8.66865 0.11637,3.34576 -2.72752,4.02582 -3.90095,6.93516 3.00147,-1.08737 5.70716,-3.48879 5.63443,-7.36913 -0.0291,-1.58439 -2.05351,-2.91904 -2.16746,-4.76769 -0.23759,-3.8658 2.90692,-6.32662 6.50118,-3.46698 3.99065,-1.56134 7.75705,-2.39294 12.56959,-1.73348 3.35302,0.45823 5.50594,2.9348 9.53538,1.73348 4.68042,-7.13759 12.2423,-11.12461 21.67343,-11.70284 0.67642,2.69963 -1.20011,2.8463 -3.46818,2.60144 -5.5908,2.2111 -9.87118,5.73262 -13.00357,10.40334 -1.15041,-0.005 -2.47537,0.16365 -3.03421,-0.43398 -0.67158,0.98312 1.58196,2.736 2.16746,3.90095 5.18712,-2.47415 10.16696,1.29223 12.13683,4.76769 1.55892,-1.96381 0.0497,-7.16548 1.73349,-9.96936 1.93835,-0.20365 0.94796,2.52022 2.16746,3.0342 2.11291,-1.49952 0.57338,-6.65149 3.90095,-6.93515 -0.14304,1.58802 0.48126,2.40869 0.86796,3.46697 0.98918,-1.03282 2.55537,-1.48983 3.90095,-2.16746 -1.08374,-5.41866 -1.43164,-11.57193 -5.63444,-13.87032 2.73964,-3.24998 -2.6572,-4.4913 -3.46698,-6.93515 0.76856,-0.0994 2.17111,0.4364 1.73471,-0.86674 -0.43398,-1.87774 -3.35909,-1.26315 -3.90217,-3.03422 -0.61096,-1.91167 2.59417,-0.008 2.60144,-1.30071 -0.66308,-3.23787 -4.74102,-3.05966 -4.33371,-7.36792 1.75167,0.27033 1.43527,2.60992 3.03421,3.0342 1.10434,-2.56022 -1.86077,-4.7786 -1.7347,-7.8031 2.46931,1.41466 6.66604,-1.31285 7.80311,2.60143 0.89948,-0.25578 1.47771,-0.83401 1.73348,-1.73349 1.15163,2.46325 -0.6255,5.72294 -0.43276,8.66865 1.26799,0.36003 1.40618,-2.58326 2.16747,-1.30072 -0.52611,3.20391 -3.28757,6.80302 0,9.10262 1.22434,-0.6546 1.06191,-2.69478 1.73469,-3.90096 2.70206,2.41476 -2.61477,5.33381 -1.73469,7.36914 1.45225,1.56377 1.88137,-1.56135 3.46697,-1.30071 0.14668,2.45839 -2.28748,2.33595 -2.60145,4.33492 0.62794,1.87895 0.96857,-0.4558 2.60145,0 -3.58335,4.20037 0.5152,11.35979 0.43277,17.3385 -0.6728,1.24132 -2.02201,-0.90312 -2.60145,0.43276 0.45822,2.16746 3.4597,0.26426 4.76891,2.16746 0.37821,5.8684 -3.63062,7.34853 -6.06841,10.40213 -0.6037,3.73125 -3.15787,5.51079 -5.20168,7.80312 -1.40619,-0.25215 -2.01594,0.29456 -3.03421,0.43277 0.59642,2.29353 3.30818,2.47052 2.60144,6.06841 1.62924,1.54922 3.45485,2.90207 4.76891,4.76768 0.36004,2.81723 -0.41337,4.4998 -0.86796,6.5024 7.03577,-6.483 15.58319,-13.08964 23.83968,-19.07199 6.6224,-4.79799 13.16358,-10.09907 19.93873,-14.73705 13.8885,-9.50992 29.32622,-16.87058 44.21238,-25.57317 4.60889,0.006 8.01162,-3.57849 12.13683,-5.20166 3.57001,-1.40498 7.58976,-2.4778 11.27009,-3.90095 10.77791,-4.16522 24.527,-8.9814 37.70877,-10.83611 6.26843,-0.8825 12.44594,-0.64733 19.07198,0 -0.38427,3.18937 -4.3422,4.45857 -6.93637,5.20167 -4.68526,1.34193 -11.53435,1.66075 -16.03656,2.60144 -9.47963,1.97836 -19.71204,3.92399 -29.04135,6.93516 -4.59798,1.48498 -8.83108,3.82822 -13.43634,5.20167 -1.051,0.31275 -2.43051,0.0873 -3.46697,0.43276 -14.02669,4.68406 -27.04965,13.08358 -39.44469,19.50475 -0.0909,-1.53589 2.03412,-0.85583 1.73471,-2.60023 -6.40542,3.56274 -13.16965,6.76788 -18.20525,11.70286 -3.57607,1.36132 -7.42005,4.69495 -10.40334,7.36913 -3.6185,3.24513 -9.94997,6.33025 -14.30307,9.53659 -3.01602,2.22202 -5.96659,4.8574 -9.10263,7.36914 -2.61235,2.09109 -5.81505,4.27068 -7.36913,7.8019 -0.82553,0.18547 -1.08858,0.93342 -2.16747,0.86675 -1.50558,3.40756 -3.70214,6.12175 -5.20045,9.53659 1.67893,0.98918 3.54213,-2.03411 5.63443,-1.73349 2.69964,0.38671 3.52637,2.32991 2.60023,6.06841 1.93472,-0.0897 1.52256,-2.52385 3.03421,-3.0342 3.3409,-0.15395 6.33995,0.90311 9.5366,1.30072 6.60543,0.8219 13.38299,0.2679 19.93751,1.29951 0.97342,0.15274 1.63651,1.05949 2.60145,1.30072 4.25734,1.06433 10.98763,0.5855 16.47175,0.86675 2.37596,0.12243 4.51676,0.78915 6.93516,0.43276 -0.47277,-2.02078 -4.83558,-1.348 -6.50118,-0.86674 -11.88347,-3.14452 -27.99035,-2.06321 -39.44348,-5.63444 0.0255,-2.4293 1.63893,-3.27302 2.60023,-4.76891 20.54484,0.93463 46.31439,9.01898 65.88459,2.16747 2.01473,0.73097 2.74812,2.74327 4.33493,3.90095 -0.68733,3.06814 -5.20046,2.31293 -6.93515,4.33493 3.06451,0.74673 6.30843,-2.06685 9.10262,-3.03421 0.36367,-0.50307 0.57217,-1.16252 0.43276,-2.16746 19.57021,-7.0285 37.91243,-16.22568 53.74776,-26.87388 6.34117,-4.26463 11.59133,-9.97058 16.47054,-15.60381 -1.62802,-0.88977 -2.56871,2.62084 -4.76768,2.60024 -1.31528,-1.71895 -4.50101,-1.56741 -6.06842,-3.03421 0.0473,1.07888 0.81219,1.34193 0,2.16746 0.8716,1.15161 3.63184,0.41337 3.90096,2.16746 -0.49217,2.13232 -3.63185,1.84017 -5.63445,1.30073 -0.97099,1.42436 3.28514,1.32375 3.03421,3.46697 -1.051,0.68248 -1.85107,1.6159 -3.90094,1.30071 -0.27276,2.04019 -1.76138,2.86208 -3.46698,3.46819 -4.41978,-2.65357 -12.65445,-5.25016 -20.3727,-6.06841 -5.66354,-0.60127 -11.7768,1.71167 -15.17104,0.86674 -2.26201,-0.56247 -4.29128,-3.65244 -1.73469,-5.20166 5.12529,3.30331 14.38551,1.41829 22.97293,2.16746 6.77513,0.59035 12.19743,3.18573 17.3385,4.33493 -3.69973,-2.87784 -9.19718,-3.35182 -14.73706,-5.20168 -0.92615,0.20245 -0.82675,-0.61945 -0.86796,-1.2995 -6.64907,0.0412 -19.42717,3.80639 -22.10498,-1.73471 4.55434,0.45338 14.5928,2.10564 18.63801,-1.29951 1.16132,0.28367 1.64742,1.24133 2.60145,1.73349 6.82241,-0.0315 10.97187,2.60993 16.90452,3.46698 -2.25112,-0.61339 -4.71073,-2.99663 -8.23589,-3.90096 -4.01489,-1.03039 -9.38264,0.47399 -9.10261,-3.46697 4.1846,0.75038 10.02391,1.60135 14.73705,3.03421 -1.71894,-2.8063 -8.71592,-3.15422 -13.00357,-3.90095 -0.38792,-3.55062 7.50733,-2.33839 9.96936,-1.7347 2.44143,0.60005 4.34463,2.37233 5.63444,2.60144 -1.29345,-3.62092 -9.87238,-3.7082 -14.73706,-5.20166 2.86693,-2.06685 7.39945,-1.99048 11.27009,-1.7335 6.57634,0.4352 14.08245,2.51538 17.77126,5.20168 0.80856,0.77097 -0.35275,1.10191 0,2.60144 4.54585,-3.25605 7.00425,-8.59954 10.8349,-12.5708 v -2.60024 c 2.81358,-1.47528 3.80033,-4.99802 5.63443,-8.66864 2.1311,-4.26462 5.17864,-9.99603 2.16747,-16.47054 -0.62673,0.52974 -0.65825,1.65469 -1.30073,2.16746 -4.16763,1.2789 -8.46741,0.39276 -13.8691,0.86674 -12.00712,1.05464 -21.93648,6.03569 -33.81025,5.63444 -2.47174,-0.0836 -6.49512,1.42679 -7.36792,-1.7347 3.70093,-1.74803 8.21042,-2.10563 12.56959,-3.46697 0.74431,-0.23274 1.40255,-1.12009 2.16746,-1.30072 5.20895,-1.22556 11.13432,-0.93827 16.47055,-1.73348 6.50724,-0.96979 11.83498,-3.97005 16.47175,-6.50118 1.08737,-0.76371 0.30427,-0.71644 0.86675,-1.73349 3.37242,0.49216 5.7993,1.25466 8.23587,3.46697 1.47407,1.3383 3.65124,3.81003 3.90095,4.33493 2.01351,4.23553 0.13093,13.79394 -1.73348,17.77127 -1.47892,3.153 -4.43433,6.46844 -6.93637,9.96936 -11.60587,16.24142 -25.37315,29.39895 -43.34443,39.87745 -3.59668,2.09716 -7.0491,4.02096 -10.40334,6.06841 -3.86337,2.35778 -7.54369,3.71063 -11.26887,5.20167 -3.81125,1.52498 -10.23969,4.75315 -13.87031,6.93516 -1.50316,-0.34791 -1.66561,0.64611 -3.03421,0.43398 -4.52646,1.91896 -9.60691,4.87073 -15.6038,5.63443 -2.67296,0.34064 -5.83324,-0.47883 -8.23588,1.30072 5.16652,0.94191 11.65921,0.19638 18.20524,0.43277 9.39113,0.33942 16.11052,0.43034 22.10498,4.7689 1.59045,1.15041 4.6295,4.27917 4.7689,5.63444 0.27034,2.64751 -5.21015,9.36931 -8.23587,12.57081 -9.73177,10.29423 -22.01406,19.4708 -36.84325,24.27243 -2.45597,0.79523 -5.00044,0.43762 -6.50117,2.16747 -8.82988,1.52256 -17.17122,3.62214 -26.87389,1.2995 -1.40619,-0.33578 -2.45234,-1.30798 -3.90095,-1.2995 -5.21621,0.0278 -10.68094,4.96892 -17.3385,4.76769 -6.51936,-0.19638 -11.87619,-5.77505 -14.30428,-10.83489 -0.84978,0.73824 -0.13699,3.04027 -1.29952,3.46697 -10.59123,-1.08616 -27.5903,-5.83688 -39.01192,-0.86674 -12.29199,-4.46827 -28.49826,0.15274 -38.14276,3.90095 1.32255,-4.98711 0.49823,-9.96694 4.76891,-12.13683 1.42073,-0.72249 3.90095,-0.68854 6.50118,-1.30072 3.10209,-0.72976 6.54361,-1.93229 9.10262,-2.16626 4.85134,-0.44488 11.03612,-0.86673 13.87031,-0.43396 1.48135,0.22668 3.06815,1.32859 3.90095,1.73469 0.91645,2.42809 -0.48489,5.32774 0,8.66864 4.19431,0.1479 0.98797,-7.10244 2.60144,-9.53539 2.94693,-1.89229 8.29528,-0.35154 12.13683,-0.43276 0.1685,-1.46195 3.10816,-3.0136 4.33493,-4.7689 3.98823,2.03169 10.97794,1.69954 13.87031,-1.73471 1.36013,-0.20486 1.14434,1.16739 2.16625,1.30073 -0.10061,-1.79289 -2.72751,-3.3203 -1.2995,-5.20167 4.6598,4.91922 6.26236,14.85221 9.96936,21.67221 0.60854,1.12131 1.62439,2.96026 2.16746,3.46819 4.2331,3.95428 14.32854,3.36878 19.93752,0 1.59044,-0.95524 2.36627,-2.72389 3.90216,-3.46819 3.96035,1.81956 7.79826,3.76276 13.8691,3.46819 1.38557,-0.0606 0.95645,-1.93472 1.7347,-2.60144 1.56013,-0.11639 2.08988,0.80006 3.46697,0.86673 2.36264,0.82068 3.77973,-2.69963 5.20167,-3.0342 0.35639,-0.0836 2.07655,0.87159 3.03421,0.86674 2.20262,-0.009 3.90579,-0.76733 5.20167,-2.60144 -2.25839,-3.23059 -6.45875,-4.52161 -10.40334,-6.06841 -2.61357,-2.76146 -7.8613,-5.09864 -12.13683,-4.7677 0.69218,2.20141 3.97369,5.55807 6.06841,7.80191 -0.69217,1.78681 -2.6972,-0.90069 -3.0342,-2.16626 -3.1918,-3.74457 -7.00425,-6.86605 -11.27009,-9.5366 -2.91662,0.17214 -3.83063,-1.65832 -6.93516,-1.2995 5.70233,6.29024 14.18186,9.80207 17.3385,18.638 -10.61669,-11.92347 -22.305,-22.77292 -39.87745,-27.74063 -0.5746,1.02798 2.54446,2.06443 3.90095,2.60145 9.24809,7.51096 19.26352,14.25701 26.00714,24.27244 -6.67574,-4.30583 -10.01785,-11.9453 -17.77126,-15.17103 -0.52975,-1.64015 -1.76258,-2.57114 -3.46818,-3.03421 0.40972,2.66811 2.88752,4.73253 4.33492,7.80189 1.30194,2.76025 2.52386,6.11085 3.0342,9.53661 -1.65832,-1.17344 -2.30565,-3.45728 -3.0342,-5.20168 -2.31535,-5.54836 -5.20652,-11.00703 -9.53539,-15.17103 -2.84146,-0.91523 -4.79678,-2.7166 -7.80311,-3.46697 5.45745,6.25146 13.65212,15.81473 14.73706,26.44112 -1.75288,-1.67167 -2.20625,-4.01126 -3.03421,-6.06841 -2.44264,-6.07449 -5.79203,-12.15381 -10.83611,-16.47176 2.73722,6.36783 7.72796,12.78779 7.36914,20.80547 -1.93835,-1.62439 -1.46195,-4.461 -2.16746,-6.50118 -2.0814,-6.01871 -5.77263,-12.14774 -9.96936,-16.47176 -1.76744,6.35572 -12.46656,11.20706 -17.77127,5.20168 -0.95039,2.22928 -1.60984,4.74708 -4.76891,4.7689 -3.34089,-1.79288 -3.10088,-6.6818 -0.86674,-9.5366 4.74466,-6.06114 17.47185,-9.44568 18.20524,-18.20402 0.55156,-0.6037 2.12383,-0.18912 2.16747,-1.30073 -0.58915,-2.2996 -1.2486,-4.53009 -3.46697,-5.20166 -2.02685,11.12097 -9.15839,17.13847 -16.90452,22.54016 0.77339,-3.41727 3.75305,-4.62707 4.33371,-8.23588 -2.66327,1.52498 -3.03542,5.34351 -6.06842,6.50118 -2.13109,3.24878 -4.46827,9.05899 -1.73348,13.43755 -4.63677,0.21214 -7.71583,-0.42065 -9.96936,1.73349 -1.65834,-1.25466 0.65824,-1.45104 0.86674,-3.03421 0.97099,-7.3655 -6.78484,-10.85308 -10.40334,-14.73706 -0.7831,-3.83913 -2.79055,-6.45632 -2.60023,-11.27007 -2.99784,5.37258 2.42809,10.36696 1.73349,14.73705 3.86337,2.5081 11.86407,6.5933 6.93515,12.5708 -1.79167,0.49701 -3.41121,0.49701 -5.20167,0 0.0194,-0.74188 -0.32245,-1.12373 -0.86674,-1.30072 -0.52126,-2.68872 0.76613,-3.56758 1.7347,-4.76769 -1.7153,-0.93584 -3.35909,1.4074 -4.33493,2.60022 0.22911,2.37112 2.36627,2.83541 2.60023,5.20168 -8.26497,-0.17457 -14.93828,1.24253 -21.23945,3.03421 1.15768,-3.46576 1.2583,-7.98859 3.90095,-9.96937 1.34921,0.38428 1.54196,1.92502 2.60144,2.60144 2.8742,1.31527 7.25277,1.12737 10.40334,2.16625 0.12729,-3.23058 -9.80571,-1.18798 -11.27008,-4.33371 -0.58308,-1.00615 -0.71764,-2.46082 -1.30072,-3.46697 -5.17016,3.00269 -7.94131,8.55711 -11.26887,13.43633 -1.65954,2.43537 -3.5288,4.93135 -5.20167,7.36913 -1.66561,2.42567 -2.78449,5.29744 -5.20168,6.93516 1.23406,-5.45866 5.40654,-8.89532 8.23467,-13.00357 2.87662,-4.17855 5.51322,-8.49166 8.66864,-12.56959 -6.12053,4.22462 -10.93308,9.77299 -16.03777,15.17104 -1.51044,1.5965 -2.95663,3.47909 -4.33493,5.20045 -1.27647,1.59529 -2.24747,3.96399 -4.33371,4.76891 6.14478,-11.62648 16.55903,-18.9835 25.13918,-28.17339 -12.7975,6.8503 -23.11597,16.18324 -31.20759,27.74063 0.0182,2.58204 2.48264,2.71781 3.46696,4.3337 4.32402,0.17578 8.45044,0.87523 11.70285,0 2.4184,-0.64975 6.12418,-3.02208 7.36914,-4.76768 2.02684,-2.84511 2.4887,-7.9898 3.90095,-11.70286 0.68006,-1.78924 1.44982,-3.95671 2.16746,-5.63443 0.65339,-1.52862 1.4571,-4.20279 3.46697,-4.33493 -0.0679,2.75297 -2.30929,5.65869 -3.46697,8.66865 -0.81219,2.11412 -0.95281,4.79072 -2.60144,6.50239 1.43286,10.21301 -13.7697,15.6838 -22.10619,13.8691 -1.72864,-0.377 -2.83904,-2.15292 -4.33493,-2.60145 -7.37277,-2.20019 -18.26343,0.0121 -27.30665,-0.86673 -2.71297,-0.26427 -5.72535,-0.80614 -8.66864,-1.29952 -15.65835,-2.6281 -31.08032,-12.54898 -41.61094,-21.67342 -0.83886,-0.72734 -1.28618,-1.46679 -2.16747,-2.16625 -1.83773,-1.46195 -7.292759,-6.8491 -7.369129,-10.83611 -0.0436,-2.3105 1.935929,-3.80276 1.733489,-5.63444 3.04633,-2.5881 6.98001,-4.29007 9.96936,-6.93515 6.66605,-1.28011 13.64848,-2.24505 20.37149,-3.46819 -22.12316,-5.32895 -40.317489,-14.58674 -58.081479,-24.27243 -0.320029,-0.9807 -1.652267,-0.94918 -1.734698,-2.16747 -9.226268,-4.19795 -19.455048,-12.84234 -28.607369,-22.10619 -8.892906,-9.01292 -17.612461,-19.12411 -19.503537,-31.21973 -1.498314,-9.58629 2.280201,-16.97119 12.570805,-16.90451 0.04728,1.07767 0.812192,1.34193 0,2.16746 8.662581,6.65271 24.079697,6.54967 37.709989,8.23587 -4.187035,-3.10451 -10.81065,-2.11291 -16.90452,-3.0342 -2.849948,-0.43034 -5.948403,-1.13949 -8.668643,-1.7347 -2.59538,-0.5661 -6.118115,-0.97826 -6.935156,-3.46697 2.080183,-2.69357 9.297788,-1.67044 14.737056,-1.30072 10.66397,0.72613 22.654117,3.93004 32.942297,6.06841 2.774789,0.57703 5.273191,1.75895 7.801896,2.16747 1.04009,0.1685 2.05715,-0.23397 3.03421,0 2.337179,0.55884 5.252579,1.68621 7.801899,2.60023 15.58683,5.592 33.56054,13.84728 48.5461,22.10618 3.92641,2.16384 7.54127,4.25614 11.26887,6.50239 1.19162,0.71765 2.86934,1.01464 3.90095,1.7335 0.6643,0.46186 1.01221,1.71772 1.73349,2.16746 2.56143,1.59892 5.31076,2.55901 7.80189,4.33493 10.91975,7.78128 21.97163,16.50812 31.6428,26.00714 0.47155,-2.46931 -2.98572,-4.41494 -3.03421,-6.93516 -0.0703,-3.64517 4.08763,-4.84892 5.20167,-8.23587 -0.47762,-1.54439 -2.90814,-1.13708 -4.33493,-1.7335 -0.77946,-1.97229 -3.30332,-2.79418 -5.20167,-5.20166 -2.55416,-3.24029 -3.68881,-7.80433 -5.20167,-11.27009 -0.73219,-1.67893 -2.56023,-2.84631 -2.16747,-4.76769 0.53702,-2.62448 3.10573,-2.50204 5.63445,-3.03421 -7.0576,-0.34669 -2.83662,-11.62042 -4.7677,-16.03778 -0.11395,-1.41467 1.68257,-0.91887 1.73348,-2.16746 -0.32851,-2.27172 -1.45103,-3.74942 -1.73348,-6.06841 1.35285,-1.22557 1.42316,1.45952 2.60144,1.73348 0.097,-2.84145 -1.00736,-4.48282 -1.30072,-6.93516 1.84258,0.0364 0.99524,2.76146 2.16746,3.46819 0.8425,-1.86683 -0.90311,-4.86709 -0.43398,-7.80311 1.44013,0.43883 0.60248,3.15543 1.7335,3.90094 2.46081,-2.95903 -1.3771,-6.56178 -0.43277,-10.83609 1.30193,0.86553 0.70915,3.62455 1.73348,4.76768 2.3493,-1.41709 1.69834,-5.25985 0.86675,-7.80189 1.49467,0.40609 1.46073,2.81236 3.0342,0.86674 -1.60862,1.07283 -3.61244,-4.55919 -0.86674,-5.20167 -0.8328,-1.04494 -2.03533,-1.72136 -3.03421,-2.60144 0.96857,-9.54508 -4.52525,-13.1745 -3.90095,-23.40691 1.0413,-0.40368 1.14799,-1.74198 3.0342,-1.30073 1.12011,-2.52992 7.47945,-6.43329 8.66865,-1.2995 -3.93247,-0.46428 -4.00883,2.92632 -7.36913,3.03421 0.26548,5.60776 0.0533,11.39979 2.16746,16.03656 -0.21941,2.19413 -1.98684,2.29959 -0.43276,4.33493 2.37596,-0.94554 2.20989,-4.43433 3.90215,-6.066 z m -4.33492,-16.47054 c 0.95524,0.18305 2.39172,-1.29829 1.30072,-1.73348 -0.17577,0.83523 -1.68136,0.34306 -1.30072,1.73348 z m -71.95301,74.55324 c -2.47901,-2.07291 -5.09136,-3.63547 -8.23466,-5.20167 -8.74138,-4.35553 -18.53497,-7.87099 -28.174609,-10.8361 -7.577636,-2.33112 -14.933435,-5.13743 -22.972931,-5.20168 2.237772,0.93948 5.485331,0.8716 6.935156,2.60144 -5.736263,5.44048 -15.219523,2.81843 -22.538956,1.29951 -6.232064,-1.29224 -12.455643,-2.77357 -19.070772,-3.46697 -3.25362,-0.34064 -7.313371,0.6049 -9.536597,-2.16746 -1.618324,-3.48516 4.195521,-5.20774 3.90095,-7.36914 -5.16894,1.34194 -7.043045,6.61877 -6.935156,11.70285 0.280024,13.25935 10.493045,23.84331 16.470542,31.64158 0.425491,1.21465 1.156465,-0.63036 1.733485,0.43277 1.083732,2.67296 2.332327,5.18106 5.634436,5.63443 5.807785,7.62855 15.023143,11.85074 22.106191,18.20524 1.811068,-0.36609 2.046241,0.8425 3.466972,0.86674 3.119063,3.99066 8.210421,5.19077 13.00357,7.8019 9.05898,4.93377 18.871969,10.18635 28.607369,13.43634 5.31078,1.77348 11.38646,3.4997 16.90452,4.33493 5.32411,0.80491 10.83005,0.65339 16.47054,1.30072 7.34005,0.84128 14.57341,1.74318 22.53896,1.73349 8.19103,-0.009 13.53573,-2.14687 20.3727,-3.03421 5.96053,-0.77462 11.77074,-0.19396 17.77127,-0.43398 -0.64006,-2.81358 -3.27908,-4.21856 -1.30072,-7.36792 5.76172,-2.50447 10.50395,1.33224 14.30429,4.33372 7.37883,-1.17224 15.28498,0.0424 22.10497,-2.16747 1.85108,-1.03767 1.70076,-4.07915 4.33493,-4.33493 3.82943,9.18748 18.06341,2.38566 26.43991,5.20167 0.89341,-1.67287 4.67435,-2.399 3.90216,-4.33493 -10.21181,2.85601 -24.03,3.69124 -30.77604,-3.03421 -1.83653,1.65228 -3.11543,3.53244 -6.0672,4.33494 -6.23207,1.69226 -15.00496,0.75763 -19.93873,2.16746 -1.70682,-1.46195 -3.60638,-1.1298 -5.20168,-2.16746 -3.63789,-2.36628 -4.92528,-7.25277 -7.80189,-10.40335 -1.19163,-1.30436 -3.29605,-2.13594 -4.7677,-3.46697 -1.42194,-1.28617 -2.52022,-3.10209 -3.90095,-4.33493 -9.01413,-8.04434 -19.1835,-14.46188 -28.60736,-21.67221 -6.36905,-4.87437 -13.68848,-8.62015 -20.80548,-12.5708 -7.24548,-4.02217 -14.47036,-8.73775 -22.53895,-10.40334 4.40403,3.69244 10.5876,4.29735 15.6038,6.93515 2.91177,1.53105 5.26713,4.27916 8.23588,6.06842 3.0039,1.80986 6.25266,3.41484 9.10262,5.20166 5.93506,3.72155 11.97317,7.32792 16.47054,11.70286 -9.90633,-5.65262 -19.58233,-12.06531 -29.90809,-17.77127 -7.78614,-4.3034 -15.92868,-8.37044 -23.83968,-12.13682 -2.53719,-1.20738 -5.21743,-3.48031 -8.23466,-3.03421 1.76621,1.12373 3.70093,2.07776 6.06841,2.60144 1.22313,1.78198 3.95429,2.28627 6.06841,3.46818 2.03412,1.13707 4.8077,2.51417 4.7677,4.33372 -1.04373,0.18183 -0.9419,-0.78674 -2.16747,-0.42913 z M 383.4426,164.8672 c -0.24002,-9.5e-4 -0.49096,0.35155 0,0.43277 7.36792,-2.80753 15.21225,-5.96901 22.10618,-8.66865 2.40749,-0.94311 5.49504,-1.02312 7.36793,-3.03421 -10.62275,2.96027 -21.24066,5.92174 -29.47411,11.27009 z m -7.8019,3.46819 c 0.74552,0.023 1.1104,-0.33337 1.29951,-0.86675 -0.74552,-0.0242 -1.11161,0.33337 -1.29951,0.86675 z m -5.63444,3.03299 c 1.28618,-0.1588 2.13838,-0.75159 2.60144,-1.73348 -1.59165,-0.14548 -2.22565,0.66672 -2.60144,1.73348 z m -239.2635,2.16867 c -0.82553,-0.18668 -1.08859,-0.93463 -2.16747,-0.86673 -0.30426,1.07524 1.85229,1.8353 2.16747,0.86673 z m 232.76111,1.29952 c 0.74552,0.0242 1.1104,-0.33337 1.29951,-0.86675 -0.74552,-0.023 -1.1104,0.33337 -1.29951,0.86675 z m -6.93516,3.90095 c 0.0255,0.41458 3.70579,-1.45225 2.60145,-2.16747 -0.42913,1.16132 -2.64145,0.53823 -2.60145,2.16747 z m -89.29029,5.20166 c 2.76267,-0.84856 3.54698,-3.67789 5.63323,-5.20166 -2.51901,0.87038 -5.74596,3.11663 -5.63323,5.20166 z m 85.82211,-3.0342 c 1.54801,-0.18547 2.3796,-1.08858 3.0342,-2.16746 -1.25586,0.47761 -2.93116,0.5358 -3.0342,2.16746 z m -66.75012,4.76769 h 0.86674 v -1.73349 h -0.86674 v 1.73349 z m -73.25252,2.16746 c 2.15171,0.2085 1.00494,-2.68993 0,-3.0342 v 3.0342 z m 23.83967,-0.86674 c 0.88857,0.76128 2.86208,-0.0207 3.03422,-1.30072 -0.68976,-0.93947 -3.83549,-0.68491 -3.03422,1.30072 z m 24.27366,-0.43398 c -0.2485,1.58803 3.30575,1.86077 3.46697,0.43398 -0.95523,-1.14677 -1.86198,-0.69339 -3.46697,-0.43398 z m 20.80426,3.46818 c 1.92866,-0.0921 1.25223,-2.69841 0,-3.0342 v 3.0342 z m -1.30072,11.26888 c 3.85973,5.16894 7.0188,1.4668 9.53538,-3.03421 1.50559,-2.69236 2.99905,-5.6708 3.03421,-6.93515 -6.29995,-4.89377 -12.19744,3.39666 -12.56959,9.96936 z m -11.70285,-6.93516 c -0.97584,-0.1794 0.0654,-2.37597 -1.29951,-2.16746 -0.44125,1.35042 0.89584,3.09361 1.29951,2.16746 z m 171.64664,0 c -1.06918,0.057 -2.08988,0.0667 -2.60144,-0.43276 -0.051,1.26678 2.53477,1.7844 2.60144,0.43276 z m -169.91194,3.03421 c -0.0291,-1.27041 -0.9904,-1.60984 -1.7347,-2.16746 0.004,1.29708 0.77946,1.82197 1.7347,2.16746 z m -6.93637,2.60144 c -2.85358,-1.2789 -8.48075,-1.98199 -12.5696,-2.16746 -10.01179,-0.45459 -14.3649,5.03196 -22.10497,6.06841 5.57746,2.12261 11.54041,-0.2679 17.33729,0 2.83176,0.13092 5.54473,1.50195 8.23466,1.73349 5.07317,0.4364 9.33052,-1.23405 13.87031,-1.73349 1.66802,-0.18426 3.34454,1.09828 4.7689,-0.43277 -3.92882,1.2983 -6.31328,-2.02442 -9.53659,-3.46818 z m 12.13683,0.43277 c 0.95766,0.0545 0.18425,1.83895 0.43398,2.60143 h 3.0342 c -1.07404,-1.08494 1.41103,-4.8889 -0.43398,-5.20166 0.21093,2.08867 -1.95047,1.80622 -3.0342,2.60023 z m -0.43398,-0.86675 c -0.61217,-0.83279 -2.10443,-0.78431 -3.03421,-1.30072 0.0533,1.13222 2.14443,2.44143 3.03421,1.30072 z m -50.27958,3.46818 c 0.77461,-9.4e-4 2.52143,1.16739 3.0342,0 -1.09706,-0.11879 -2.45718,-1.86197 -3.0342,0 z m -13.00357,14.30309 c -0.0157,0.68611 1.16494,2.53719 1.73348,3.90095 1.72743,4.14339 2.21111,5.22227 3.90095,8.23587 0.87523,1.56136 1.31406,3.34575 2.16747,4.33493 4.00763,4.6501 14.0473,3.93247 20.37148,3.03421 2.55054,-0.36246 5.47806,-0.61096 6.93516,-1.30072 2.08383,-0.98554 2.7651,-3.93853 5.63444,-4.7677 3.10937,3.90823 9.46993,6.46845 16.47055,6.50118 10.54517,0.0497 15.49591,-3.5397 18.20523,-9.96936 1.19163,-2.82692 1.40255,-6.27206 2.16746,-9.53539 -0.58065,-2.16503 -3.31059,-2.17958 -3.90094,-4.33493 -3.72639,0.5649 -4.49737,5.15925 -7.36914,7.36914 -1.55286,1.19525 -7.4855,3.55668 -10.83489,3.90095 -5.80536,0.59763 -10.09665,-1.83653 -15.17103,-1.73349 -3.85125,0.0776 -7.70251,1.51286 -11.70407,1.73349 -5.5217,0.30548 -9.24566,-0.56732 -12.56959,-2.16746 -5.50109,-2.64872 -8.89533,-7.81645 -12.13682,-11.26887 -1.14193,2.83783 -3.82095,2.80025 -3.89974,6.0672 z m 102.72784,17.3385 c 1.2595,1.06191 4.34584,2.57477 6.50118,1.30071 -4.61859,-0.58429 -7.93161,-2.47172 -11.70286,-3.90094 0.4158,2.18443 2.50446,2.6972 5.20168,2.60023 z m -32.9423,6.50117 c 3.04512,4.23431 10.5876,-0.0752 10.40334,-5.63443 -5.45381,-0.10789 -8.10254,2.59053 -10.40334,5.63443 z m 67.18532,-3.46697 c 0.0546,0.95766 1.83894,0.18304 2.60144,0.43277 6.75089,0.005 14.30913,0.76006 19.07077,-2.16747 -5.8878,1.14799 -14.14913,1.09465 -21.67221,1.7347 z m -7.37035,0.43277 c 2.65478,-0.5952 5.20894,1.40134 6.50239,-0.43277 -1.81835,0.21577 -6.81636,-0.47883 -6.50239,0.43277 z m -129.16653,1.30071 c 0.73096,5.64899 6.9897,8.00556 11.70284,8.23467 0.64491,-1.19767 -0.24123,-2.2014 0.43398,-3.90095 -3.03421,-2.19898 -7.13396,-5.53624 -12.13682,-4.33372 z m 87.12282,0.86675 c -4.97255,-0.005 -7.53279,0.68976 -10.83489,2.60144 -1.10191,0.63764 -3.64033,1.2886 -3.46697,3.0342 6.48421,-1.69711 12.68232,-3.11542 19.50475,-3.46697 7.8516,-0.40487 16.12505,4.11795 24.27244,1.30073 -9.22506,-0.4655 -20.0648,-3.45849 -29.47533,-3.4694 z m 62.85038,1.30072 c -2.61234,-0.71037 -5.68898,-0.95645 -9.10261,-0.86674 1.30678,1.92138 7.70129,1.71287 9.10261,0.86674 z m 3.03301,0.43277 h 0.86795 v -0.86675 h -0.86795 v 0.86675 z m -69.35157,2.60144 c -3.18453,0.45095 -7.30246,1.36133 -8.66865,3.90095 5.16652,3.12755 12.54899,-0.0412 19.07199,-1.30072 2.87177,-0.5552 5.40532,-0.0328 7.36792,-1.73349 -4.8768,-1.12616 -11.84953,-1.70561 -17.77126,-0.86674 z m 97.52738,4.33372 c -6.57997,-1.83653 -11.30767,-1.41225 -18.638,-1.73349 -10.0421,-0.44126 -21.84799,-0.26426 -29.90809,-1.30073 -2.77601,-0.35639 -6.32905,-0.017 -9.5366,0 -7.09275,0.0364 -11.77195,0.28124 -18.63801,0.86675 -4.6198,0.39397 -9.10383,1.78319 -13.43634,2.60022 -2.35778,0.44489 -4.56767,0.92372 -6.93637,1.30073 -1.68742,0.26791 -4.52888,-0.0922 -5.63322,1.73348 9.86269,-1.03039 24.71976,-0.25699 38.14276,-0.86674 17.35425,-0.78795 38.09063,-3.57001 55.04848,-0.43397 4.87438,0.9019 11.9453,2.04745 12.5696,4.33493 0.8728,3.193 -2.32385,5.10711 -5.20167,5.63443 1.52862,4.13854 -2.51295,5.19803 -4.7677,7.36914 -3.96883,3.82214 -4.63919,7.66733 -10.83611,6.93515 -1.42314,3.63426 -4.67677,5.43684 -8.66864,6.50239 -4.45494,4.93498 -11.94166,6.84181 -18.20523,9.96937 -2.9736,-0.77947 -4.95195,0.79764 -6.93516,2.16746 7.06123,-0.1491 12.01439,-2.14443 16.90331,-3.90217 2.7966,-1.00372 5.67928,-1.90804 8.23587,-3.0342 6.69028,-2.94208 12.10531,-7.04668 17.3385,-10.8349 7.42732,-5.37987 15.23891,-11.93681 19.50475,-19.93873 -1.78562,-4.52645 -5.24895,-5.93022 -10.40213,-7.36912 z M 198.7936,247.22234 c -4.85498,0.37821 -9.71721,1.14797 -13.43634,2.60144 5.08409,0.19517 11.01067,2.53598 16.90453,2.60022 5.23318,0.057 14.33581,-1.16131 16.47054,-3.90094 -5.25138,-2.53962 -13.05812,-1.83774 -19.93873,-1.30072 z m 14.73706,12.56959 c -10.01059,2.28263 -21.46007,4.89498 -27.74063,9.53538 -4.54222,1.84986 -9.27718,3.64397 -13.43633,6.06842 -0.26912,0.15759 -0.47399,1.06676 -0.86675,1.30072 -1.64014,0.97463 -2.33959,1.28375 -3.46697,2.16625 -4.90468,3.8464 -12.12592,6.8309 -14.30429,12.57081 0.96494,0.63278 1.7844,1.36011 3.46819,1.73348 1.61468,0.35882 4.22703,-0.97463 4.76768,0.86796 -4.41129,1.51649 -8.38983,-1.14192 -10.8361,-3.03421 -5.2247,0.7443 -6.97759,-1.98078 -9.10262,-4.33493 -5.74111,0.39519 -8.0989,-2.59295 -9.96937,-6.06841 -2.49355,-0.51883 -5.39199,-0.66187 -7.80189,-2.60144 -1.00251,-0.80614 -1.0898,-2.41961 -2.16747,-3.03421 -1.58802,-0.90432 -3.77608,-0.27154 -5.20167,-1.29951 -1.65469,-1.19404 -2.1117,-3.87186 -3.03421,-5.63443 -1.45588,-1.82077 -4.29613,-2.75298 -3.90095,-5.63444 0.41459,-3.0233 6.49391,-4.72526 9.10263,-5.63444 8.31709,-2.89844 17.34213,-2.60144 28.1746,-2.60144 4.68647,0 9.51842,-0.64369 14.30308,-0.86674 7.38732,-0.34427 14.56976,-0.82067 21.23945,-0.43277 6.07811,0.35276 11.55859,1.70198 16.47054,2.16747 1.40619,0.13334 3.55425,0.69339 4.76769,-0.43277 -11.74528,-2.56749 -24.68339,-4.20158 -38.14397,-4.33493 -10.9246,-0.10788 -22.06254,-3.04147 -32.50831,-1.73348 -1.87047,0.008 -1.59772,2.15898 -3.46819,2.16746 -0.60732,-0.54792 -0.0255,-2.28747 -1.73349,-1.73348 -5.75565,0.0328 -13.41573,1.83652 -17.3385,3.90094 -1.00251,0.52732 -2.7469,0.80978 -3.46697,1.29952 -6.01871,4.09248 -6.66119,10.66396 -1.73348,15.60379 1.75045,1.75531 4.49979,3.51668 6.93515,5.63445 1.05828,0.92128 2.22202,2.00987 3.46697,3.0342 0.57581,0.47398 1.57348,0.36609 2.16747,0.86795 0.66309,0.55884 0.69703,1.71652 1.30072,2.16626 3.70214,2.7566 9.12202,5.32652 13.87032,7.36912 5.27803,2.27051 11.23977,4.25978 16.03656,5.20168 1.22677,0.24002 2.37718,-0.16607 3.46818,0 2.12504,0.32246 3.94338,1.54559 5.63444,1.73348 3.43788,0.38064 5.6211,-0.42669 7.80311,-0.43276 -1.99532,-0.17214 -3.05239,-1.28375 -3.90095,-2.60144 4.26705,-4.69011 8.71956,-9.19596 13.00357,-13.87032 -0.58065,-1.44133 -4.27067,0.22548 -3.90095,-2.16625 2.47052,0.12971 4.2428,0.95888 6.50118,1.29951 3.78821,-2.15898 7.83827,-5.30107 13.43633,-4.33371 7.61886,-6.10842 16.04748,-11.40465 28.17461,-13.00357 -0.56853,-3.5785 -3.98702,-1.34315 -6.06841,-0.86917 z m 7.36913,-9.96815 c 0.47762,1.79288 5.20046,0.30912 3.46697,3.0342 -2.1214,-0.16728 -2.72387,-1.18434 -4.76769,-0.43398 -2.41354,4.09977 1.99048,6.68302 3.46819,9.53661 -0.43277,2.02442 -3.4294,1.48377 -4.33493,3.0342 1.30921,-0.58308 3.4597,-0.58308 4.76769,0 1.99533,-3.27423 -1.26314,-9.54629 2.60144,-11.27008 3.56395,2.93723 5.71687,7.2867 10.40213,9.10262 -2.92025,-5.31441 -9.44204,-7.0285 -11.26887,-13.43634 -1.47286,0.11638 -3.51546,-0.33699 -4.33493,0.43277 z m 68.48483,3.46697 c -0.5637,-4.05369 -6.24541,-3.153 -4.76891,3.46697 -0.83644,0.7528 -2.19656,0.98191 -3.03421,1.73349 -2.60144,3.40757 -6.61149,6.41026 -9.96936,8.66985 -1.04373,0.70188 -3.26817,1.10313 -3.03421,2.60023 6.36541,-2.44749 10.35001,-7.277 15.6038,-10.83489 -0.12243,1.13343 0.15881,1.8644 1.30072,1.73348 1.88623,0.44126 1.99291,-0.89705 3.03421,-1.30072 10.48698,1.50438 17.89006,6.09388 25.13918,10.83611 6.74605,-0.94069 11.95136,2.55901 16.47175,5.20046 0.93585,-0.36246 1.47771,-1.12253 3.03421,-0.86674 8.33892,1.77469 12.82416,7.40308 20.80547,9.53538 0.49944,1.37831 1.83896,1.91775 2.60023,3.03421 1.89471,-0.12607 2.69115,-1.35406 3.46819,-2.60144 -6.1763,-2.44264 -11.71255,-5.60898 -16.47176,-8.66865 -4.62343,-2.97238 -9.33172,-4.91921 -14.73705,-7.36791 -3.15301,-1.42922 -6.83697,-1.92745 -9.96936,-3.46698 -1.30921,-0.6437 -2.09838,-2.04624 -3.46698,-2.60145 -3.77245,-1.5274 -8.29285,-0.93462 -12.13683,-3.0342 -6.7909,0.23639 -11.70527,-0.85825 -18.63921,-0.43276 1.64256,-2.18808 5.24289,-2.22565 4.77012,-5.63444 z m 48.11211,2.16747 c 9.87239,-0.43398 19.72417,-0.24124 28.1734,0.86673 6.74241,0.88372 12.25077,2.70207 18.63921,3.03421 0.0485,0.003 0.51399,-0.86674 0.86675,-0.86674 0.54792,0 0.59278,0.83522 0.86673,0.86674 3.06452,0.36125 8.59107,-0.3382 8.66865,-3.03421 0.0836,-2.87176 -8.00191,-3.77972 -12.56959,-4.33492 -13.3539,-1.62196 -18.10705,-1.28254 -29.04135,-0.43276 -13.36238,1.03645 -40.55024,1.13949 -52.44705,1.73348 -3.14815,0.15759 -6.64785,-0.0521 -9.10261,1.73349 15.14314,1.6462 30.66572,1.10555 45.94586,0.43398 z m -129.60051,-1.73471 c 2.64751,0.53217 5.889,0.46793 9.10263,0.43277 0.17334,-1.12616 1.29344,-1.30678 1.2995,-2.60023 -3.07663,1.11404 -6.7715,1.60863 -10.40213,2.16746 z m -47.67935,5.63565 c 2.7566,-0.13819 5.64656,-1.04979 8.66864,-0.86674 1.27406,0.0776 2.72509,0.96736 3.90095,0.86674 1.42073,-0.12122 2.54932,-1.26556 3.90095,-1.30071 1.76137,-0.0449 3.26816,0.73218 5.20167,0.86674 3.40151,0.23759 7.56188,-0.023 11.70285,0 7.38247,0.04 15.56501,0.90674 18.20524,-1.7347 -15.13466,0.29215 -42.54678,-8.64076 -51.5803,2.16867 z m -48.98008,3.46697 c 0.78068,1.82077 2.24747,2.9542 3.90095,3.90095 6.02114,-4.59555 17.2888,-5.77504 28.17461,-6.93515 7.67825,-0.81825 13.04357,0.18911 17.3385,-2.60144 0.87643,-0.56854 3.50091,-2.18322 2.16746,-2.60023 -18.81136,1.85592 -41.25818,-2.33597 -51.58152,8.23587 z m 244.89794,-5.63443 c -7.80916,-0.59641 -16.42811,0.051 -25.13918,0.43398 -12.13925,0.53338 -26.75145,-1.1698 -38.14396,-0.86675 -0.26427,0.0255 -0.51277,0.0654 -0.43277,0.43277 6.29752,0.11758 10.74155,1.53953 15.6038,2.60144 2.93723,0.64127 5.97265,1.9032 8.66864,2.16747 5.26592,0.51641 10.56215,-0.57582 14.73706,3.0342 5.42957,-1.8438 13.17691,-1.45467 18.638,0 3.53607,-1.64863 8.02253,-1.51892 13.00478,-1.30072 3.46091,0.15274 7.54855,0.6946 11.26888,1.30072 4.3216,0.70309 8.38135,2.45598 10.83611,2.16747 2.13109,-0.25093 6.38116,-2.37476 4.7689,-6.06842 -11.44828,-0.51277 -21.1655,-2.93601 -33.81026,-3.90216 z m -118.7644,13.00357 c 0.971,-0.76128 2.08262,-2.95299 0.43277,-3.90216 -0.58066,3.27302 -4.12158,2.816 -6.06842,1.7347 -2.86692,-1.59408 -4.798,-6.86364 -6.06841,-8.66865 0.80613,6.70848 4.91801,10.10999 11.70406,10.83611 z m -68.48482,-10.40334 c -10.49426,0.94554 -21.03458,0.91523 -31.64157,2.16747 -8.35589,0.98554 -18.45496,1.79166 -21.67222,7.80189 1.43043,1.88987 2.80874,3.91913 5.20168,3.90216 1.44982,-0.0109 3.14815,-2.1917 6.06841,-3.46697 2.73599,-1.19525 5.9981,-1.2001 8.66864,-1.73469 1.79531,-0.35882 3.153,-1.1492 4.76769,-1.29951 3.52153,-0.32852 8.14739,-0.11395 11.70285,0.43276 5.25138,0.80735 6.35329,1.50316 10.83611,-0.86796 2.99784,-1.58559 4.63071,-2.80872 6.50239,-4.33371 0.84977,-0.69218 1.99533,-1.31163 1.73348,-2.16746 -1.24253,0.0934 -1.58923,-0.48611 -2.16746,-0.43398 z m 6.06841,0.86795 c -2.09957,0.74431 -3.42576,2.78813 -5.20166,3.90096 -2.57841,1.61589 -5.37381,2.13594 -7.36914,4.3337 5.93386,-0.0909 10.83732,-1.94804 16.03777,-2.16746 1.81471,-0.0752 3.7858,0.53338 5.63444,0.43398 0.90917,-0.0497 0.86674,-0.75763 1.30072,-0.86795 0.6837,-0.17335 1.73834,0.5661 2.16746,0.43276 0.57218,-0.17577 0.66795,-0.97584 1.30073,-1.2995 5.16893,-2.64751 11.18158,-2.46204 15.60379,-5.20168 -11.27614,1.51044 -21.60311,-2.35657 -29.47411,0.43519 z m 39.0095,3.46819 c 1.77349,-0.53823 3.98338,-0.64127 4.76891,-2.16746 -1.87896,0.43154 -4.43797,0.18425 -4.76891,2.16746 z m 123.53331,6.93394 c 8.42741,4.10461 15.84504,10.41547 25.57437,13.00357 1.21102,-1.24375 2.93723,-1.97472 3.03421,-4.33371 -1.81591,-2.18201 -4.68405,-1.44013 -6.93636,-2.16746 -2.54811,-0.8219 -5.31441,-2.3687 -8.23467,-3.46698 -2.85359,-1.07403 -5.80658,-2.31051 -8.66864,-3.46697 -7.4455,-3.00754 -14.1164,-7.48551 -22.1062,-6.93637 5.97871,2.51174 11.89317,4.71679 17.33729,7.36792 z m -127.86702,-6.93394 c -4.69012,0.9516 -12.26654,6.60179 -15.60502,9.10262 -8.23102,6.16176 -12.88113,12.70294 -18.638,19.50475 5.5714,0.71643 7.2964,-2.57114 9.53538,-5.20167 2.64994,-3.11058 4.68891,-5.1653 7.36914,-7.8019 2.78692,-2.74327 4.85255,-4.76527 8.23466,-6.06842 2.77479,-4.73859 8.46378,-6.563 13.00358,-9.53538 -1.2183,0.18183 -2.69237,-0.2473 -3.89974,0 z m -17.77127,21.671 c 1.79047,-2.11413 3.75428,-4.15552 5.63444,-5.63444 4.53252,-3.56758 8.72804,-7.50005 13.00357,-10.40334 1.98805,-1.3492 6.2357,-3.27543 7.36913,-4.76769 -0.0521,0.0703 -0.36245,-0.0558 -0.43276,0 -6.53513,1.69954 -12.07137,4.40038 -15.60501,9.10262 -5.87204,3.18816 -10.40456,8.16072 -14.73705,13.00357 -1.58682,1.77228 -4.23432,5.68292 -6.06843,6.50118 -2.02078,0.90069 -4.9374,0.7043 -7.36912,0 -1.5468,1.34194 -5.16652,0.61338 -6.06842,2.60144 6.52058,0.52853 12.18047,-1.39164 17.3385,-0.86674 1.45225,-4.10582 4.31432,-6.44178 6.93515,-9.5366 z m 160.37535,-16.03778 c -1.34315,-2.41233 -4.56889,-2.9445 -6.50118,-4.76769 -3.83307,0.35639 -9.36082,-0.98069 -11.27008,1.29951 8.50862,4.49615 18.88408,7.12305 27.74063,11.27008 h 3.46697 c 1.27647,0.60369 1.47528,2.28262 3.46818,2.16746 2.01351,-0.87644 4.1337,-1.64499 4.76769,-3.90216 -7.69401,-1.55044 -14.16003,-4.33007 -21.67221,-6.0672 z m 1.30072,-4.33371 c -0.61824,0.10425 -0.73097,0.714 -1.29951,0.86674 1.86925,2.66206 6.51815,3.9858 10.40212,5.20167 5.86719,1.83652 12.62294,3.32514 18.20646,1.7347 0.90311,-1.69712 2.8245,-2.37718 3.03421,-4.7689 -9.15353,-2.35415 -20.18844,-4.02702 -30.34328,-3.03421 z m -182.04877,4.76769 c -1.3189,0.51277 -3.1627,0.72007 -4.33492,1.29951 -6.14116,3.03784 -10.67853,7.44551 -15.60381,10.8361 -2.52992,1.74198 -6.25388,2.72752 -6.50239,6.06842 1.87289,1.38678 3.98581,2.39415 6.50239,1.73348 2.20141,-0.57823 2.7554,-3.22452 4.33493,-4.76768 0.66915,-0.65461 2.08139,-1.42437 3.03421,-2.16747 6.93273,-5.41624 16.61722,-10.42395 23.4057,-14.73705 -4.6101,-1.32497 -7.88312,0.58429 -10.83611,1.73469 z m -23.83968,-1.30073 c -3.91428,-0.27638 -7.68674,0.35883 -10.40333,0.86675 -5.38109,1.00857 -10.66398,1.16738 -13.87032,4.33493 1.79894,3.2912 5.37866,5.49745 8.66864,5.20167 2.90571,-0.26184 6.5036,-3.68032 10.40334,-5.20167 4.54101,-1.77228 8.64925,-2.3396 12.56959,-3.46697 -1.75651,-2.03897 -4.79557,-1.55286 -7.36792,-1.73471 z m -8.66864,8.66865 c -1.59893,0.76976 -4.23916,1.43649 -4.33493,3.46698 -0.27396,3.32392 5.14228,5.08287 7.80311,4.7689 2.88269,-0.34185 4.55434,-2.67781 6.93516,-4.33493 5.44533,-3.78942 12.42655,-8.6541 17.3385,-11.26887 0.4558,-0.0242 0.34063,-0.55641 -0.43276,-0.43398 -10.29182,1.52862 -19.93388,4.25493 -27.30908,7.8019 z m 37.70999,3.46819 c -3.31059,2.60507 -5.04286,4.14703 -7.8019,6.93637 -1.51286,1.52983 -3.89125,2.92147 -4.33493,5.20045 2.51174,2.21838 6.31207,-0.20971 9.10263,-0.43276 3.5494,-4.93377 7.69885,-9.54266 11.70284,-13.43634 1.39285,-1.35526 3.5785,-2.57113 3.90095,-4.7689 -5.3035,0.89099 -9.52326,4.1046 -12.56959,6.50118 z m 110.52974,-0.86675 c -2.34445,-0.0437 -5.39927,-1.1904 -6.93516,0.43277 4.0149,0.60732 7.3158,1.93108 10.40213,3.46697 0.10789,-3.28635 -1.28496,-5.07317 -2.60144,-6.93516 -0.0727,1.22799 0.37337,2.97481 -0.86553,3.03542 z m -19.07198,-0.86674 c 2.63901,0.42307 7.5946,2.56872 9.96936,0.43276 -2.54083,-1.1213 -7.21639,-2.01714 -9.96936,-0.43276 z"
     id="path3609"
     inkscape:connector-curvature="0"
     style="fill-rule:evenodd" /><path
     d="m 367.40482,187.84013 c 0.0824,-0.49216 0.43398,-0.24001 0.43277,0 7.24184,-2.70205 16.83785,-8.46014 25.57437,-12.13682 5.35805,-2.25354 11.74043,-5.53261 13.43634,1.30072 -1.00494,0.1382 -1.66439,-0.0703 -2.16625,-0.43277 -13.23269,3.8161 -25.96108,8.13648 -36.84446,14.30308 -1.29224,-0.74915 0.62187,-2.68023 -0.43277,-3.03421 z"
     id="path3611"
     inkscape:connector-curvature="0"
     style="fill-rule:evenodd" /><path
     d="m 396.0134,251.12329 c 1.54559,-2.41234 2.76631,3.73487 1.73349,1.30071 -0.12122,-0.89098 -1.15889,-0.86552 -1.73349,-1.30071 z"
     id="path3613"
     inkscape:connector-curvature="0"
     style="fill-rule:evenodd" /><path
     d="m 88.263859,184.37316 c 0.103039,-2.94571 5.355624,-0.47034 4.334928,-3.46697 7.485503,-1.15768 15.396503,0.70067 20.372703,3.46697 -1.6753,3.24635 -5.94598,1.15646 -8.66864,0.43277 -3.17362,-0.8425 -6.213879,-2.05109 -9.102622,-2.16746 2.437793,2.28383 5.659892,1.83167 8.668642,2.60023 6.26358,1.60135 12.65687,4.59676 18.63801,6.93515 4.57252,1.78803 8.94867,4.00278 13.43633,6.06841 1.22677,0.5649 3.84762,0.40368 3.46819,2.60144 -4.03308,-0.25941 -7.67704,-2.61841 -11.70285,-3.90095 -7.97767,-2.54204 -16.40993,-6.1666 -25.1404,-7.80189 -2.40264,-0.44974 -4.839219,-0.64006 -6.935157,-1.30073 -2.356571,-0.74187 -3.834277,-2.33839 -6.935156,-2.60143 0.07031,-0.50308 -0.09577,-0.77099 -0.433978,-0.86554 z"
     id="path3615"
     inkscape:connector-curvature="0"
     style="fill-rule:evenodd" /><path
     d="m 433.28941,207.77886 c -1.13706,2.18443 -4.98104,1.66439 -5.63443,4.33372 -3.16998,0.15274 -4.33372,2.31292 -7.8019,2.16746 -0.85826,3.04269 -3.8961,3.9058 -7.36914,4.33493 -2.22686,3.43788 -9.02746,6.68665 -12.56959,2.60023 -4.56161,0.51641 -6.77877,-1.31285 -8.23587,-3.90095 2.51173,-3.69972 8.68925,-1.58438 13.8703,-1.30073 -1.70438,-2.63053 -8.43831,-0.23032 -10.8361,-2.16746 0.64248,-2.10321 3.65729,-1.2195 5.63444,-1.30071 5.57018,-0.2267 11.86165,0.34547 16.47175,1.30071 -0.79644,-2.82086 -8.33528,-2.64387 -13.00478,-3.0342 -0.2388,-0.77219 -0.22305,-1.80017 -0.86675,-2.16747 1.85957,-1.24132 4.33857,-2.3299 6.50118,-2.16747 3.10816,0.23397 4.76164,3.15302 9.53539,3.03421 2.49234,-0.0631 3.55426,-1.62559 6.50118,-0.86674 -0.99403,-3.48636 -7.26003,-5.45139 -13.43633,-5.20167 -3.38818,2.31536 -11.35858,5.3035 -14.73706,1.29951 2.06806,-2.97238 9.79117,-1.16858 13.00357,-1.73349 -0.52005,-0.56975 -0.1685,-0.68127 0,-1.30071 9.91966,-0.23518 17.0912,2.27292 22.97414,6.07083 z m -24.27365,8.66864 c -0.26669,-0.12607 -1.66803,-1.07767 -1.7347,0 0.80856,-0.41457 1.44983,1.2983 1.7347,0 z"
     id="path3617"
     inkscape:connector-curvature="0"
     style="fill-rule:evenodd" /><path
     d="m 140.27814,213.41329 c 9.78025,4.70709 25.81076,5.57625 36.40927,10.40335 1.4268,0.64975 2.5178,2.01836 3.90095,2.60144 1.58196,0.66673 3.82943,0.65339 5.63444,1.30072 3.03057,1.08494 4.22582,2.42325 7.36913,2.16746 1.20011,-0.0982 5.48534,0.15396 4.76769,3.46819 -0.51035,2.35415 -4.86104,1.92017 -9.53538,2.60022 -10.09786,1.46922 -20.96064,3.54457 -31.20882,4.33493 -9.40567,0.72492 -19.45383,0.32731 -25.14039,-2.60022 0.48247,-5.0259 4.94831,-2.89844 8.23467,-2.60144 2.33959,0.21092 5.47685,-0.14063 8.66864,0 3.42212,0.15031 6.85636,0.81097 9.53659,0.43276 1.82684,-0.25821 3.56032,-1.52983 5.20167,-1.73349 4.31675,-0.53823 9.39235,0.40125 13.87032,0 2.10079,-0.18789 4.17492,-1.25101 6.06841,-1.30071 3.14695,-0.0825 6.14964,1.63408 9.10263,0.86673 -4.16886,-1.96987 -9.38023,-2.12867 -13.43634,-4.33492 -1.30436,-0.70916 -2.15292,-2.04261 -3.46819,-2.60145 -3.40999,-1.44861 -7.55096,-2.06563 -11.26887,-3.0342 -8.16193,-2.12504 -16.26082,-3.32756 -24.27365,-5.63444 -0.79159,-1.02312 0.5952,-2.90207 -0.43277,-4.33493 z"
     id="path3619"
     inkscape:connector-curvature="0"
     style="fill-rule:evenodd" /><path
     d="m 291.98484,295.33567 c 0.44247,2.44748 1.22556,4.55434 1.29951,7.36792 0.0654,0.8025 1.46801,0.26669 1.7347,0.86795 -0.3564,5.512 1.88138,11.04582 3.03421,16.90331 0.93584,4.76042 1.06069,9.26869 5.20166,10.83611 -0.4376,1.22071 -1.84258,-0.12002 -2.60144,0 0.59036,2.73236 0.59157,6.05387 2.60144,7.36792 -1.37587,6.78727 3.06452,9.78026 2.60024,16.90452 0.42548,1.88865 2.102,2.52143 2.60144,4.33493 -1.47165,1.99533 -3.06572,3.86822 -6.06841,4.33372 0.40731,-1.75774 0.76854,-4.39191 0,-6.06843 -1.90805,0.69219 -1.20011,4.00037 -3.90095,3.90096 0.96493,-1.05707 0.95038,-3.09482 0.86674,-5.20046 -1.12738,-1.16737 -1.30678,0.52975 -2.60145,0.43277 -0.30063,-2.4681 0.73462,-3.60032 0.43398,-6.06841 -1.3395,-1.34679 -0.73218,1.46679 -2.60144,0.86673 0.23033,-1.93714 1.30315,-3.03057 0.86675,-5.63443 -1.23163,-1.23768 -0.6243,1.57589 -2.60144,0.86675 3.12754,-8.94382 0.18183,-22.06498 -1.73349,-31.20761 -0.74431,0.55641 -0.8716,1.72986 -1.7347,2.16747 -7.75584,-2.74085 -19.569,-5.9981 -29.47411,-4.33493 -1.75046,0.29457 -2.88874,1.9226 -4.7677,0.86796 -0.62914,-3.51789 -0.9225,-8.63713 0,-11.27009 9.49417,-2.44021 26.4787,-0.78553 34.67457,3.46697 1.00858,0.58066 0.67037,2.5081 1.30072,3.46698 1.34316,-0.10062 1.35164,-1.53711 1.7335,-2.60144 -2.71176,-3.00633 -5.65384,-3.63306 -11.27009,-4.7677 -8.49408,-1.71651 -18.94349,-3.8561 -26.87389,-0.86796 -1.54922,-1.95047 -0.93584,-7.7728 -0.43276,-10.40212 12.73809,-2.86449 27.60486,-0.75158 37.71241,3.47061 z"
     id="path3621"
     inkscape:connector-curvature="0"
     style="fill-rule:evenodd" /></svg>