<?xml version="1.0" encoding="UTF-8" standalone="no"?>
<svg
   xmlns:dc="http://purl.org/dc/elements/1.1/"
   xmlns:cc="http://creativecommons.org/ns#"
   xmlns:rdf="http://www.w3.org/1999/02/22-rdf-syntax-ns#"
   xmlns:svg="http://www.w3.org/2000/svg"
   xmlns="http://www.w3.org/2000/svg"
   xmlns:sodipodi="http://sodipodi.sourceforge.net/DTD/sodipodi-0.dtd"
   xmlns:inkscape="http://www.inkscape.org/namespaces/inkscape"
   height="500"
   preserveAspectRatio="xMidYMid meet"
   viewBox="0 0 400 400"
   width="500"
   id="svg3816"
   version="1.1"
   inkscape:version="0.48.4 r9939"
   sodipodi:docname="silhouette-47807.svg">
  <metadata
     id="metadata3824">
    <rdf:RDF>
      <cc:Work
         rdf:about="">
        <dc:format>image/svg+xml</dc:format>
        <dc:type
           rdf:resource="http://purl.org/dc/dcmitype/StillImage" />
        <dc:title></dc:title>
      </cc:Work>
    </rdf:RDF>
  </metadata>
  <defs
     id="defs3822" />
  <sodipodi:namedview
     pagecolor="#ffffff"
     bordercolor="#666666"
     borderopacity="1"
     objecttolerance="10"
     gridtolerance="10"
     guidetolerance="10"
     inkscape:pageopacity="0"
     inkscape:pageshadow="2"
     inkscape:window-width="640"
     inkscape:window-height="670"
     id="namedview3820"
     showgrid="false"
     inkscape:zoom="0.49684211"
     inkscape:cx="292.5"
     inkscape:cy="237.5"
     inkscape:window-x="0"
     inkscape:window-y="0"
     inkscape:window-maximized="0"
     inkscape:current-layer="svg3816" />
  <path
     d="m 319.48478,85.623757 c -2.44235,-0.375748 -7.6904,1.402907 -10.69636,4.117969 -6.72302,5.947277 -14.86778,18.890644 -15.90209,25.225784 -0.90501,6.72301 1.30034,14.35105 4.66185,16.16108 5.43014,2.97364 14.59159,0.50825 21.05602,-5.56832 2.45648,-2.45648 3.49639,-2.84663 3.49639,-1.42445 0,2.71507 -8.65654,10.72371 -12.5352,11.62873 -1.81003,0.51715 -5.80679,0.51715 -9.1683,0 -7.24017,-0.90502 -11.26407,-4.77311 -9.97119,-9.5568 0.77574,-3.10293 0.76911,-3.10168 -4.14386,0.77698 -2.71506,2.19791 -11.22677,10.21629 -18.98409,17.71503 -18.35897,17.84183 -33.76319,28.44039 -44.10629,30.37973 -2.84435,0.51715 -8.65715,1.68489 -12.92368,2.58991 -9.56736,1.93933 -48.86697,0.90233 -62.05441,-1.68344 -4.91296,-1.03431 -12.80164,-2.59117 -17.45603,-3.3669 -4.6544,-0.90501 -11.11592,-2.46208 -14.34814,-3.49638 -11.5067,-3.4908 -19.396614,-1.92814 -34.394097,6.99277 -5.042258,2.97364 -9.687118,5.41292 -10.204272,5.41292 -0.517155,0 -1.944096,0.77843 -2.978405,1.68345 -1.163597,1.03431 -5.445248,2.85077 -9.453196,4.01438 -7.628031,2.32719 -14.481157,7.88225 -16.679064,13.44166 -0.646444,1.68075 -1.139564,13.46197 -1.139564,26.13226 0,24.43556 -1.820193,38.78638 -6.345296,48.35374 -1.292886,2.97364 -2.720034,6.19157 -3.107901,7.22588 -0.387865,1.16359 -3.476082,5.83456 -6.966875,10.35967 -8.533052,11.11882 -9.195862,12.65288 -10.230172,21.44451 -0.517154,4.26651 -1.944716,9.32721 -3.366892,11.52512 -1.292886,2.06864 -2.8242521,5.28633 -3.599984,7.09638 -0.6464432,1.81004 -1.8137706,4.14552 -2.3309251,5.17983 -2.0686183,3.62009 -0.5366308,4.91835 3.9884719,3.36689 9.4380712,-3.36149 9.9711792,-4.02845 9.9711792,-12.82009 0,-4.39581 0.648723,-10.33832 1.424455,-13.18268 4.78368,-18.48826 4.903438,-18.62585 10.204272,-21.3409 9.955225,-5.04226 14.4824,-17.45273 17.456039,-47.70628 1.93933,-20.55689 5.312852,-34.25838 7.510759,-30.37972 2.068619,3.62008 7.357643,17.72373 8.779818,23.15386 4.912969,19.13472 6.728604,43.31004 3.496388,47.44727 -0.905021,1.03432 -5.316581,4.14822 -9.841685,6.86328 -8.920915,5.30084 -12.797089,8.78707 -14.60713,13.31217 -0.646443,1.55146 -2.307512,11.36063 -3.858976,21.833 -2.973639,20.81548 -3.895857,23.39752 -10.748155,29.99124 -2.456484,2.45648 -4.895564,6.08942 -5.28343,8.02874 -0.517154,2.06861 -1.42549,4.015 -2.071933,4.40286 -2.068619,1.29289 -1.2904,5.28757 1.553949,7.87335 1.810041,1.68075 2.563604,3.76056 2.305026,6.99278 -0.387865,8.0159 -0.884093,7.74385 13.07908,7.74385 8.533051,-10e-6 12.923685,-0.51943 12.923685,-1.42446 0,-0.77574 -3.243819,-5.03127 -7.251767,-9.2978 -6.723009,-7.49875 -7.095336,-8.26929 -6.448893,-12.92369 1.680753,-10.08452 14.212635,-30.52973 26.624345,-43.32931 7.498741,-7.75731 9.316034,-8.78561 20.693435,-12.40569 18.74686,-6.07658 42.78024,-25.98329 55.70912,-46.15232 3.10291,-4.78369 6.21662,-8.77982 6.73378,-8.77982 0.64644,-0.12928 2.20329,1.14184 3.36689,2.56402 2.1979,2.84434 2.05452,3.1253 -8.80572,13.98555 -6.20586,6.07657 -13.44623,14.19895 -16.29058,18.07762 -2.84435,3.87866 -6.45117,8.41971 -7.87335,9.97118 -4.78367,5.04225 -8.28773,10.46741 -8.28773,13.05318 1e-5,3.87865 4.66019,7.36696 19.78697,14.60712 18.22969,8.79163 22.89486,13.84778 22.89486,24.83731 0,5.81799 0.39097,7.48487 1.94244,7.48487 1.03431,0 2.17635,1.55705 2.69352,3.49637 0.38786,2.06862 0.90688,4.27461 1.16545,5.05034 0.51717,1.81006 15.25938,7.35434 18.23302,6.70789 1.1636,-0.12928 2.72045,-1.94554 3.36689,-3.88488 2.1979,-6.33514 -2.97509,-14.08147 -17.06755,-25.45888 -18.87614,-15.51465 -25.46054,-23.01027 -26.49485,-30.37972 -1.68076,-11.24811 4.5195,-20.43113 12.66469,-18.36251 1.93934,0.38786 5.41686,2.59323 7.87335,4.66185 4.91296,4.39582 9.1998,4.91566 12.69059,1.68345 2.71507,-2.4565 12.26855,-6.09087 23.64594,-8.93522 22.23765,-5.68869 29.34708,-6.96501 31.41569,-5.80141 3.36151,1.81004 6.34655,5.54822 7.12228,9.1683 0.51714,1.93933 3.0878,4.66537 6.70788,6.86328 8.66233,5.43012 24.71526,23.40208 29.36966,32.84015 3.3615,6.8523 4.11879,10.06546 4.63594,20.40854 0.51717,10.2138 1.03908,12.53686 2.97841,13.57117 1.42216,0.77572 2.46083,3.11266 2.71941,6.0863 0.25858,3.87865 1.30139,5.44318 5.30933,8.15824 7.11087,4.78368 15.24011,6.96501 22.35098,5.80141 3.23221,-0.38788 6.08693,-1.55539 6.47479,-2.46042 0.77574,-2.1979 -5.31699,-12.80206 -10.10067,-17.71503 -2.1979,-2.06862 -6.06455,-4.89701 -8.65032,-6.1899 -10.08452,-5.30083 -15.39052,-15.13423 -19.39848,-36.98401 -1.68076,-8.27448 -6.06351,-24.17077 -8.00284,-28.43729 -2.45649,-5.30084 -3.7531,-16.03739 -2.33093,-19.65747 1.93934,-5.17155 3.75393,-1.41264 2.84891,5.95681 -0.51716,4.78369 -0.15208,6.58254 1.91654,9.1683 2.19791,2.71507 3.63479,3.2372 9.19421,3.10791 5.94729,10e-6 7.10279,-0.65411 11.11074,-4.79135 2.45648,-2.58577 4.53236,-5.93298 4.53236,-7.22586 0,-1.42218 0.64851,-2.97903 1.29495,-3.3669 0.77573,-0.38786 1.29497,-3.63169 1.29497,-7.25177 v -6.31939 h -4.40287 c -2.3272,0 -5.05179,-0.90813 -5.9568,-1.94244 -0.90503,-1.16359 -2.04708,-8.66545 -2.69352,-18.10352 -0.64645,-8.79163 -2.0738,-18.49697 -3.23739,-21.5999 -1.03431,-3.10293 -2.59096,-7.48838 -3.23741,-9.68629 -0.64643,-2.3272 -2.33299,-4.79238 -3.62587,-5.43883 -1.2929,-0.77573 -4.51081,-3.99365 -7.22587,-7.22586 l -4.92085,-6.08631 5.30934,2.71941 c 6.98157,3.62008 13.70645,9.56612 17.32653,15.38411 2.58578,4.26652 2.95313,6.73275 3.341,22.24738 0.51716,20.16903 1.43419,23.25745 7.51076,23.25745 3.49079,0 5.29089,-1.14826 9.94528,-6.57838 5.94728,-6.8523 8.65654,-14.09537 12.53519,-34.13511 4.13724,-21.33264 18.87946,-43.31646 34.3941,-51.46165 8.53307,-4.39581 4.41094,-6.2104 -6.70788,-2.8489 -3.49078,1.03431 -9.69272,1.94243 -13.70066,1.94243 -6.07658,0 -8.03414,-0.65183 -11.39564,-3.36689 -3.10293,-2.58577 -3.62381,-3.75662 -2.33092,-4.53235 1.0343,-0.64644 2.20288,-0.38662 3.10789,0.77698 3.4908,4.65438 11.64407,5.56334 21.21143,2.46042 4.26652,-1.42217 8.26763,-1.81212 11.88772,-1.29497 8.40377,1.29289 10.08886,1.16153 18.88048,-1.29495 7.24019,-1.93934 8.52518,-2.83068 11.24024,-7.61436 6.07656,-10.34308 3.36939,-15.2631 -11.24024,-20.56394 -6.33513,-2.32719 -9.95169,-4.64278 -13.95964,-8.90931 -10.2138,-11.11882 -34.27538,-19.13057 -40.99839,-13.57117 -2.71506,2.19791 -7.35826,0.51198 -9.1683,-3.23739 -1.42219,-3.10293 -1.42155,-4.41073 0.38848,-9.3237 1.2929,-3.10293 4.53671,-7.877698 7.25178,-10.592761 2.71505,-2.715061 5.02443,-5.310365 5.02443,-5.956808 0,-0.646443 -0.50674,-1.01432 -1.32085,-1.139564 z m 27.50491,12.094912 c -0.25857,-0.09696 -0.50576,0.507003 -0.95827,1.735244 -0.51714,1.422177 -1.55498,4.250577 -2.20143,6.189897 -0.77573,1.93933 -2.59198,4.40452 -3.88488,5.43883 -1.42216,0.90502 -2.2006,2.33217 -1.68344,3.1079 1.03431,1.93933 7.51387,1.80983 9.4532,-0.1295 1.68074,-1.68075 1.81045,-8.94329 0.25899,-13.98555 -0.4525,-1.486816 -0.72559,-2.259854 -0.98417,-2.356821 z m -4.45466,33.539421 c 1.00199,0.24241 1.55395,1.27196 1.55395,3.082 1e-5,3.4908 -1.30159,4.01085 -5.43882,1.81295 -2.71505,-1.42218 -2.71568,-1.55665 -0.38849,-3.23741 1.81004,-1.35752 3.27138,-1.89995 4.27336,-1.65754 z m 31.05311,12.92369 c 0.27474,0.0324 -0.0922,0.64934 -1.06187,1.81294 -1.29288,1.68075 -1.16194,1.94244 1.03597,1.94244 3.10294,0 4.78823,1.91861 2.84891,3.21149 -0.64644,0.38787 -1.29496,0.12846 -1.29496,-0.51798 0,-0.77574 -0.64872,-1.42446 -1.42445,-1.42446 -0.64645,0 -0.90586,0.51924 -0.51799,1.29497 0.38786,0.64644 -0.002,1.29495 -1.03596,1.29495 -2.97365,0 -3.88074,-3.99158 -1.29497,-5.93091 1.55147,-1.16359 2.47058,-1.71577 2.74532,-1.68344 z"
     id="path3818"
     inkscape:connector-curvature="0" />
</svg>
