<?xml version="1.0" encoding="UTF-8" standalone="no"?>
<svg
   xmlns:dc="http://purl.org/dc/elements/1.1/"
   xmlns:cc="http://creativecommons.org/ns#"
   xmlns:rdf="http://www.w3.org/1999/02/22-rdf-syntax-ns#"
   xmlns:svg="http://www.w3.org/2000/svg"
   xmlns="http://www.w3.org/2000/svg"
   xmlns:sodipodi="http://sodipodi.sourceforge.net/DTD/sodipodi-0.dtd"
   xmlns:inkscape="http://www.inkscape.org/namespaces/inkscape"
   viewBox="0 0 500 500"
   xml:space="preserve"
   id="svg3840"
   version="1.1"
   inkscape:version="0.48.4 r9939"
   width="100%"
   height="100%"
   sodipodi:docname="cat.svg"><metadata
     id="metadata3857"><rdf:RDF><cc:Work
         rdf:about=""><dc:format>image/svg+xml</dc:format><dc:type
           rdf:resource="http://purl.org/dc/dcmitype/StillImage" /><dc:title /></cc:Work></rdf:RDF></metadata><sodipodi:namedview
     pagecolor="#ffffff"
     bordercolor="#666666"
     borderopacity="1"
     objecttolerance="10"
     gridtolerance="10"
     guidetolerance="10"
     inkscape:pageopacity="0"
     inkscape:pageshadow="2"
     inkscape:window-width="1280"
     inkscape:window-height="1002"
     id="namedview3855"
     showgrid="false"
     inkscape:zoom="0.60571062"
     inkscape:cx="453.57673"
     inkscape:cy="339.78812"
     inkscape:window-x="0"
     inkscape:window-y="0"
     inkscape:window-maximized="1"
     inkscape:current-layer="g3849" /><defs
     id="defs3842"><clipPath
       id="clipPath3203"><path
         d="M 0,0 H 1434 V 2597.51 H 0 V 0 z"
         id="path3845"
         inkscape:connector-curvature="0" /></clipPath></defs><g
     transform="matrix(1.0275432,0,0,-1.0275432,106.2779,476.88665)"
     id="g3847"><g
       transform="scale(0.24,0.24)"
       id="g3849"><g
         clip-path="url(#clipPath3203)"
         id="g3851"
         transform="matrix(0.90440853,0.28080089,-0.33224661,0.76436815,369.19004,-273.59912)"
         style="fill:#000000"><path
           d="m 1154.41,629.125 c -7.66,41.254 28.69,67.988 34.98,117.109 -13.36,-43.621 -62.09,-79.781 -34.98,-117.109 m -109.24,-40.047 c 32.45,-0.32 68.33,-10.789 91.92,-12.074 -58.92,11.187 -181.645,59.453 -166.735,-71.395 -0.23,36.09 9.356,57.43 24.348,69.512 -3.523,-4.687 -5.699,-10.051 -5.699,-15.824 0,-11.731 8.359,-21.883 20.656,-27.426 -13.105,1.399 -25.519,3.895 -34.422,3.539 11.504,-0.746 29.182,-5.722 46.582,-7.301 2.82,-0.457 5.74,-0.734 8.75,-0.734 1.39,0 2.72,0.211 4.09,0.328 24.02,0.832 44.22,12.418 41.94,56.809 -0.78,-9.203 -2.43,-16.864 -4.74,-23.274 -1.03,12.778 -11.76,23.496 -26.69,27.84 m 23.18,-197.933 c -20.53,0.691 -51.28,4.707 -67.64,6.925 l -0.67,-4.875 c 16.69,-2.281 35.1,-8.25 55.95,-8.957 l 12.36,6.907 z m -25.34,-21.172 c -16.89,3.09 -36.58,8.793 -48.928,12.535 l -1.004,-5.465 c 12.672,-3.836 26.112,-10.957 43.352,-14.125 l 6.58,7.055 z m -8.4,-22.805 c -16.68,5.023 -31.84,10.262 -45.051,15.586 l -2.461,-6.106 c 13.472,-5.425 27.832,-13.41 44.792,-18.515 l 2.72,9.035 z m -41.532,-22.184 c -15.027,9.086 -77.402,6.024 -77.637,39.864 -0.019,2.738 -1.476,2.109 -1.449,0 0.488,-33.84 -62.633,-31.172 -77.66,-40.258 19.617,7.101 62.098,3.609 79.16,14.726 17.063,-11.117 57.969,-7.238 77.586,-14.332 M 841.523,533.41 c -8.847,0.598 -21.238,-1.539 -34.289,-2.597 13.68,5.234 23.184,15.976 23.184,28.484 0,3.168 -0.797,6.176 -1.922,9.062 11.442,-13.004 18.152,-33.437 17.094,-64.894 18.433,130.414 -105.543,85.461 -164.754,75.863 23.762,0.668 60.184,10.262 92.781,9.59 -15.375,-4.688 -26.312,-16.172 -26.312,-29.621 0,-0.996 0.265,-1.922 0.371,-2.895 -3.293,7.43 -5.469,16.864 -6.149,28.809 -6.531,-83.152 69.184,-52.977 99.996,-51.801 M 675,629.125 c 27.117,37.328 -21.613,73.488 -34.984,117.109 6.297,-49.121 42.648,-75.855 34.984,-117.109 M 860.57,443.367 c 28.356,6.469 39.735,-14.754 34.125,-28.043 0,-15.547 16.985,-21.754 17.301,-28.648 l 4.192,53.582 3.367,-53.582 c 0.324,6.894 17.308,13.101 17.308,28.648 -5.613,13.289 5.766,34.512 34.129,28.043 0,0 13.567,4.344 6.957,13.731 -19.703,27.945 -53.578,9.578 -61.761,12.675 -8.165,-3.097 -42.875,15.27 -62.583,-12.675 -6.609,-9.387 6.965,-13.731 6.965,-13.731 m 351.22,29.371 c -15.33,-18.871 -163.86,-86.062 -169.77,-114.355 -5.89,-28.297 14.16,-69.555 -127.317,-47.153 -118.207,-18.718 -123.316,8.938 -125.351,34.399 11.461,3.25 20.48,7.398 29.449,11.016 l -2.477,6.109 c -8.25,-3.32 -17.719,-6.496 -28.129,-9.516 -0.207,1.742 -0.457,3.461 -0.808,5.145 -0.469,2.23 -3.414,5.637 -5.508,8.293 11.676,2.433 23.148,6.047 32.066,8.742 l -2.144,7.09 c -10.164,-3.07 -22.43,-6.008 -36.184,-8.703 -3.926,3.457 -10.945,8.05 -16.328,11.883 16.856,0.828 33.914,3.855 46.82,5.613 l -0.925,6.769 c -15.832,-2.144 -35.082,-3.687 -56.793,-4.379 -46.825,30.301 -120.239,66.082 -130.77,79.047 -15.32,18.86 20.047,111.989 28.297,130.848 8.254,18.867 -28.297,104.926 -17.688,165.051 31.833,-30.657 95.493,-16.504 135.575,-58.946 73.484,83.7 134.39,29.473 150.898,29.473 16.504,0 77.418,54.227 150.897,-29.473 40.09,42.442 103.75,28.289 135.58,58.946 10.61,-60.125 -25.93,-146.184 -17.68,-165.051 8.25,-18.859 43.62,-111.988 28.29,-130.848 m -218.067,86.559 c 0,-15 16.527,-27.211 36.847,-27.211 20.31,0 36.84,12.211 36.84,27.211 0,11.383 -9.55,21.129 -23.02,25.18 1.99,-2.77 3.54,-6.036 4.27,-9.75 2.43,-12.45 -4.41,-24.582 -15.29,-27.094 -10.89,-2.524 -21.68,5.543 -24.13,17.992 -1.19,6.137 -0.06,12.102 2.61,16.965 -10.8,-4.738 -18.127,-13.36 -18.127,-23.293 m -185.371,5.223 c -2.782,-12.379 -13.797,-20.149 -24.606,-17.352 -10.812,2.824 -17.336,15.129 -14.562,27.516 0.793,3.515 2.293,6.589 4.207,9.214 -12.575,-4.324 -21.375,-13.699 -21.375,-24.601 0,-15 16.527,-27.211 36.839,-27.211 20.317,0 36.844,12.211 36.844,27.211 0,10.664 -8.441,19.828 -20.586,24.289 3.391,-5.246 4.778,-12.141 3.239,-19.066 M 987.793,184.305 C 926.18,289.184 743.598,205.957 757.258,338.711 666.746,315.148 448.195,314.172 370.938,333.324 l 4.535,2.153 c 135.906,-20.227 287.011,-11.266 382.785,10.128 0.414,2.547 0.73,4.993 1.277,7.692 -3.097,2.066 -7.73,7.258 -11.051,9.457 -39.636,-6.055 -84.113,-8.699 -132.824,-8.699 -45.851,0 -99.746,5.367 -141.078,14.14 l 7.332,3.012 c 80.449,-17.09 181.109,-14.102 256.113,-3.668 -8.054,5.309 -16.507,10.809 -25.113,16.414 -96.078,1.043 -226.039,22.965 -340.5,70.699 l 4.176,3.289 c 107.461,-44.828 228.293,-61.843 321.519,-64.347 -45.746,29.808 -91.625,60.011 -100.531,70.886 -18.215,22.278 22.149,119.723 31.961,141.989 9.801,22.285 -33.637,123.886 -21.031,194.875 40.539,-45.848 107.66,-20.91 155.297,-71.024 105.527,77.551 -55.996,147.364 -4.325,206.114 10.215,0 18.473,-25.739 22.012,-45.786 16.113,14.543 16.895,41.84 16.113,53.243 -0.765,10.992 19.645,0 19.645,0 0,0 24.363,-24.754 28.688,-55.789 10.222,22 12.179,51.074 12.179,51.074 0,0 9.832,13.762 23.75,3.578 0,0 19.574,-16.738 25.469,-42.082 14.125,20.039 4.219,43.219 4.219,43.219 25.547,51.093 22.402,156.019 -130.063,163.079 0,0 38.004,119.85 -25.152,273.51 -64.445,156.79 -267.211,182.33 -279.785,249.92 0,163.86 315.371,316.55 268.785,619.31 -13.36,86.85 -71.129,336.78 -313.985,347.39 -90.683,3.96 -160.718,-20.44 -146.57,-89.61 11.668,-57.05 63.828,-101.81 177.227,-89.58 120.25,12.96 150.898,-29.48 152.074,-181.55 1.805,-233.48 -407.113,-408.69 -393.75,-648.4 C 165.328,1496.8 -78.3125,1481.08 25.4258,1270.45 -68.4922,978.477 193.816,895.262 207.766,754.883 220.336,628.344 122.488,590.5 133.098,552.246 c 10.61,-38.254 60.125,-57.941 99.023,-131.207 38.906,-73.269 62.32,-160.051 133.219,-129.848 66.41,28.286 313.199,2.336 338.348,-103.761 0,-55.028 27.5,-93.5081 73.085,-111.5941 12.969,-21.6211 21.223,-55.414 21.223,-55.414 0,0 13.555,24.9414 11.793,55.414 14.934,13.3555 29.863,22.0196 50.293,0 C 876.43,66.8945 885.625,0 885.625,0 c 0,0 29.473,41.6406 20.043,68.7656 10.602,13.3555 33.004,20.4414 57.371,0 17.094,-10.414 22.402,-50.3086 22.402,-50.3086 0,0 21.219,26.336 14.629,50.3086 0,0 29.09,45.1254 -12.277,115.5394 m 336.807,183.992 -0.62,2.91 c -95.53,-20.289 -204.87,-16.391 -273.99,-3.703 l -4.63,-7.551 c 49.71,-15.926 232.45,-6.488 279.24,8.344 m -216.61,15.035 c 81.6,0 198.51,19.527 326.02,72.688 l -4.71,1.921 C 1289,399.422 1161,386.832 1080.05,389.617 l -8.55,-6.285 c 8.29,-0.281 27.3,0 36.49,0 m 312.49,-70.723 -0.72,3.278 c -117.81,-17.52 -259.72,-7.032 -376.35,28.14 l -0.81,-9.031 c 96.69,-34.004 330.7,-40.273 377.88,-22.387 M 790.41,552.48 c 3.258,1.458 5.395,9.754 4.778,18.473 -0.625,8.75 -3.774,14.68 -7.04,13.192 -3.25,-1.454 -5.382,-9.727 -4.75,-18.512 0.618,-8.692 3.762,-14.641 7.012,-13.153 m 241.46,31.383 c 3.24,-1.644 5.28,-9.804 4.56,-18.215 -0.72,-8.355 -3.92,-13.914 -7.15,-12.277 -3.24,1.668 -5.3,9.789 -4.57,18.18 0.71,8.414 3.91,13.914 7.16,12.312"
           id="path3853"
           inkscape:connector-curvature="0"
           style="fill:#000000" /></g></g></g></svg>