<?xml version="1.0" encoding="UTF-8" standalone="no"?>
<svg
   xmlns:dc="http://purl.org/dc/elements/1.1/"
   xmlns:cc="http://creativecommons.org/ns#"
   xmlns:rdf="http://www.w3.org/1999/02/22-rdf-syntax-ns#"
   xmlns:svg="http://www.w3.org/2000/svg"
   xmlns="http://www.w3.org/2000/svg"
   xmlns:sodipodi="http://sodipodi.sourceforge.net/DTD/sodipodi-0.dtd"
   xmlns:inkscape="http://www.inkscape.org/namespaces/inkscape"
   enable-background="new 0 0 360.594 239.639"
   height="500"
   viewBox="0 0 500.00555 499.99791"
   width="500"
   xml:space="preserve"
   id="svg3629"
   version="1.1"
   inkscape:version="0.48.4 r9939"
   sodipodi:docname="crow.svg"><metadata
     id="metadata3701"><rdf:RDF><cc:Work
         rdf:about=""><dc:format>image/svg+xml</dc:format><dc:type
           rdf:resource="http://purl.org/dc/dcmitype/StillImage" /><dc:title /></cc:Work></rdf:RDF></metadata><defs
     id="defs3699" /><sodipodi:namedview
     pagecolor="#ffffff"
     bordercolor="#666666"
     borderopacity="1"
     objecttolerance="10"
     gridtolerance="10"
     guidetolerance="10"
     inkscape:pageopacity="0"
     inkscape:pageshadow="2"
     inkscape:window-width="640"
     inkscape:window-height="480"
     id="namedview3697"
     showgrid="false"
     inkscape:zoom="0.69636622"
     inkscape:cx="218.64957"
     inkscape:cy="191.41393"
     inkscape:window-x="0"
     inkscape:window-y="0"
     inkscape:window-maximized="0"
     inkscape:current-layer="g3631" /><g
     id="g3631"
     style="fill-rule:evenodd"
     transform="matrix(1.2192491,0,0,1.2192491,42.29882,161.92697)"><path
       d="m 266.02,34.636 c -21.149,0.185 -34.808,-0.008 -56.16,-1.44 -3.566,-0.239 -6.803,-1.556 -10.08,-1.92 -2.256,-0.25 -6.578,0.288 -10.08,0 -11.868,-0.974 -30.854,-3.148 -40.8,-7.2 -6.076,-2.475 -12.134,-6.964 -9.12,-14.88 2.656,-6.977 18.445,-9.702 29.28,-9.12 17.839,0.958 31.504,10.918 49.92,15.84 18.51,4.948 37.31,8.371 47.04,18.72 z"
       id="path3633"
       inkscape:connector-curvature="0" /><path
       d="m 118.18,58.636 c -1.358,-0.541 -3.08,2.667 -5.76,2.4 -6.883,-9.632 -19.637,-25.512 -35.52,-27.36 -2.078,-0.242 -3.819,-0.214 -5.76,0 C 57.567,35.177 45.16,45.251 46.66,62.476 40.459,58.167 34.68,51.355 24.58,49.516 22.25,49.092 20.138,49.396 17.86,49.036 3.994,46.841 -4.48,34.235 2.5,18.796 c 12.833,-8.45 35.185,-2.717 50.4,1.44 26.372,7.205 51.564,20.464 68.16,35.52 -0.046,1.234 -1.874,0.687 -1.92,1.92 1.693,-0.066 2.146,-1.374 3.84,-1.44 10.831,1.149 15.191,-3.267 24.48,-7.2 10.937,-4.631 10.546,-17.909 0,-23.04 9.79,1.89 20.927,2.433 23.04,12 1.965,-3.258 -1.581,-5.13 -1.92,-7.68 9.875,3.728 25.131,1.758 36.48,4.32 3.052,0.689 6.779,2.633 10.08,3.84 10.024,3.665 17.785,9.128 24,16.32 8.346,9.658 14.003,22.726 30.24,26.88 -13.411,-1.058 -25.311,-1.515 -34.08,-7.68 -10.182,-7.157 -13.3,-20.221 -20.641,-30.24 -5.153,0.625 -8.295,0.538 -12,2.4 -5.75,2.891 -7.967,10.408 -15.84,8.16 -4.732,-1.351 -7.466,-7.437 -16.32,-5.76 -3.297,2.943 -2.36,10.12 -10.08,8.64 -3.842,4.206 -10.936,11.757 -16.8,4.32 v 4.32 c -4.047,2.738 -9.061,6.981 -14.88,3.84 -2.389,0.11 -2.713,2.887 -5.28,3.84 -3.187,1.183 -7.365,0.224 -10.56,0.48 0.14,-5.843 -0.61,-13.502 5.28,-15.36 z"
       id="path3635"
       inkscape:connector-curvature="0" /><path
       d="m 110.02,73.516 c -8.459,-2.578 -16.779,0.86 -21.6,6.24 -4.055,4.525 -4.582,10.16 -14.4,9.12 4.754,4.719 12.204,3.454 18.72,5.28 8.318,2.332 16.071,6.65 22.08,10.56 0.704,4.936 1.168,11.869 -0.48,16.8 -6.047,-3.353 -8.425,-7.732 -13.44,-12.479 -4.042,-3.827 -9.32,-10.609 -13.92,-12.48 -3.022,-1.229 -5.302,-0.354 -8.64,-0.96 -8.05,-1.462 -18.934,-6.454 -24,-11.52 -3.5,-3.5 -7.943,-10.122 -8.16,-15.84 -0.247,-6.511 3.281,-20.021 5.76,-23.52 3.759,-5.304 18.92,-12.128 27.36,-9.6 11.128,3.334 25.716,15.158 30.24,23.04 2.62,4.567 4.42,11.827 0.48,15.356 z m -46.084,-3.84 c -7.395,10.248 17.273,14.066 9.12,1.44 -2.016,-3.121 -6.373,-5.248 -9.12,-1.44 z"
       id="path3637"
       inkscape:connector-curvature="0" /><path
       d="m 214.18,36.076 c 22.094,1.18 33.495,11.151 45.6,24.48 7.312,8.051 12.946,16.509 24.48,19.2 4.38,1.022 9.038,0.469 14.399,2.4 -15.146,5.022 -32.223,-2.754 -41.76,-11.04 -13.46,-11.688 -22.13,-29.955 -42.72,-35.04 z"
       id="path3639"
       inkscape:connector-curvature="0" /><path
       d="m 229.54,36.556 c 32.53,2.046 47.099,31.593 81.12,34.56 14.934,1.302 31.123,-2.458 41.28,-8.64 -9.352,9.889 -20.187,17.677 -36.96,19.2 -43.94,3.988 -52.17,-37.344 -85.44,-45.12 z"
       id="path3641"
       inkscape:connector-curvature="0" /><path
       d="m 245.38,36.076 c 6.775,2.283 17.347,-0.735 24.479,0.48 4.366,0.744 8.382,4.061 12.96,6.24 18.066,8.601 42.042,18.646 69.12,12.48 3.113,-0.709 4.684,-2.574 8.64,-3.84 0.296,3.815 -3.102,3.938 -3.84,6.72 -11.435,6.272 -25.979,11.673 -41.76,11.04 -30.15,-1.208 -43.936,-25.596 -68.64,-31.68 -0.6,-0.21 -0.99,-0.614 -0.96,-1.44 z"
       id="path3643"
       inkscape:connector-curvature="0" /><path
       d="m 224.26,66.316 c -7.258,-0.856 -13.599,-11.536 -11.521,-20.16 0.979,-0.964 0.941,0.212 1.92,0.48 1.29,8.464 7.61,11.91 9.6,19.68 z"
       id="path3645"
       inkscape:connector-curvature="0" /><path
       d="m 199.78,62.476 c 0.957,-3.169 3.093,-6.478 0.96,-10.08 1.773,-3.506 4.354,-6.206 9.601,-6.24 0.233,12.406 5.209,20.071 14.88,23.04 -7.02,7.568 -21.29,-0.901 -25.44,-6.72 z"
       id="path3647"
       inkscape:connector-curvature="0" /><path
       d="m 198.82,52.396 c 3.358,15.914 -27.916,10.96 -27.36,-1.92 7.245,-1.56 11.941,6.023 19.2,5.28 3.55,-0.364 4.16,-2.707 8.16,-3.36 z"
       id="path3649"
       inkscape:connector-curvature="0" /><path
       d="m 196.42,62.476 c -3.054,20.083 -25.298,4.002 -26.399,-7.68 2.502,-0.313 2.588,2.689 4.32,4.32 4.97,4.686 15.01,6.963 22.08,3.36 z"
       id="path3651"
       inkscape:connector-curvature="0" /><path
       d="m 182.5,73.516 c -0.023,3.399 -1.879,5.232 -3.84,5.76 -11.162,3.006 -12.904,-13.442 -17.28,-18.72 0.742,-2.778 4.993,-2.047 5.76,-4.8 5.72,5.316 7.82,14.259 15.36,17.76 z"
       id="path3653"
       inkscape:connector-curvature="0" /><path
       d="m 149.38,66.316 c 4.764,0.284 6.293,-2.667 8.64,-4.8 3.139,4.338 11.459,9.932 9.6,17.28 -0.732,2.895 -3.202,4.202 -6.72,3.84 -4.875,-0.501 -4.14,-4.208 -6.24,-8.64 -1.6,-3.369 -5.57,-4.429 -5.28,-7.68 z"
       id="path3655"
       inkscape:connector-curvature="0" /><path
       d="m 230.98,73.516 c 5.907,6.545 -5.121,13.27 -14.88,11.52 -8.985,-1.612 -18.797,-12.291 -16.8,-20.64 7.92,6.791 17.86,13.391 31.68,9.12 z"
       id="path3657"
       inkscape:connector-curvature="0" /><path
       d="m 154.66,83.116 c -3.261,2.922 -11.869,2.283 -14.88,-0.48 0.435,-5.555 -2.898,-7.342 -4.32,-11.04 5.573,0.454 6.432,-3.808 10.56,-4.8 2.7,5.455 10.19,8.137 8.64,16.32 z"
       id="path3659"
       inkscape:connector-curvature="0" /><path
       d="m 196.9,67.756 c 2.16,12.344 17.724,24.15 31.68,17.28 2.7,-1.33 3.423,-3.397 6.24,-5.28 5.399,7.931 -5.312,13.548 -12,14.4 -14.575,1.856 -27.979,-12.043 -27.36,-24.48 0.98,-0.132 0.45,-1.788 1.44,-1.92 z"
       id="path3661"
       inkscape:connector-curvature="0" /><path
       d="m 73.536,76.876 c -3.858,4.915 -13.297,-1.873 -8.16,-7.2 1.686,-0.085 1.579,1.622 2.88,1.92 -0.063,-1.183 -0.073,-2.312 0.48,-2.88 4.085,0.235 5.091,3.548 4.8,8.16 z"
       id="path3663"
       inkscape:connector-curvature="0" /><path
       d="m 139.3,88.396 c -5.673,-0.014 -9.345,4.026 -13.92,3.36 -6.115,-0.891 -8.415,-9.485 -10.56,-15.36 8.834,0.321 13.247,-7.464 20.16,-2.4 2.14,3.869 5.45,8.822 4.32,14.4 z"
       id="path3665"
       inkscape:connector-curvature="0" /><path
       d="m 193.06,72.076 c 2.48,12.972 13.309,26.748 30.24,23.52 2.207,-0.42 2.558,-2.447 4.8,-1.92 1.685,15.655 -22.03,12.82 -30.72,5.28 -7.138,-6.193 -9.462,-16.378 -11.521,-24 2.29,-0.141 5.46,-0.905 7.2,-2.88 z"
       id="path3667"
       inkscape:connector-curvature="0" /><path
       d="m 112.9,76.876 c 3.942,13.487 20.367,25.504 12.96,41.28 -5.907,-12.996 -17.584,-20.828 -33.12,-25.44 -3.916,-1.162 -10.379,1.18 -13.44,-2.88 7.834,1.09 11.472,-11.635 16.32,-12.48 6.791,-1.183 8.915,8.684 14.88,11.04 -2.604,-4.437 -6.018,-8.063 -9.6,-11.52 1.95,-4.218 9.11,-1.651 12,-0.004 z"
       id="path3669"
       inkscape:connector-curvature="0" /><path
       d="m 184.9,76.876 c 1.443,13.449 10.704,28.316 24.48,29.76 3.112,0.327 6.97,-1.909 10.079,0.48 -0.095,5.614 -7.22,6.661 -11.04,7.68 -5.549,1.481 -12.275,-3.417 -16.319,-6.72 -7.119,-5.813 -6.324,-14.32 -11.52,-21.12 -1.884,-2.465 -6.101,-3.312 -6.72,-6.24 4.74,1.352 7.94,-2.049 11.04,-3.844 z"
       id="path3671"
       inkscape:connector-curvature="0" /><path
       d="m 170.02,79.756 c 1.986,-0.227 1.275,2.245 1.92,3.36 2.637,3.644 9.836,3.178 8.64,9.6 -0.519,2.784 -4.103,4.522 -7.2,4.32 -5.806,-0.378 -9.023,-8.565 -10.08,-13.44 3.04,0.517 5.18,-1.546 6.72,-3.84 z"
       id="path3673"
       inkscape:connector-curvature="0" /><path
       d="m 164.26,97.036 c -2.459,1.271 -6.494,2.813 -9.6,1.92 -1.7,-3.1 -0.932,-8.668 -1.92,-12.48 4.43,-8.404 13.05,3.076 11.52,10.56 z"
       id="path3675"
       inkscape:connector-curvature="0" /><path
       d="m 149.86,85.996 c 4.037,2.029 1.764,9.144 3.84,15.36 1.345,4.027 9.193,10.916 2.88,12.96 -5.673,1.837 -8.824,-6.377 -12,-8.64 2.89,-9.41 -12.59,-21.972 5.28,-19.684 z"
       id="path3677"
       inkscape:connector-curvature="0" /><path
       d="m 142.18,108.08 c -1.671,-3.957 -7.979,-4.354 -9.6,0 -4.097,-3.423 -4.943,-10.097 -6.72,-15.84 1.194,-0.074 1.486,0.754 2.4,0.96 10.48,-8.708 18.53,4.165 13.92,14.88 z"
       id="path3679"
       inkscape:connector-curvature="0" /><path
       d="m 181.54,94.636 c 0.558,-0.078 0.854,0.106 0.96,0.48 0.969,11.351 12.003,12.637 15.84,21.12 -1.466,0.89 -3.381,1.164 -4.801,0 -1.582,1.138 -1.862,3.577 -3.84,4.32 -2.83,-0.05 -4.894,-0.865 -7.2,-1.44 -1.022,-9.537 -6.597,-14.522 -10.56,-21.12 3.71,1.917 8.7,0.314 9.6,-3.364 z"
       id="path3681"
       inkscape:connector-curvature="0" /><path
       d="m 165.22,95.116 c 6.551,6.053 16.364,13.547 13.92,25.44 -5.283,2.371 -9.828,-2.07 -12,-5.76 2.25,-6.98 0.08,-14.19 -1.92,-19.684 z"
       id="path3683"
       inkscape:connector-curvature="0" /><path
       d="m 156.1,100.4 c 2.563,-0.428 7.072,-1.095 8.64,-0.96 1.435,2.888 2.983,8.298 0.48,11.04 -5.59,0.88 -8.44,-4.53 -9.12,-10.08 z"
       id="path3685"
       inkscape:connector-curvature="0" /><path
       d="m 110.98,145.52 c 8.674,0.969 13.715,4.086 24.48,7.681 8.751,2.922 18.989,5.34 22.08,11.04 1.172,2.161 0.979,5.583 1.92,8.64 1.924,6.253 4.434,9.479 0.96,16.32 -4.982,4.491 -12.926,1.656 -18.24,4.319 -3.773,1.892 -5.174,8.292 -7.2,12 -2.521,4.615 -4.894,8.68 -6.24,12.96 5.421,0.745 9.907,-5.649 14.88,-0.479 -12.932,2.196 -23.652,6.97 -36.96,7.68 2.18,-3.526 7.559,-0.963 10.56,-3.36 -3.696,-1.802 -8.129,0.925 -12.48,0.48 -3.8,-0.389 -7.382,-3.834 -11.04,-1.92 0.34,-2.38 3.182,-2.259 5.28,-2.88 2.888,3.402 13.363,1.595 16.32,0.96 -1.672,-1.44 -8.334,-0.986 -10.08,-3.84 -2.806,-0.409 -3.446,2.269 -5.76,0.96 1.888,-1.632 4.405,-2.635 7.2,-3.36 2.672,2.136 5.578,2.614 11.04,2.88 1.915,0.093 6.23,0.311 5.76,0.48 2.612,-0.941 8.851,-13.958 10.08,-16.8 5.516,-12.761 -0.146,-31.283 -7.68,-39.36 -5.22,-5.59 -12.67,-6.74 -14.88,-14.4 z"
       id="path3693"
       inkscape:connector-curvature="0" /><path
       d="m 49.536,81.196 c 8.744,7.086 17.375,14.694 30.24,16.32 10.604,1.34 14.556,8.796 21.12,15.36 4.498,4.498 9.258,8.172 12.96,12 4.261,-1.86 3.826,-8.608 3.36,-13.92 4.117,0.25 4.722,8.044 8.16,10.56 6.23,-2.57 4.046,-13.553 12.96,-13.44 1.483,1.557 3.61,2.47 4.32,4.8 2.19,-0.05 1.958,-2.522 3.84,-2.88 2.598,4.535 7.916,7.453 13.44,5.28 1.679,-0.721 1.444,-3.355 3.84,-3.36 2.466,5.694 5.666,10.654 12,12.479 3.468,-3.795 9.615,-2.633 14.4,-0.479 1.328,-1.231 1.987,-3.133 2.88,-4.8 2.369,0.817 4.064,-0.332 7.2,0 3.591,3.289 7.638,6.123 11.04,9.6 13.82,5.379 25.782,12.617 34.56,23.04 16.656,0.814 29.407,10.317 39.36,19.2 5.535,4.94 16.065,8.708 15.359,17.28 -0.603,7.319 -12.53,14.745 -21.12,11.04 -8.987,-3.877 -7.643,-21.805 -19.68,-20.16 -3.991,9.3 7.318,11.104 8.64,18.239 -20.717,8.659 -18.771,-18.8 -33.6,-22.079 -0.334,9.269 14.441,12.253 10.561,23.52 -2.716,0.97 -2.385,-1.791 -3.841,-1.92 -1.863,-0.165 -2.658,2.251 -5.279,1.92 -8.829,-1.116 -2.301,-14.073 -7.681,-19.68 -6.218,2.501 0.985,13.289 -3.84,17.279 -2.295,0.217 -2.025,0.217 -4.32,0 -1.455,-1.741 -0.359,-3.889 -0.96,-5.76 -2.66,0.38 -2.401,3.679 -4.319,4.8 -3.13,0.224 -4.528,0.406 -7.2,-0.479 3.407,-10.833 9.767,-18.714 14.88,-27.84 -3.171,-2.262 -4.657,2.189 -6.72,3.84 0.026,1.573 1.365,1.835 0.96,3.84 -4.634,7.526 -8.641,15.68 -12.96,23.52 -13.707,4.854 -17.225,19.896 -23.04,32.641 4.099,2.008 7.004,-3.865 11.52,-1.44 1.296,-3.854 11.782,-6.612 11.04,-0.479 -2.215,0.455 -1.102,-2.419 -3.359,-1.92 -3.178,0.502 -4.428,2.933 -5.761,5.279 -4.15,-2.287 -6.753,0.772 -10.56,1.44 -4.763,0.836 -7.938,-0.554 -9.6,4.32 -5.784,3.167 -10.383,0.057 -15.36,1.439 -0.002,-1.762 1.681,-1.839 2.4,-2.88 -5.566,0.972 -13.014,-0.269 -16.8,0.48 -0.529,-2.969 4.57,-3.959 5.28,-1.44 6.179,-2.94 17.425,-0.815 23.04,-4.32 -6.343,0.974 -16.068,-1.812 -20.64,-0.96 0.588,-4.112 4.563,-1.65 7.2,-1.439 5.527,0.44 12.386,-0.395 16.8,-0.96 6.787,-11.569 20.308,-32.538 11.52,-49.44 -2.144,4.143 -1.085,8.065 -0.479,13.44 -9.308,-0.133 -7.131,-11.749 -10.081,-18.24 -4.89,5.579 0.84,12.748 2.88,17.28 -3.861,-0.727 -10.585,-0.129 -12.96,-3.84 -0.683,-1.066 -0.45,-2.613 -0.96,-3.841 -0.503,-1.212 -1.778,-2.418 -2.4,-3.84 -4.653,-10.636 -2.766,-19.364 -13.44,-24 -5.697,-2.474 -15.071,-3.807 -23.04,-6.72 -5.479,-2.004 -10.052,-5.281 -13.44,-5.76 -2.527,-0.357 -4.183,0.614 -6.24,0 -3.695,-1.104 -4.586,-5.093 -7.68,-7.681 -1.65,0.21 -2.69,-0.189 -3.84,-0.479 -12.103,-8.698 -25.904,-15.696 -33.12,-29.28 -7.838,-4.81 -12.48,-12.809 -13.444,-24.484 z m 170.4,67.204 c -5.871,0.751 -8.296,-1.944 -12,-3.359 -2.348,3.252 -8.856,2.344 -10.08,6.72 3.8,3.302 8.409,-0.302 12,-1.44 6.299,5.672 11.59,-0.746 19.68,1.44 1.013,-1.228 2.422,-2.059 2.4,-4.32 -5.67,-0.46 -9.76,-5.18 -12,0.96 z m -58.08,88.8 c 4.551,2.402 14.158,-0.69 12.48,-4.32 -0.4,2.38 -8.24,2.88 -12.48,4.32 z"
       id="path3695"
       inkscape:connector-curvature="0" /></g></svg>