<?xml version="1.0" encoding="UTF-8" standalone="no"?>
<svg
   xmlns:dc="http://purl.org/dc/elements/1.1/"
   xmlns:cc="http://creativecommons.org/ns#"
   xmlns:rdf="http://www.w3.org/1999/02/22-rdf-syntax-ns#"
   xmlns:svg="http://www.w3.org/2000/svg"
   xmlns="http://www.w3.org/2000/svg"
   xmlns:sodipodi="http://sodipodi.sourceforge.net/DTD/sodipodi-0.dtd"
   xmlns:inkscape="http://www.inkscape.org/namespaces/inkscape"
   viewBox="0 0 500 500"
   id="svg3291"
   version="1.1"
   inkscape:version="0.48.4 r9939"
   width="100%"
   height="100%"
   sodipodi:docname="deer.svg"
   inkscape:export-filename="/home/tadeusz/Dokumenty/Drawings/Uvaga Avatars/deer.png"
   inkscape:export-xdpi="90"
   inkscape:export-ydpi="90">
  <metadata
     id="metadata3331">
    <rdf:RDF>
      <cc:Work
         rdf:about="">
        <dc:format>image/svg+xml</dc:format>
        <dc:type
           rdf:resource="http://purl.org/dc/dcmitype/StillImage" />
        <dc:title />
      </cc:Work>
    </rdf:RDF>
  </metadata>
  <defs
     id="defs3329" />
  <sodipodi:namedview
     pagecolor="#ffffff"
     bordercolor="#666666"
     borderopacity="1"
     objecttolerance="10"
     gridtolerance="10"
     guidetolerance="10"
     inkscape:pageopacity="1"
     inkscape:pageshadow="2"
     inkscape:window-width="1280"
     inkscape:window-height="1002"
     id="namedview3327"
     showgrid="false"
     inkscape:zoom="1.1644472"
     inkscape:cx="417.22883"
     inkscape:cy="226.15124"
     inkscape:window-x="0"
     inkscape:window-y="0"
     inkscape:window-maximized="1"
     inkscape:current-layer="svg3291" />
  <path
     style="fill:#000000"
     d="m 381.33047,304.46875 c 0.0636,0.0109 0.0937,0.0491 0.0937,0.0937 0,0.35728 -1.53079,6.92263 -3.40625,14.59375 -1.87545,7.67112 -3.90589,18.19888 -4.53125,23.40625 -0.62536,5.20737 -2.26077,14.65737 -3.625,21 -3.75899,17.47637 -5.12072,36.49467 -3.53125,49.5 2.1995,17.99677 4.17881,23.36479 11.03125,30 5.26271,5.09587 7.92426,12.27583 8.71875,23.46875 0.57092,8.0431 0.4566,8.94965 -1.46875,10.875 -2.74979,2.74979 -6.3091,1.62335 -12.03125,-3.875 -6.50989,-6.25529 -8.31391,-10.72081 -8.5,-21 -0.18265,-10.08963 -1.67217,-13.15333 -8.03125,-16.3125 -5.7738,-2.86839 -6.13936,-4.53405 -4.6875,-21.40625 0.69691,-8.09885 1.46113,-29.56875 1.71875,-47.71875 0.43796,-30.85603 0.64728,-33.71412 3.03125,-44.125 l 2.5625,-11.125 6.625,-1.625 c 3.65019,-0.89427 8.7625,-2.68347 11.375,-3.96875 2.28594,-1.12463 4.2114,-1.8577 4.65625,-1.78125 z m -2.5625,149.46875 c -0.0711,0.01 -0.11938,0.0516 -0.1875,0.0937 -0.51814,0.32023 -0.33214,2.30041 0.46875,4.625 0.77171,2.2399 1.55775,6.26601 1.71875,8.96875 0.31933,5.36084 1.25293,7.24226 2.28125,4.5625 1.48183,-3.86156 -2.07672,-18.5605 -4.28125,-18.25 z"
     id="path3071"
     inkscape:connector-curvature="0" />
  <path
     style="fill:#000000"
     d="m 375.89297,24.59375 c 0.31023,0 -0.7546,2.63375 -2.375,5.84375 -1.62041,3.21001 -4.81873,12.05126 -7.09375,19.65625 -6.03578,20.1765 -11.70224,29.84596 -18.75,31.96875 -2.87908,0.86719 -2.83269,1.66339 0.25,4.34375 1.42363,1.23783 2.5,3.2601 2.5,4.6875 0,1.64713 0.55719,2.5 1.625,2.5 1.29313,0 1.50677,-0.65346 1,-3.1875 -0.35028,-1.75141 -1.37754,-4.00141 -2.28125,-5 -0.9313,-1.02908 -1.16617,-1.8125 -0.53125,-1.8125 0.6161,0 2.652,-1.35 4.53125,-3 3.91684,-3.43903 4.67604,-3.55932 8.71875,-1.46875 4.0532,2.09601 4.00618,4.93874 -0.0625,4.125 -2.07536,-0.41507 -3,-0.22363 -3,0.65625 0,0.7932 2.54042,1.70937 6.75,2.40625 5.21164,0.86276 10.62439,3.10649 23.75,9.84375 9.35,4.79928 21.44884,10.2296 26.875,12.0625 13.09452,4.42317 18.625,7.67999 18.625,10.96875 0,3.15953 -4.15397,7.40625 -7.25,7.40625 -1.29488,0 -3.24488,-0.66124 -4.3125,-1.46875 -1.06762,-0.8075 -3.5125,-1.46075 -5.4375,-1.46875 -3.98872,-0.0175 -11.5,3.81523 -11.5,5.875 0,0.77014 2.42429,2.20459 5.5,3.25 3.0153,1.02494 6.1537,2.5287 6.96875,3.34375 2.50601,2.50601 -10.50949,2.03514 -14.71875,-0.53125 -4.518,-2.75463 -6.52037,-2.5758 -20.3125,1.9375 -16.3244,5.342 -25.31684,6.80104 -32.5625,5.28125 -9.91029,-2.0787 -15.44837,-7.93083 -18.96875,-20.15625 l -2.15625,-7.5625 -6.65625,-0.28125 c -3.65158,-0.16293 -9.19447,0.15949 -12.34375,0.71875 -6.0338,1.07152 -22.29809,8.73801 -23,10.84375 -0.67229,2.01687 1.16256,1.43392 7.375,-2.3125 8.84475,-5.33385 16.54787,-7.0542 29.53125,-6.59375 3.38481,0.12005 3.67999,0.38667 4.3125,3.875 1.0435,5.75495 4.84032,13.40283 8.46875,17.03125 5.11732,5.11733 8.75307,6.58652 18,7.1875 l 8.46875,0.53125 0.875,3.46875 c 1.20161,4.6575 3.58459,7.87314 13.9375,18.78125 4.8289,5.08785 8.78125,9.75801 8.78125,10.375 0,0.8187 -0.34433,0.83476 -1.3125,0.0313 -2.4476,-2.03133 -8.55663,-4.15769 -9.15625,-3.1875 -0.31969,0.51728 2.19879,4.00969 5.59375,7.75 5.41838,5.96956 12.10041,14.40302 14.21875,17.96875 0.38881,0.65449 -1.88795,-0.10873 -5.0625,-1.71875 -5.52535,-2.80226 -8.28125,-3.60967 -8.28125,-2.40625 0,0.30747 2.62765,4.01997 5.84375,8.25 6.23305,8.1981 14.54117,22.05635 15.6875,26.1875 0.59652,2.14975 0.0216,1.85389 -4.15625,-2.15625 -3.8939,-3.73758 -10.69057,-7.84375 -13,-7.84375 -0.22195,0 2.31996,3.7125 5.65625,8.25 7.36967,10.02308 11.01337,17.2044 11.625,22.9375 l 0.4375,4.3125 -2,-3.625 c -3.52499,-6.37009 -13.06621,-14.33187 -14.46875,-12.0625 -0.27601,0.44659 1.46007,3.7111 3.84375,7.25 2.38367,3.5389 5.06695,8.6346 5.96875,11.3125 2.0432,6.06735 2.30303,15.70661 0.59375,21.625 l -1.3125,4.5 -1.375,-3.28125 c -0.75994,-1.81264 -1.83905,-3.0068 -2.40625,-2.65625 -0.56719,0.35054 -0.85268,1.14415 -0.625,1.78125 1.48959,4.16807 -10.38112,17.50233 -19.5,21.90625 -5.53229,2.67179 -15.40084,5.53898 -16.1875,4.6875 -0.21382,-0.23144 0.41917,-4.4875 1.40625,-9.4375 2.43381,-12.20495 2.67136,-14.7508 1.375,-15.1875 -0.68295,-0.23007 -1.57936,2.60312 -2.34375,7.40625 -0.68148,4.28212 -2.96269,14.98125 -5.0625,23.78125 -2.09981,8.8 -4.49855,21.01728 -5.34375,27.125 -0.8452,6.10773 -3.11587,17.35773 -5.03125,25 -3.34398,13.34237 -6.60545,37.01038 -6.59375,47.75 0.009,7.82845 1.46332,11.55681 7.8125,19.96875 6.23917,8.26617 9.79453,16.67705 10.84375,25.5625 0.5161,4.3706 0.3593,5.28139 -0.78125,4.90625 -0.77291,-0.25422 -1.54472,-1.65491 -1.71875,-3.125 -0.49283,-4.16298 -2.03347,-3.15259 -2.375,1.5625 -0.27576,3.80696 -0.6222,4.31862 -3.3125,4.90625 -3.49083,0.7625 -7.71614,0.10751 -8.59375,-1.3125 -0.33612,-0.54385 -0.18682,-3.22154 0.3125,-5.96875 0.99455,-5.47187 -0.17904,-10.76255 -2.875,-13 -0.85928,-0.71314 -3.64334,-1.5504 -6.1875,-1.84375 -6.92936,-0.799 -7.65075,-2.95532 -5.6875,-17.03125 2.5498,-18.28129 1.73672,-71.60675 -1.53125,-100 -0.60139,-5.225 -2.23614,-14.37324 -3.625,-20.34375 -2.00942,-8.63819 -2.29148,-11.36963 -1.40625,-13.3125 1.31957,-2.89615 1.42199,-5.34375 0.25,-5.34375 -0.46197,0 -1.41665,1.85273 -2.15625,4.09375 -1.09914,3.33053 -1.14322,5.164 -0.125,10.09375 0.68557,3.31709 0.99887,6.28238 0.6875,6.59375 -0.31137,0.31137 -10.18948,0.053 -21.9375,-0.59375 -23.23734,-1.27918 -53.7851,-4.75463 -76.625,-8.71875 -14.99775,-2.60303 -38.77416,-8.11241 -40.96875,-9.46875 -0.88008,-0.54392 1.75471,-4.42994 8.875,-13.1875 5.56505,-6.84469 10.09375,-12.75485 10.09375,-13.125 0,-2.25401 -3.07043,0.79666 -12.625,12.5625 -17.08792,21.04267 -36.4686,42.80048 -55.46875,62.25 -9.67954,9.90847 -18.29954,19.37016 -19.15625,21.03125 -3.78411,7.3371 -4.60145,20.20169 -2.1875,34.09375 3.77196,21.70729 16.33044,45.20147 26.40625,49.375 3.80413,1.57573 6.03125,6.47822 6.03125,13.25 0,4.04455 -0.45672,5.86976 -1.84375,7.125 -1.79748,1.62669 -1.895,1.47563 -2.53125,-4.09375 -0.6446,-5.6424 -1.98631,-9.23244 -3.03125,-8.1875 -0.28573,0.28572 -0.0491,3.5533 0.53125,7.28125 0.58039,3.72795 0.77738,7.09835 0.40625,7.46875 -1.34712,1.34449 -10.35714,0.49244 -12.96875,-1.21875 -3.53192,-2.3142 -4.57333,-5.45798 -5.1875,-15.59375 -0.2837,-4.68207 -0.98756,-9.76175 -1.5625,-11.28125 -1.41856,-3.74908 -4.92478,-4.50079 -8.65625,-1.84375 -5.757344,4.09958 -7.749464,1.96921 -8.531254,-9.125 -2.98905,-42.41745 -4.76775,-59.34923 -7.6875,-73.59375 -2.16494,-10.56206 -1.60642,-13.1875 2.8125,-13.1875 1.93401,0 4.20621,-1.58997 8.312504,-5.8125 9.90043,-10.1807 12.83812,-22.12813 11.03125,-45.125 -0.59011,-7.51057 -1.09375,-22.09361 -1.09375,-32.375 0,-10.28139 -0.22676,-18.6875 -0.5,-18.6875 -0.27324,0 -2.66186,2.25 -5.3125,5 -7.068864,7.33382 -13.216444,6.46985 -11.031254,-1.5625 1.15335,-4.2395 2.49932,-5.27865 17.343754,-12.96875 7.15,-3.70402 16.375,-8.91047 20.5,-11.5625 9.22983,-5.93399 17.36761,-9.02464 31,-11.84375 15.42761,-3.19034 30.4394,-3.65191 49.5,-1.53125 13.64743,1.51839 20.5581,1.64513 47,1.03125 17.05,-0.39583 34.375,-1.00338 38.5,-1.375 l 7.5,-0.6875 -0.34375,-21.5 c -0.31176,-19.26683 0.85208,-42.18367 2.46875,-48.625 0.38934,-1.55128 2.05073,-3.02193 4.75,-4.21875 3.93175,-1.74329 7.38411,-4.70965 6.5,-5.59375 -0.22496,-0.22496 -3.53408,1.11696 -7.375,3 -6.60384,3.23759 -20.85761,6.4262 -28.78125,6.4375 l -2.8125,0 1.8125,-3.09375 c 2.93255,-5.05488 13.77514,-14.37879 20.75,-17.8125 3.56399,-1.75455 9.75774,-3.85509 13.75,-4.6875 3.99227,-0.83241 7.47851,-1.72852 7.75,-2 0.80383,-0.80384 -2.28824,-2.3585 -4.71875,-2.375 -1.2375,-0.008 -2.22675,-0.36875 -2.21875,-0.78125 0.0432,-2.11477 2.21602,-3.47319 7.5625,-4.75 7.44872,-1.77881 7.40625,-1.7968 7.40625,0 0,0.825 0.675,1.5 1.5,1.5 1.86907,0 1.91545,-1.05143 0.125,-3.5 -1.30055,-1.77861 -1.82272,-1.81519 -8.125,-0.5625 -7.99638,1.58943 -21.06082,1.62786 -27.875,0.09375 -4.52506,-1.01874 -5.16781,-0.91462 -8.5,1.375 -1.98263,1.3623 -7,4.80271 -11.125,7.625 -15.9324,10.90081 -31.36448,16.69153 -51.5,19.34375 -8.98038,1.18288 -12.63216,2.21491 -19.9375,5.625 -20.83429,9.7253 -19.61497,9.4533 -43.0625,9.625 -11.55,0.0846 -23.45104,0.52296 -26.46875,1 -8.21369,1.29843 -24.48969,-0.0404 -31.15625,-2.5625 -7.293654,-2.75938 -15.755314,-8.23114 -28.281254,-18.375 -11.65771,-9.44075 -11.12574,-11.39885 1.3125,-4.9375 4.18733,2.17521 12.31875,6.41854 18.09375,9.40625 5.775004,2.98771 13.161044,6.02516 16.406254,6.75 11.10066,2.47943 23.49411,1.07534 25.625,-2.90625 2.92653,-5.46827 -0.63573,-11.53101 -15.09375,-25.75 l -10.4375,-10.25 5.5,1.625 c 12.4756,3.66839 17.39748,7.31542 26.03125,19.375 8.24516,11.51676 10.27429,13.4927 15.875,15.46875 10.56688,3.72821 34.05804,-0.81177 42.1875,-8.15625 9.25016,-8.35697 7.26189,-16.69982 -9.78125,-41 -8.51721,-12.14389 -10.5144,-15.3125 -9.6875,-15.3125 0.35533,0 3.38015,1.99013 6.75,4.40625 6.82493,4.89335 17.7844,16.02045 27.625,28.0625 3.575,4.37477 8.02604,8.97304 9.875,10.21875 7.32075,4.93225 15.94861,4.07744 30.625,-3.03125 11.62903,-5.632675 18.6219,-11.21088 21.5,-17.15625 4.04347,-8.35269 1.96534,-15.22615 -10,-33 -5.41555,-8.0445 -9.374,-15.50092 -8.25,-15.5 0.42367,3.4e-4 3.3232,2.0306 6.46875,4.5 6.55275,5.14419 11.28936,10.84673 20.3125,24.53125 6.75881,10.25042 11.88644,15.53778 16.09375,16.59375 7.66368,1.92346 24.3945,-2.80508 36.03125,-10.1875 6.44165,-4.08662 10.34019,-9.70759 15.84375,-22.84375 5.84926,-13.96128 7.22095,-16.55373 10.875,-20.4375 2.77789,-2.95252 7.51194,-6.15625 9.09375,-6.15625 z m -8.4375,73.5625 c -0.51686,-0.01643 -1.00765,-0.01558 -1.4375,0 -1.14626,0.04155 -1.93648,0.226223 -2.125,0.53125 -0.31488,0.50949 -0.0637,0.90625 0.5625,0.90625 0.74811,0 0.9076,1.0332 0.46875,3.03125 -0.44267,2.01547 -0.16641,3.8333 0.84375,5.375 1.62417,2.47879 4.20575,3.57661 6.65625,2.8125 2.77881,-0.8665 5,-3.5088 5,-5.9375 0,-1.922 0.41112,-2.29696 1.9375,-1.8125 3.39063,1.07614 3.28103,-1.36381 -0.125,-2.78125 -2.74526,-1.142462 -8.16321,-2.009972 -11.78125,-2.125 z m 61.90625,16.65625 c -0.321,-0.0204 -0.63459,-0.001 -0.96875,0.0625 -2.39712,0.45905 -2.40505,0.4799 -0.28125,1.1875 1.19091,0.39679 2.41794,1.80197 2.75,3.125 0.70456,2.80719 2.5625,3.23709 2.5625,0.59375 0,-2.72093 -1.81553,-4.82602 -4.0625,-4.96875 z"
     id="path3067"
     inkscape:connector-curvature="0" />
  <path
     style="fill:#000000"
     d="m 374.39475,107.14784 c 2.71341,-3.26945 -2.23871,-8.221575 -5.50816,-5.50816 -1.93378,1.6049 -1.85233,5.59258 0.12978,6.35318 2.51143,0.96373 4.08206,0.71696 5.37838,-0.84502 z"
     id="path3061"
     inkscape:connector-curvature="0" />
  <path
     style="fill:#000000"
     d="m 254.03492,435.17191 c 1.70519,-0.74231 3.37542,-2.0665 3.71162,-2.94264 1.035,-2.69716 -7.61216,-17.61184 -15.14919,-26.12942 -3.89346,-4.4 -9.02493,-10.45961 -11.40325,-13.46581 -3.47093,-4.38726 -6.09376,-6.36571 -13.29187,-10.02635 -25.70251,-13.07114 -52.46765,-36.66603 -52.46765,-46.25303 0,-0.72018 7.2,-8.61223 16,-17.53789 8.8,-8.92566 15.9962,-16.78837 15.99157,-17.47269 -0.007,-1.06731 -17.95636,-6.24423 -21.64963,-6.24423 -0.63694,0 -5.07866,4.5 -9.87051,10 -4.79184,5.5 -13.60821,15.24821 -19.59193,21.66269 -5.98373,6.41448 -10.8795,12.13018 -10.8795,12.70155 0,0.57138 3.23652,3.13255 7.19226,5.69151 15.30115,9.89827 48.27573,36.76116 58.35951,47.54285 2.77847,2.97077 6.08111,7.5389 7.3392,10.1514 2.61335,5.42677 4.58004,5.97492 9.32212,2.59827 3.96412,-2.8227 7.5683,-1.64313 10.26078,3.35815 1.71264,3.18122 1.8119,4.11439 0.75,7.05102 -1.86637,5.16135 -1.49084,10.05021 1.06346,13.84468 2.75979,4.09973 6.02306,5.792 12.69202,6.58184 l 5.02065,0.59462 0,-3.51356 c 0,-1.93246 -0.65504,-5.37014 -1.45564,-7.63929 -1.1298,-3.20218 -1.17477,-4.12573 -0.20089,-4.12573 1.71497,0 3.65653,5.74579 3.65653,10.821 0,4.60776 0.14124,4.69222 4.60034,2.75106 z"
     id="path3059"
     inkscape:connector-curvature="0" />
  <path
     style="fill:#000000"
     d="m 398.95582,88.293245 c 3.01332,-2.91863 5.47876,-5.91023 5.47876,-6.64802 0,-1.80673 -14.85839,-0.86564 -24.44905,1.54854 -6.20008,1.56069 -6.68509,1.85151 -4.5,2.69828 1.34698,0.52199 5.66181,2.46978 9.58852,4.32843 3.92671,1.85865 7.42377,3.37937 7.77124,3.37937 0.34748,0 3.09721,-2.38797 6.11053,-5.3066 z"
     id="path3057"
     inkscape:connector-curvature="0" />
  <path
     style="fill:#000000"
     d="m 232.43458,77.414235 c 13.98902,-1.31404 21.30324,-1.39113 34.75,-0.36626 12.78321,0.9743 12.96975,0.84318 9.22968,-6.48797 l -2.02033,-3.96016 -10.0359,0 -10.03591,0 -2.08098,-4.75 c -5.93061,-13.53711 -19.30856,-28.44583 -30.67271,-34.18243 -3.48493,-1.75919 -6.52889,-3.00587 -6.76436,-2.7704 -0.23547,0.23547 2.53665,3.97744 6.16025,8.31548 12.93695,15.48764 18.74539,26.29333 16.62965,30.93687 -1.92339,4.22138 -5.06974,4.71938 -22.65939,3.58645 -24.00645,-1.54622 -27.79577,-3.21315 -34.07605,-14.99015 -4.661,-8.74046 -15.43829,-19.40944 -24.38657,-24.14148 -2.43666,-1.28856 -2.44618,-1.277 -0.90293,1.09668 15.90289,24.46031 17.79008,28.53567 14.87889,32.13083 -1.58599,1.95861 -2.76987,2.26739 -8.67499,2.26255 -8.56763,-0.007 -13.23063,-2.20972 -29.83835,-14.09503 -11.23552,-8.0407 -18.13444,-12.16929 -24.16867,-14.4635 -2.25559,-0.85757 -2.05027,-0.37704 1.81247,4.24203 16.65548,19.91664 32.87294,30.65294 51.80068,34.29311 7.37709,1.41876 25.30324,2.5236 24.80568,1.52885 -0.13759,-0.27507 -2.20183,-3.74217 -4.58719,-7.70467 -2.38537,-3.96249 -4.05549,-7.66007 -3.71139,-8.21685 0.82011,-1.32696 8.95352,3.69653 18.68095,11.538 l 7.63253,6.15274 8.86747,0.51581 c 4.87711,0.28369 13.59247,0.072 19.36747,-0.4705 z"
     id="path3055"
     inkscape:connector-curvature="0" />
  <path
     style="fill:#000000"
     d="m 309.43458,73.449245 c 7.50029,-1.74889 9.5965,-1.85469 17.82296,-0.89955 8.65405,1.00478 9.5214,0.94114 12.08881,-0.88702 5.63439,-4.01205 5.59692,-4.73052 -0.27833,-5.3369 -6.91425,-0.71361 -12.90095,-3.7948 -15.4367,-7.94484 -1.10265,-1.8046 -3.23551,-6.88109 -4.73969,-11.28109 -1.50418,-4.4 -4.17213,-10.25 -5.92877,-13 -3.10768,-4.86502 -12.12316,-13.23845 -13.14902,-12.2126 -0.28111,0.28112 1.60914,5.61896 4.20056,11.86186 6.29169,15.15708 8.58197,23.295 7.41776,26.35711 -1.46292,3.84776 -5.37966,5.68288 -13.58438,6.3647 l -7.56831,0.62893 3.08383,4.25 c 3.55469,4.89892 3.88189,4.94167 16.07128,2.0994 z"
     id="path3053"
     inkscape:connector-curvature="0" />
  <path
     style="fill:#000000"
     d="m 366.82021,70.458295 c 7.00254,-2.76853 15.14054,-8.43249 19.00061,-13.22421 3.74658,-4.65084 18.77682,-30.63424 17.72055,-30.63424 -1.06336,0 -9.23676,8.82204 -14.8236,16 -6.51084,8.36511 -14.84439,16.22533 -19.98035,18.8455 -2.9987,1.52982 -4.48354,3.14886 -5.71848,6.23526 -0.91743,2.29288 -1.53672,4.29047 -1.37621,4.43908 0.16052,0.14861 2.49038,-0.59902 5.17748,-1.66139 z"
     id="path3047"
     inkscape:connector-curvature="0" />
</svg>
