<?xml version="1.0" encoding="UTF-8" standalone="no"?>
<svg
   xmlns:dc="http://purl.org/dc/elements/1.1/"
   xmlns:cc="http://creativecommons.org/ns#"
   xmlns:rdf="http://www.w3.org/1999/02/22-rdf-syntax-ns#"
   xmlns:svg="http://www.w3.org/2000/svg"
   xmlns="http://www.w3.org/2000/svg"
   xmlns:sodipodi="http://sodipodi.sourceforge.net/DTD/sodipodi-0.dtd"
   xmlns:inkscape="http://www.inkscape.org/namespaces/inkscape"
   height="500"
   viewBox="-0.628 -0.612 1190.6977 1095"
   width="500"
   xml:space="preserve"
   id="svg3758"
   version="1.1"
   inkscape:version="0.48.4 r9939"
   sodipodi:docname="water-41004.svg"><metadata
     id="metadata3772"><rdf:RDF><cc:Work
         rdf:about=""><dc:format>image/svg+xml</dc:format><dc:type
           rdf:resource="http://purl.org/dc/dcmitype/StillImage" /><dc:title></dc:title></cc:Work></rdf:RDF></metadata><sodipodi:namedview
     pagecolor="#ffffff"
     bordercolor="#666666"
     borderopacity="1"
     objecttolerance="10"
     gridtolerance="10"
     guidetolerance="10"
     inkscape:pageopacity="0"
     inkscape:pageshadow="2"
     inkscape:window-width="640"
     inkscape:window-height="480"
     id="namedview3770"
     showgrid="false"
     inkscape:zoom="0.417193"
     inkscape:cx="133.66068"
     inkscape:cy="212.05188"
     inkscape:window-x="0"
     inkscape:window-y="0"
     inkscape:window-maximized="0"
     inkscape:current-layer="svg3758" /><defs
     id="defs3760" /><g
     id="g3935"
     transform="matrix(1.9635998,0,0,1.9635998,133.95803,-1305.6911)"><path
       inkscape:connector-curvature="0"
       id="path3762"
       d="m 36.14955,841.02219 c 0.73093,5.16813 6.77812,28.01113 9.47212,33.24065 2.21859,3.80332 4.87187,7.58128 7.56587,10.59222 4.27873,4.59565 8.75385,8.85234 13.82491,12.65564 4.43717,3.80551 9.46256,7.16859 14.37515,10.17953 5.22953,3.48635 11.4484,6.49564 17.47028,8.8727 4.59563,2.21861 9.46862,4.11803 14.85662,5.22733 6.0219,1.90164 12.55494,2.99058 19.05223,3.78293 4.59565,0.47541 58.25644,15.61622 42.87452,-23.92967 l -15.53232,-39.9326 15.2822,14.823 c 13.79398,10.91022 64.59513,20.85823 71.88478,17.05494 l 54.27847,61.28488 c 8.71591,2.37703 17.90222,4.94065 26.61811,7.63465 -1.90165,-0.79236 7.57632,2.7039 17.40149,6.19025 10.30059,3.8033 17.25899,6.78287 24.07322,10.11075 13.31153,6.4973 26.18341,13.81721 38.86106,22.21611 6.33882,4.1203 13.29667,9.029 20.42784,14.1001 4.27871,3.3279 8.84354,7.1388 13.75613,11.4176 l 14.16881,13.6185 c 7.13119,6.8142 12.49394,10.5336 14.26842,24.5557 -2.694,0.7924 -0.38409,0.1696 -2.91962,0.9619 -0.79235,0.3169 -1.89615,0.7836 -3.16391,1.1005 -6.33882,1.9016 -10.92181,3.0236 -15.20052,4.6083 -3.01092,1.1093 -5.99932,2.1922 -9.01026,3.3015 -6.97271,3.1694 -13.79299,5.7033 -20.29028,8.8727 -2.53553,1.1093 -5.21578,2.267 -7.90978,3.8517 -1.10927,0.6339 -2.74242,1.4086 -3.85171,2.201 0,0.4754 -0.27512,0.4396 -0.27512,0.7566 0,0 -0.48147,0.3499 -0.48147,0.8253 -0.31694,0.317 -0.3439,0.7566 -0.3439,0.7566 0,1.1093 0.81051,1.9528 1.44439,2.2698 4.59565,1.1093 9.50438,1.884 14.10003,2.201 7.28965,1.2677 14.09508,2.6797 20.90931,4.2644 6.9727,1.4262 13.79299,3.8341 20.29028,6.0527 l -75.45234,18.6395 c -1.1093,0 -2.19218,0.3439 -3.30147,0.3439 -1.90165,0 -3.80715,-0.3439 -5.70879,-0.3439 -6.49727,-0.7923 -12.65949,-2.3479 -18.36443,-4.8834 -7.60659,-3.4864 -14.13084,-8.0451 -20.15272,-13.2747 -5.38802,-5.388 -10.25492,-10.8293 -14.37515,-16.8512 -3.80332,-5.705 -6.51656,-11.8881 -8.73514,-18.2269 -2.37706,-5.7049 -3.81595,-12.1841 -4.60831,-18.3644 -0.79235,-4.9126 -1.10049,-10.1295 -1.10049,-15.2005 -25.35529,-2.2186 -50.11191,-5.2488 -74.83332,-8.7352 -37.39903,-6.4973 -74.26436,-19.3092 -108.81094,-37.69176 -9.50826,-4.91259 -19.07755,-9.81252 -28.26884,-15.20052 -6.02188,-3.32788 -12.83006,-7.60549 -19.32736,-12.51808 -5.70494,-4.59564 -11.04452,-9.06473 -15.9571,-13.34344 -5.388,-4.91256 -10.61092,-10.60212 -15.68198,-16.78247 -9.03284,-10.93447 -7.60128,4.97636 -11.72151,-9.12752 -1.58471,-6.33884 -5.12587,-28.01084 -11.73268,-48.57942 -0.72515,-2.25756 -0.48147,-4.59675 -0.48147,-7.29075 0,-3.01094 0.43965,-6.48079 0.75659,-9.49173 1.10927,-6.18033 2.73362,-11.9029 4.95221,-17.60784 1.58468,-3.32788 5.10332,-3.88288 4.62791,-1.18888 z m 379.75312,186.62351 c -7.13118,0 -8.66331,3.163 -8.66331,10.4526 0,7.4481 0.80943,13.3434 7.94061,13.3434 7.13118,0 9.38604,-5.8953 9.38601,-13.3434 0,-7.2896 -1.53214,-10.4526 -8.66331,-10.4526 z" /><path
       inkscape:connector-curvature="0"
       id="path3764"
       d="m 131.8593,1068.1806 c 37.53247,23.5854 79.24256,39.6807 123.25203,47.4393 l 30.65823,3.4134 31.30999,2.7978 33.11587,0.6301 c -8.55829,-5.635 -16.29736,-12.1977 -23.05882,-19.6837 l -6.58492,-8.1151 c -5.49423,-7.4498 -9.87053,-15.1847 -12.64013,-23.6662 -1.27162,-5.4266 -2.39842,-10.3734 -3.35777,-15.6325 l -1.55202,-12.2516 -32.84874,-4.4273 -25.72501,-4.065 -17.34762,-3.1912 c -9.9252,-2.1863 -19.66934,-5.1601 -29.56283,-8.4552 L 166.00418,1010.6576 141.61,998.86244 116.78138,985.62806 93.55041,971.96376 75.37483,958.91965 52.40209,936.22622 35.50766,911.64567 l 0.84608,9.21925 c 3.74659,29.75326 14.01953,58.58343 29.60594,84.55338 10.58553,17.9002 24.26233,33.0351 40.25193,44.907 l 8.53563,6.427 17.11206,11.4283 z" /><path
       inkscape:connector-curvature="0"
       id="path3766"
       d="m 40.97186,866.70101 c -0.93447,-8.11579 -2.21031,-15.99757 -4.06635,-23.83999 L 4.9189,718.78606 4.46537,716.64351 c -0.18066,-0.29792 -0.1898,-0.71146 -0.37045,-1.00939 -0.12044,-0.19862 -0.53285,-0.48024 -0.82024,-0.35647 -0.52371,-0.0667 -0.80196,0.47061 -1.08022,1.00792 -0.27826,0.53731 -0.55651,1.07461 -0.36671,1.78608 l -2.91039,57.36193 -0.81523,13.00056 c -0.61299,3.77077 0.01654,6.79922 -0.8186,10.1351 -0.84804,3.38739 -1.51034,5.33953 -3.71125,8.16215 -2.10794,2.70339 -4.39416,4.9577 -6.04003,6.62671 l -4.62655,3.32835 -3.44873,1.4852 c 3.68796,4.08942 7.0794,7.88908 10.59584,12.09411 4.58213,5.1655 8.47751,11.84827 13.74099,17.87845 5.26348,6.03018 7.94086,5.92855 11.66276,10.87367 3.7219,4.94512 7.55706,9.97794 10.16937,15.28205 2.15982,4.48172 2.54567,3.96693 3.90249,7.59911 0.93529,2.93701 7.5807,20.07217 9.04217,15.30978 1.21145,-5.57315 2.07071,-11.32861 2.47106,-16.84469 0.19145,-4.46593 0.15116,-8.91555 -0.11631,-13.1421 0.16696,-0.32239 0.04652,-0.52101 0.04652,-0.52101 z" /><path
       inkscape:connector-curvature="0"
       id="path3768"
       d="m 185.82834,1093.8758 c -7.13117,-3.011 -13.94541,-6.3389 -20.4427,-10.1422 -0.79235,0.317 -11.2968,-10.5236 -12.08915,-10.5236 -4.59565,0 -4.85507,0.4058 -9.29225,-0.3866 -13.31153,-1.1093 -21.56412,7.1069 -34.55871,4.7299 14.10388,9.5082 27.41541,19.8088 39.61764,30.9018 10.61753,9.0328 20.12576,19.0164 29.634,28.6831 2.69399,0 4.91258,-0.7923 6.81423,-1.4262 8.39894,-3.8033 16.00553,-7.9235 23.61211,-12.5192 7.28965,-4.1202 13.62847,-9.0328 19.01647,-14.7377 -4.12023,-1.5847 -8.39894,-3.011 -12.51917,-4.2787 -10.30059,-2.5356 -20.12577,-6.0219 -29.79247,-10.3006 z" /></g></svg>