<?xml version="1.0" encoding="UTF-8" standalone="no"?>
<svg
   xmlns:dc="http://purl.org/dc/elements/1.1/"
   xmlns:cc="http://creativecommons.org/ns#"
   xmlns:rdf="http://www.w3.org/1999/02/22-rdf-syntax-ns#"
   xmlns:svg="http://www.w3.org/2000/svg"
   xmlns="http://www.w3.org/2000/svg"
   xmlns:sodipodi="http://sodipodi.sourceforge.net/DTD/sodipodi-0.dtd"
   xmlns:inkscape="http://www.inkscape.org/namespaces/inkscape"
   viewBox="0 0 500 500"
   xml:space="preserve"
   id="svg3826"
   version="1.1"
   inkscape:version="0.48.4 r9939"
   width="100%"
   height="100%"
   sodipodi:docname="black-44490.svg"><metadata
     id="metadata3838"><rdf:RDF><cc:Work
         rdf:about=""><dc:format>image/svg+xml</dc:format><dc:type
           rdf:resource="http://purl.org/dc/dcmitype/StillImage" /><dc:title></dc:title></cc:Work></rdf:RDF></metadata><sodipodi:namedview
     pagecolor="#ffffff"
     bordercolor="#666666"
     borderopacity="1"
     objecttolerance="10"
     gridtolerance="10"
     guidetolerance="10"
     inkscape:pageopacity="0"
     inkscape:pageshadow="2"
     inkscape:window-width="1280"
     inkscape:window-height="1002"
     id="namedview3836"
     showgrid="false"
     inkscape:zoom="0.55366254"
     inkscape:cx="354.00625"
     inkscape:cy="525.06212"
     inkscape:window-x="0"
     inkscape:window-y="0"
     inkscape:window-maximized="1"
     inkscape:current-layer="svg3826" /><defs
     id="defs3828" /><g
     transform="matrix(0.82589089,0,0,-1.018819,18.061574,491.23802)"
     id="g3830"><g
       transform="scale(0.24,0.24)"
       id="g3832"><path
         d="m 196.688,825.621 c -8.465,26.59 -44.817,2.219 -53.696,-7.668 0,0 60.758,-14.539 53.696,7.668 M 1693.7,545.836 c -37.14,-72.664 -87.2,-161.488 -221.24,-160.621 -134.03,0.871 -221.24,-83.227 -287.45,-120.367 -66.21,-37.145 -159.88,-66.215 -213.174,-79.133 -53.294,-12.918 -59.75,-103.3517 -59.75,-103.3517 0,0 -27.453,43.6017 -44.672,1.6133 C 850.188,41.9922 860.414,0 860.414,0 c 0,0 -153.418,3.23047 -151.801,56.5234 0.758,25.0743 46.828,57.0626 105.508,83.9766 4.512,2.07 -17.758,14.129 -13.457,16.684 53.375,31.738 126.34,56.418 145.344,64.601 38.75,16.688 71.052,13.988 96.882,55.981 25.85,41.984 101.74,43.601 125.97,82.824 24.23,39.223 77.52,172.336 114.66,243.387 0,0 0.41,5.246 -12.52,4.441 -12.92,-19.379 -42.86,-74.023 -52.93,-99.219 -54.9,2.156 -163.34,-136.359 -365.73,-123.984 -23.692,-36.817 54.5,-160.34 54.5,-160.34 0,0 -28.836,-15.535 -69.035,-30.008 -26.914,33.371 -121.117,122.735 -140.496,181.946 -21.262,-8.34 -32.301,9.148 -32.301,9.148 -38.758,17.773 -51.676,70.523 -57.059,153.414 -39.832,67.832 -157.09,151.285 -236.765,173.891 43.07,45.214 -19.625,125.351 -19.625,125.351 L 335.57,833.293 C 345.258,817.145 387.246,745.008 323.727,697.641 260.208,650.274 212.836,659.957 198.84,650.27 184.844,640.583 108.406,589.98 93.3359,578.137 78.2658,566.294 52.1523,574.102 52.1523,574.102 l 17.4961,17.851 -12.9179,18.485 c 0,0 -19.3828,-28 -36.6016,-15.079 -22.61328,12.918 -8.6211,53.832 -8.6211,53.832 0,0 -14.26171,7.809 -11.03124,27.188 37.94534,8.879 120.31244,134.305 120.31244,134.305 0,0 -9.691,8.039 -8.078,19.375 20.996,14.539 80.746,62.98 108.199,95.281 0,0 -10.496,50.871 -58.137,46.832 -4.043,16.152 51.676,11.305 71.055,-16.149 27.457,20.993 28.262,94.477 29.07,97.707 20.997,-7.27 36.332,-97.707 36.332,-97.707 0,0 18.77,55.327 91.786,65.137 80.207,10.77 87.207,65.4 85.593,71.05 24.371,-29.7 15.395,-74.23 8.114,-86.65 28.402,10.8 69.097,36.06 75.316,72.21 5.52,-32.35 -9.562,-62.77 -27.711,-82.079 43.977,4.161 101.934,22.309 110.875,37.039 7.645,-26.18 -10.504,-57.863 -23.09,-75.687 38.184,14.121 90.016,40.352 95.496,72.187 4.618,-27.07 -9.476,-56.515 -27.48,-79.035 73.66,7.368 175.371,19.696 196.504,33.282 -11.297,-39.567 -82.36,-79.129 -82.36,-79.129 0,0 104.434,-46.832 168.489,-16.149 -3.227,-32.297 -104.965,-72.133 -104.965,-72.133 0,0 89.086,-69.98 211.823,-49.789 122.73,20.18 377.08,108.465 509.5,33.102 132.42,-75.363 123.27,-186.789 106.58,-253.543 M 1158.09,369.273 c 10.95,16.715 32.85,70.79 53.29,116.809 5.38,24.867 -45.15,-16.543 -45.15,-16.543 0,0 -26.84,-73.48 -58.74,-92.461 -19.82,-11.789 14.53,-31.488 14.53,-31.488 0,0 21.94,0.48 36.07,23.683 M 783.301,221.422 c -9.156,13.453 -67.824,75.723 -67.824,75.723 -60.547,-28.266 -121.524,6.351 -121.524,6.351 0,0 -23.687,11.949 -12.918,22.715 10.762,10.766 74.285,46.297 74.285,46.297 -56.523,6.726 -55.703,98.652 -67.293,131.344 -26.773,-39.973 -58.953,-135.254 -81.554,-153.024 -22.614,-17.762 -69.45,-40.586 -27.461,-82.469 41.989,-41.883 96.48,-51.796 119.504,-41.875 51.554,22.215 109.574,17.707 163.593,-2.011 5.579,-2.039 15.942,-4.196 21.192,-3.051 M 2352.58,938.262 C 2323.51,775.156 2132.5,882.258 1948.86,839.75 1774.45,799.379 1792.75,636.813 1720.07,638.43 l -3.76,-53.297 c 0,0 92.62,-77.672 226.09,73.746 138.07,156.648 254.34,46.027 352.85,124.351 95.25,75.731 57.33,155.032 57.33,155.032 M 1484.3,199.18 c 0,0 20.46,-68.77 -46.56,-105.2425 -62.98,-16.1523 -96.09,78.3205 -96.09,78.3205 0,0 -10.49,-12.18 -32.29,-12.926 -11.31,19.391 -110.63,103.356 -110.63,103.356 L 1234,285.84 c 23.14,-47.91 152.05,-42.25 163.36,-51.938 11.3,-9.695 -49.25,-16.425 -23.41,-29.347 25.84,-12.922 110.35,-5.375 110.35,-5.375 m -468.32,121.648 c 0,0 -29.609,53.031 -64.121,54.91 -23.66,1.282 -16.046,-71.867 -30.074,-73.75 -21.269,-2.855 -37.152,15.614 -37.152,15.614 v -14.106 l 32.84,-60.183 32.84,36.871 c 67.957,21.601 65.667,40.644 65.667,40.644 M 1243.14,47.3359 c -25.83,-8.6445 -91.51,11.875 -104.43,22.6485 -12.92,10.7735 -51.67,-44.1485 -61.36,-12.9258 -9.69,31.2305 -81.827,68.3674 -120.088,80.4454 -22.336,17.496 1.66,36.504 25.879,34.078 76.309,-58.781 105.109,-20.992 138.479,-8.07 -2.16,-8.617 4.45,-43.801 4.45,-43.801 0,0 62.3,57.187 85.99,39.965 23.69,-17.227 44.01,-73.5471 31.08,-112.3401"
         id="path3834"
         inkscape:connector-curvature="0"
         style="fill:#100f0d" /></g></g></svg>