<?xml version="1.0" encoding="UTF-8" standalone="no"?>
<svg
   xmlns:dc="http://purl.org/dc/elements/1.1/"
   xmlns:cc="http://creativecommons.org/ns#"
   xmlns:rdf="http://www.w3.org/1999/02/22-rdf-syntax-ns#"
   xmlns:svg="http://www.w3.org/2000/svg"
   xmlns="http://www.w3.org/2000/svg"
   xmlns:sodipodi="http://sodipodi.sourceforge.net/DTD/sodipodi-0.dtd"
   xmlns:inkscape="http://www.inkscape.org/namespaces/inkscape"
   viewBox="0 0 500 500"
   xml:space="preserve"
   id="svg3774"
   version="1.1"
   inkscape:version="0.48.4 r9939"
   width="100%"
   height="100%"
   sodipodi:docname="lion.svg"><metadata
     id="metadata3814"><rdf:RDF><cc:Work
         rdf:about=""><dc:format>image/svg+xml</dc:format><dc:type
           rdf:resource="http://purl.org/dc/dcmitype/StillImage" /><dc:title /></cc:Work></rdf:RDF></metadata><sodipodi:namedview
     pagecolor="#ffffff"
     bordercolor="#666666"
     borderopacity="1"
     objecttolerance="10"
     gridtolerance="10"
     guidetolerance="10"
     inkscape:pageopacity="0"
     inkscape:pageshadow="2"
     inkscape:window-width="1280"
     inkscape:window-height="1002"
     id="namedview3812"
     showgrid="false"
     inkscape:zoom="0.23838384"
     inkscape:cx="218.96958"
     inkscape:cy="501.5401"
     inkscape:window-x="0"
     inkscape:window-y="0"
     inkscape:window-maximized="1"
     inkscape:current-layer="g3778" /><defs
     id="defs3776" /><g
     transform="matrix(1.25,0,0,-1.25,0,500)"
     id="g3778"><g
       transform="matrix(-0.29342871,0,0,0.29342871,600.54953,-307.45563)"
       id="g3780"
       style="fill:#000000"><path
         d="m 1076.66,2137.99 c 0,0 -16.1,40.24 -62.38,48.3 0,0 70.43,-16.1 44.27,44.26 l 50.31,-74.45 -32.2,-18.11"
         id="path3782"
         inkscape:connector-curvature="0"
         style="fill:#000000" /><path
         d="m 1163.19,2172.2 c 0,0 -30.19,-10.06 -50.31,10.06 -20.13,20.13 -22.14,44.28 -22.14,44.28 0,0 38.24,-6.04 48.3,24.14 0,0 -22.14,-56.34 24.15,-78.48"
         id="path3784"
         inkscape:connector-curvature="0"
         style="fill:#000000" /><path
         d="m 1191.36,2170.19 c 0,0 -50.31,32.2 -34.21,84.51 16.1,52.32 52.31,40.25 78.48,40.25 0,0 -50.31,-38.24 -28.17,-102.63 l -16.1,-22.13"
         id="path3786"
         inkscape:connector-curvature="0"
         style="fill:#000000" /><path
         d="m 1289.95,2298.97 c -35.95,-3.08 -54.2,-12.16 -76.46,-90.54 l 34.21,2 c 0,0 60.37,54.34 132.81,68.42 0,0 -20.13,26.16 -90.56,20.12"
         id="path3788"
         inkscape:connector-curvature="0"
         style="fill:#000000" /><path
         d="m 1269.84,2212.45 c 0,0 74.45,-6.04 60.36,-40.25 0,0 122.75,50.3 249.52,-26.16 0,0 -46.28,156.96 -309.88,66.41"
         id="path3790"
         inkscape:connector-curvature="0"
         style="fill:#000000" /><path
         d="m 1376.48,2140.01 c -14.38,4.17 -6.53,12.5 -22.13,16.09 0,0 309.88,24.15 344.09,-201.22 0,0 -102.58,121.41 -321.96,185.13"
         id="path3792"
         inkscape:connector-curvature="0"
         style="fill:#000000" /><path
         d="m 1344.29,2131.96 c 0,0 211.48,-19.5 301.83,-195.19 72.44,-140.86 36.23,-126.77 144.88,-197.2 0,0 -28.17,-46.28 -110.67,2.01 0,0 -10.06,-94.58 -106.64,-158.97 0,0 58.35,191.16 -88.55,297.82 0,0 138.84,-293.79 -56.34,-410.5 0,0 34.2,382.33 -100.61,505.07 0,0 96.58,-50.31 104.63,-102.63 0,0 14.1,86.54 -98.59,163.01 0,0 22.13,12.07 22.13,28.16 0,0 48.29,-10.06 68.41,-26.16 0,0 -28.16,50.3 -78.47,52.32 l -2.01,42.26"
         id="path3794"
         inkscape:connector-curvature="0"
         style="fill:#000000" /><path
         d="m 1450.93,2035.38 c 0,0 148.91,-138.86 148.91,-273.68 0,0 34.21,185.13 -148.91,273.68"
         id="path3796"
         inkscape:connector-curvature="0"
         style="fill:#000000" /><path
         d="m 1257.63,2163.31 c -8.88,6.13 -24.97,11.93 -32.06,-19.28 l -18.11,-2.02 c 0,0 10.78,63.17 63.35,53.35 7.51,-1.41 28.74,-17.22 32.61,-29.42 8.14,-25.64 7.24,-24.19 -1.4,-92.35 -2.39,-19 -42.25,-40.24 -54.32,-30.17 -12.07,10.06 12.07,16.1 12.07,16.1 l 3.43,83.86 c 0,0 -1.84,17.36 -5.57,19.93"
         id="path3798"
         inkscape:connector-curvature="0"
         style="fill:#000000" /><path
         d="m 928.598,1890.82 c -5.469,0.2 -3.34,-4.39 -9.727,-4.73 -6.383,-0.33 -6.473,5.98 -13.312,8.09 -6.121,1.91 -13.711,-2.85 -19.676,1.93 0,0 26.914,-41.53 40.707,-39.23 0,0 13.797,-2.3 29.898,41.39 0,0 -14.453,-7.92 -27.89,-7.45"
         id="path3800"
         inkscape:connector-curvature="0"
         style="fill:#000000" /><path
         d="m 1296.8,1969.55 c 0,0 160.96,-243.74 94.28,-407 -66.69,-163.25 -80.47,-266.28 16.1,-289.73 0,0 -192.99,16.16 -105.77,298.93 75.88,246.04 -4.61,397.8 -4.61,397.8"
         id="path3802"
         inkscape:connector-curvature="0"
         style="fill:#000000" /><path
         d="m 1188.73,1728.11 c 0,0 85.08,64.39 87.38,75.89 0,0 44.53,-113.05 -30.81,-280.86 -75.34,-167.8 17.13,-249.99 105.02,-281.95 0,0 -249.99,-10.28 -176.94,264.83 53.98,203.26 15.35,222.09 15.35,222.09"
         id="path3804"
         inkscape:connector-curvature="0"
         style="fill:#000000" /><path
         d="m 1038.68,1658.98 c 0,0 75.35,-26.25 121.01,69.64 0,0 38.81,-92.46 -12.56,-255.7 -62.63,-199.03 69.63,-277.4 157.53,-303.65 0,0 -315.062,27.4 -216.89,381.27 0,0 -165.524,-144.97 52.51,-359.58 0,0 -248.854,97.03 -150.682,349.3 0,0 -62.785,4.56 -67.352,46.8 0,0 109.584,-26.25 172.374,43.39 0,0 -36.53,-2.28 -55.94,28.53"
         id="path3806"
         inkscape:connector-curvature="0"
         style="fill:#000000" /><path
         d="m 1261.79,2001.16 c -28.18,2.01 -38.24,38.23 -38.24,38.23 -66.4,-54.32 -113.04,-25.63 -113.04,-25.63 0,0 11.28,2.54 47.5,12.6 36.22,10.07 -10.92,37.18 -12.94,57.3 -2.01,20.12 34.22,48.3 34.22,48.3 0,0 1.01,5.88 -10.62,10.72 -3.44,1.44 0.55,11.41 -5.48,13.42 -24.15,8.05 -92.56,-24.14 -114.7,-58.35 -7.41,-11.45 -15.25,-23.55 -22.42,-34.61 5.82,-8.93 17.36,-11.72 39.85,20.41 0,0 -9.69,-48.46 -57.19,-52.34 11.2,-18.52 15.79,-50.29 61.07,-10.66 l 17.45,-5.82 c 0,0 -61.06,-19.39 -34.89,-47.49 0,0 -34.91,18.22 -54.962,53.98 -128.414,-94.74 -108.156,-119.84 -108.156,-119.84 68.418,-18.11 74.731,13.26 74.731,13.26 12.074,-52.32 -38.231,-62.38 -38.231,-62.38 -2.012,-14.1 8.047,-30.19 8.047,-30.19 28.973,-3.54 46.203,-7.82 56.469,-11.07 34.682,-10.95 39.702,-33.77 39.702,-36.43 0,-5.02 -3.48,-6.95 -5,-6.45 -2.26,0.74 -27.085,26.67 -27.085,26.67 l -71.285,2.31 c 0.848,-55.16 43.422,-73.62 43.422,-73.62 -10.063,6.03 2.011,24.14 2.011,24.14 14.086,-28.17 26.161,-14.09 26.161,-14.09 l 4.026,30.18 c 22.13,-54.33 86.52,-24.14 60.36,10.06 -20.84,27.27 -4.66,49.37 2.79,57.24 6.88,11.15 23.98,25.42 66.41,28.88 l 0.53,0.06 c -0.18,-0.01 -0.35,-0.04 -0.53,-0.06 -4.44,-0.45 -34.79,-4.32 -44.28,-23.68 111.36,8.18 51.55,-82.55 51.55,-82.55 132.8,72.44 60.37,197.2 -4.03,158.96 -64.38,-38.23 -92.56,42.26 -92.56,42.26 32.2,-68.42 86.53,-28.17 98.6,-14.09 12.07,14.09 88.54,42.26 96.59,-28.17 8.04,-70.43 40.24,-46.28 40.24,-46.28 -8.05,50.3 -16.09,134.82 -16.09,134.82"
         id="path3808"
         inkscape:connector-curvature="0"
         style="fill:#000000" /></g></g></svg>