<?xml version="1.0" encoding="UTF-8" standalone="no"?>
<svg
   xmlns:dc="http://purl.org/dc/elements/1.1/"
   xmlns:cc="http://creativecommons.org/ns#"
   xmlns:rdf="http://www.w3.org/1999/02/22-rdf-syntax-ns#"
   xmlns:svg="http://www.w3.org/2000/svg"
   xmlns="http://www.w3.org/2000/svg"
   xmlns:sodipodi="http://sodipodi.sourceforge.net/DTD/sodipodi-0.dtd"
   xmlns:inkscape="http://www.inkscape.org/namespaces/inkscape"
   viewBox="0 0 500 500"
   id="svg3703"
   version="1.1"
   inkscape:version="0.48.4 r9939"
   width="100%"
   height="100%"
   sodipodi:docname="panda.svg">
  <metadata
     id="metadata3737">
    <rdf:RDF>
      <cc:Work
         rdf:about="">
        <dc:format>image/svg+xml</dc:format>
        <dc:type
           rdf:resource="http://purl.org/dc/dcmitype/StillImage" />
        <dc:title />
      </cc:Work>
    </rdf:RDF>
  </metadata>
  <defs
     id="defs3735" />
  <sodipodi:namedview
     pagecolor="#ffffff"
     bordercolor="#666666"
     borderopacity="1"
     objecttolerance="10"
     gridtolerance="10"
     guidetolerance="10"
     inkscape:pageopacity="0"
     inkscape:pageshadow="2"
     inkscape:window-width="1280"
     inkscape:window-height="1002"
     id="namedview3733"
     showgrid="false"
     inkscape:zoom="0.3439321"
     inkscape:cx="-19.110239"
     inkscape:cy="222.28026"
     inkscape:window-x="0"
     inkscape:window-y="0"
     inkscape:window-maximized="1"
     inkscape:current-layer="svg3703" />
  <g
     transform="matrix(2.4406781,0,0,2.4406781,-665.53533,-1062.7624)"
     id="g3705">
    <path
       d="m 431.13271,518.07275 c 2.75867,3.30357 5.89141,16.07382 7.26015,23.39658 1.01221,5.41534 1.52519,18.00367 0.89285,16.96428 l -7.3595,-19.04401 -0.7935,-21.31685 z"
       id="path3707"
       inkscape:connector-curvature="0"
       style="fill:#ffffff;fill-rule:evenodd" />
    <path
       d="m 390,612.00504 c -1.30571,3.41789 -5.82828,8.19365 -4.64286,10 1.31458,2.00318 8.10298,1.48798 12.14286,1.42857 4.05536,-0.0596 8.09524,-1.19047 12.14286,-1.78571 l 2.85714,-15 -21.07142,-0.53572 c -0.4762,1.96429 -0.71048,4.01313 -1.42858,5.89286 z"
       id="path3709"
       inkscape:connector-curvature="0"
       style="fill-rule:evenodd" />
    <path
       d="m 373.57143,602.00504 c 6.66667,1.07143 11.05679,1.88419 15.71428,4.28571 2.96155,1.52705 4.18942,7.07808 7.14286,7.5 4.54656,0.64951 10.23809,-2.85714 15.35714,-4.28571 l -0.35714,-22.5 -13.57143,-0.35714 -24.28571,15.35714 z"
       id="path3711"
       inkscape:connector-curvature="0"
       style="fill:#ffffff;fill-rule:evenodd" />
    <path
       d="m 310,582.36218 c -0.35714,5.2381 -0.15076,10.58486 -1.07143,15.71429 -0.746,4.15628 -5.02773,8.84536 -3.92857,12.14285 1.16274,3.48822 7.98699,4.39284 11.97698,5.43637 3.74811,0.98028 7.04739,1.0761 11.23731,0.63506 2.5958,-0.27324 5.23809,0 7.85714,0 L 335.71429,596.6479 310,582.36218 z"
       id="path3713"
       inkscape:connector-curvature="0"
       style="fill-rule:evenodd" />
    <path
       d="m 336.42857,597.71933 c -6.20728,1.18076 -12.66043,-1.15198 -18.45939,-5.01795 -3.48675,-2.3245 -8.26078,-7.92929 -9.87744,-11.87237 -3.2643,-7.96169 -5.26789,-8.19667 -7.2908,-18.28608 -1.87499,-9.35162 -3.45284,-23.10659 0.79351,-31.70649 5.03788,-10.20295 8.95823,-24.21866 15.2742,-33.36593 4.04117,-5.85273 13.28233,-13.39227 17.7544,-15.92722 1.43214,-0.81179 2.21948,3.59566 2.16266,5.81889 l -0.35714,110.35715 z"
       id="path3715"
       inkscape:connector-curvature="0"
       style="fill:#ffffff;fill-rule:evenodd" />
    <path
       d="m 363.46589,463.84941 c 3.5454,-1.92043 9.72795,-0.84137 14.03411,0.29849 3.78908,1.00299 7.0745,3.72188 10.71429,5.35714 4.5745,2.05521 10.03203,2.76554 13.92857,5.71428 4.91299,3.71793 8.85435,9.14867 12.5,14.28572 4.2115,5.93438 7.95941,11.8998 10.75893,19.08482 l 3.52678,26.98661 -0.89286,16.42857 -82.14286,-1.96429 -0.35713,-13.75 0.35714,-8.39286 -5.00001,-22.14285 9.64286,-28.39286 c 3.97923,-6.0786 7.90415,-10.79034 12.93018,-13.51277 z"
       id="path3717"
       inkscape:connector-curvature="0"
       style="fill:#ffffff;fill-rule:evenodd" />
    <path
       d="m 333.21429,482.36218 c -1.35392,1.26518 1.438,3.31324 0.71428,4.64286 -4.39533,8.07514 -13.41399,14.7625 -16.07143,23.57143 -3.77113,12.50059 -4.37575,27.27131 -3.21428,40.35714 0.62425,7.03321 6.61891,13.07742 8.57143,20 1.97605,7.00599 1.40957,14.85181 3.21428,21.78571 0.45719,1.75658 3.2954,2.53752 3.57143,4.28572 0.7954,5.03751 -1.00921,10.80053 -0.35714,16.07143 0.7765,6.27672 -0.27116,16.69254 4.64285,18.57143 11.27647,4.31159 32.17709,2.79339 43.92858,0 2.77232,-0.659 0.54919,-7.105 -0.35715,-10.35715 -1.11747,-4.00976 -7.78911,-8.59094 -5.71428,-11.42857 6.02041,-8.2338 21.25914,-19.42568 30,-21.78571 3.1639,-0.85425 4.94605,7.95251 5.71428,12.14285 0.54129,2.95251 -0.86747,6.28057 -1.78571,9.28572 -1.70081,5.56628 -8.02836,13.09028 -6.07143,16.42857 2.09069,3.56647 12.06876,3.88739 18.21429,4.28571 6.71162,0.43501 14.70136,0.66003 20.35714,-1.78571 3.15375,-1.36378 4.75668,-6.13687 6.07143,-9.64286 1.89954,-5.06544 1.94751,-7.91664 3.75,-13.03572 1.1737,-3.3333 4.65247,-12.43409 3.92857,-15.71428 -3.08562,-13.98172 -10.60947,-24.90191 -14.73215,-39.46428 -3.25827,-11.50906 -3.07591,-24.04622 -6.16071,-35.35715 -0.84377,-3.09384 -4.28571,-5 -6.42857,-7.5 l 1.07143,36.78572 -77.85714,-6.78572 c 0.71428,-3.33333 2.18815,-6.66417 2.14285,-10 -0.10813,-7.96291 -5.57233,-14.77264 -5.35714,-22.14285 0.261,-8.93932 3.06263,-18.58115 6.78571,-26.78572 2.70549,-5.9621 7.54995,-13.30308 12.81567,-15.46174 -10.1046,3.80848 -22.91138,11.11297 -31.38709,19.03317 z"
       id="path3719"
       inkscape:connector-curvature="0"
       style="fill-rule:evenodd" />
    <path
       d="m 347.6046,537.21424 c -1.6417,8.76451 1.07492,19.82561 2.96547,27.37373 1.93956,7.74383 18.88652,20.05916 29.64286,23.57143 6.74366,2.20201 15.96589,-1.49313 21.21564,-5.79722 3.97164,-3.25621 8.54739,-7.83294 12.90047,-9.87373 2.49033,-1.16751 4.65348,-1.4503 6.46818,-3.23595 3.45585,-3.40053 6.81656,-15.46806 6.70278,-23.31889 -0.12431,-8.57775 -1.40696,-18.8925 -6.0281,-25.96683 -5.02172,-7.68757 -14.43794,-15.36477 -23.02674,-17.68753 -10.33978,-2.79629 -24.87839,-1.4991 -33.12763,4.35069 -12.0731,8.56142 -15.53489,18.9565 -17.71293,30.5843 z"
       id="path3721"
       inkscape:connector-curvature="0"
       style="fill:#ffffff;fill-rule:evenodd" />
    <path
       d="m 357.85714,517.00504 c 4.55357,-4.76191 6.25,-8.27381 10.71429,-11.07143 -0.95238,-5.2381 -0.88868,-12.92792 -2.85714,-15.71429 -1.62811,-2.3046 -10.44524,-3.49873 -12.5,-2.14285 -3.46511,2.28654 -6.52992,13.34594 -5.71429,15 3.84468,7.79678 7.62296,5.58099 9.64286,9.28571 0.71942,1.31949 0.47619,3.09524 0.71428,4.64286 z"
       id="path3723"
       inkscape:connector-curvature="0"
       style="fill-rule:evenodd" />
    <path
       d="m 405.71429,501.6479 c 0.88551,-5.15478 6.2874,-13.30556 10,-13.92858 3.40979,-0.5722 13.5034,7.96273 13.92857,13.21429 0.15214,1.87917 -2.38862,7.9086 -5,10.71429 -1.53827,1.65274 -4.16821,3.02022 -5.26786,4.64285 -0.82189,1.21278 -0.80357,2.38095 -0.80357,3.57143 -3.09524,-2.94643 -6.54762,-5.26786 -10.35714,-7.5 -0.83333,-3.57143 -2.85214,-8.66439 -2.5,-10.71428 z"
       id="path3725"
       inkscape:connector-curvature="0"
       style="fill-rule:evenodd" />
    <path
       d="m 392.94934,568.87792 c 0.6117,0.81248 0.57787,2.75311 0.25254,3.40926 -0.0874,0.17628 -5.94393,6.26687 -8.83884,6.43973 -3.70065,0.22097 -9.22294,-3.7709 -10.6066,-5.55584 -0.60354,-0.77857 -1.37736,-1.32706 -0.50507,-2.39911 0.83085,-1.02112 19.46,-2.21012 19.69797,-1.89404 z"
       id="path3727"
       inkscape:connector-curvature="0"
       style="fill-rule:evenodd" />
    <path
       d="m 371.86241,540.97246 c 0.87828,-0.25787 2.72357,2.17702 3.40926,4.04061 0.5504,1.49589 -4.95721,12.50399 -6.9448,14.52094 -1.74061,1.76632 -6.35878,0.19809 -7.07107,-0.63135 -0.94434,-1.09966 -2.05466,-5.35637 -1.01015,-7.07106 2.70943,-4.44787 9.97438,-10.37692 11.61676,-10.85914 z"
       id="path3729"
       inkscape:connector-curvature="0"
       style="fill-rule:evenodd" />
    <path
       d="m 396.35861,541.09872 c -2.1591,0.41167 -4.52799,4.54423 -4.79823,6.566 -0.11053,0.82692 7.20232,11.01141 10.35406,13.00571 0.89545,0.5666 8.9778,-5.08124 8.83884,-6.31345 -0.56997,-5.05421 -13.14922,-13.49573 -14.39467,-13.25826 z"
       id="path3731"
       inkscape:connector-curvature="0"
       style="fill-rule:evenodd" />
  </g>
</svg>
