<?xml version="1.0" encoding="UTF-8" standalone="no"?>
<svg
   xmlns:dc="http://purl.org/dc/elements/1.1/"
   xmlns:cc="http://creativecommons.org/ns#"
   xmlns:rdf="http://www.w3.org/1999/02/22-rdf-syntax-ns#"
   xmlns:svg="http://www.w3.org/2000/svg"
   xmlns="http://www.w3.org/2000/svg"
   xmlns:sodipodi="http://sodipodi.sourceforge.net/DTD/sodipodi-0.dtd"
   xmlns:inkscape="http://www.inkscape.org/namespaces/inkscape"
   viewBox="0 0 500 500"
   xml:space="preserve"
   id="svg3739"
   version="1.1"
   inkscape:version="0.48.4 r9939"
   width="100%"
   height="100%"
   sodipodi:docname="puma-head.svg"><metadata
     id="metadata3756"><rdf:RDF><cc:Work
         rdf:about=""><dc:format>image/svg+xml</dc:format><dc:type
           rdf:resource="http://purl.org/dc/dcmitype/StillImage" /><dc:title /></cc:Work></rdf:RDF></metadata><sodipodi:namedview
     pagecolor="#ffffff"
     bordercolor="#666666"
     borderopacity="1"
     objecttolerance="10"
     gridtolerance="10"
     guidetolerance="10"
     inkscape:pageopacity="0"
     inkscape:pageshadow="2"
     inkscape:window-width="640"
     inkscape:window-height="480"
     id="namedview3754"
     showgrid="false"
     inkscape:zoom="0.45115657"
     inkscape:cx="136.91147"
     inkscape:cy="265.02943"
     inkscape:window-x="0"
     inkscape:window-y="0"
     inkscape:window-maximized="0"
     inkscape:current-layer="g3750" /><defs
     id="defs3741"><clipPath
       id="clipPath22095"><path
         d="M 0,1743.66 H 1543.67 V 0 H 0 v 1743.66 z"
         id="path3744"
         inkscape:connector-curvature="0" /></clipPath></defs><g
     transform="matrix(1.25,0,0,-1.25,88.661017,535.46441)"
     id="g3746"><g
       transform="scale(0.24,0.24)"
       id="g3748"><g
         clip-path="url(#clipPath22095)"
         id="g3750"><path
           d="m 475.30258,1036.2416 c -4.14,0 -7.496,-3.36 -7.496,-7.5 0,-4.15 3.356,-7.5 7.496,-7.5 4.14,0 7.497,3.35 7.497,7.5 0,4.14 -3.356,7.5 -7.497,7.5 m 282.188,-69.40702 c -4.84,0 -8.766,-3.922 -8.766,-8.77 0,-4.832 3.926,-8.762 8.766,-8.762 4.848,0 8.769,3.93 8.769,8.762 0,4.848 -3.921,8.77 -8.769,8.77 m 72.766,-353.821 c 6.125,-0.789 12.32,-1.48 18.582,-2.007 -32.004,43.687 -67.067,65.898 -100.45,76.668 -1.269,-2.708 -2.629,-5.309 -4.054,-7.813 29.054,-9.484 58.984,-28.645 85.922,-66.848 m -98.297,49.426 c -2.914,-3.387 -5.938,-6.515 -9.047,-9.426 13.179,-3.781 26.019,-9.589 36.996,-18.343 l -2.067,-2.582 c -11.175,8.91 -24.558,14.464 -38.277,17.832 -5.457,-4.766 -11.066,-8.887 -16.527,-12.489 11.117,2.352 49.109,-10.465 96.297,-19.441 -21.313,25.281 -44.664,38.148 -67.375,44.449 m 9.523,12.817 c -1.875,-2.942 -3.82,-5.786 -5.879,-8.434 23.488,-7.309 47.528,-21.863 69.496,-49.887 6.614,-1.191 13.379,-2.289 20.266,-3.258 -26.289,35.45 -55.566,53.004 -83.883,61.579 m -146.094,105.191 c -16.234,-9.547 -14.8,10.152 -43.449,12.535 -28.648,2.387 -32.019,-2.617 -41.539,1.078 -14.211,5.504 -29.605,23.278 -45.844,23.278 -21.484,0 -19.785,-11.582 -8.457,-21.129 11.325,-9.551 32.813,-31.993 33.766,-43.453 0.957,-11.457 0.957,-22.446 15.285,-37.723 14.32,-15.281 -1.586,-12.887 11.141,-13.367 12.727,-0.48 4.613,10.023 9.386,13.367 4.773,3.344 15.758,25.781 32.946,26.266 17.188,0.485 31.992,17.664 42.015,26.257 10.028,8.598 10.985,22.442 -5.25,12.891 m -146.586,260.71402 c 2.868,-8.6 -0.953,-22.45 18.622,-32 19.578,-9.55002 34.554,-8.67 24.355,-32.47202 -3.227,-7.519 -7.879,-9.66 0,-10.019 11.457,9.671 21.645,55.27102 18.262,66.25102 -8.953,29.01 -39.313,16.57 -61.957,21.12 -17.188,3.46 -25.008,11.14 -29.364,21.49 -5.73,13.6 10.434,43.35 47.27,64.1 13.836,7.8 4.422,8.05 -3.219,3.22 -16.293,-10.28 -59.687,-38.56 -48.109,-70.67 8.039,-22.3 31.277,-22.43 34.14,-31.02 m 237.301,-123.20202 c 14.328,7.164 11.086,39.484 49.188,20.05 29.679,-15.132 51.566,10.747 61.586,15.762 10.035,5.02 21.367,5.317 30.089,0.957 5.727,-2.867 20.528,-2.39 23.872,-0.957 3.344,1.433 -18.477,4.02 -23.872,7.168 -98.363,57.30202 -101.285,-2.5 -105.101,27.582 -0.59,4.66 8.644,38.78002 1.008,40.22002 -1.907,-19.58 -30.317,-83.56402 -39.625,-100.27802 -7.957,-14.278 -11.461,-17.661 2.855,-10.504 m 11.821,-264.403 c -27.918,-24.375 -59.622,-33.715 -72.934,-28.007 -67.512,28.953 -112.934,44.019 -108.387,69.91 l -4.769,1.425 c 2.382,-18.136 -13.852,-22.437 -41.543,-25.3 -23.067,-2.387 -37.371,-8.961 -53.219,28.41 -24.887,-12.016 -56.508,-31.36 -60.578,-68.024 l -3.715,0.411 c 4.539,40.894 36.43,62.683 61.266,75.246 -0.75,2.011 -1.504,4.129 -2.262,6.351 -26.215,-10.097 -56.027,-24.578 -59.004,-48.75 l -4.563,0.563 c 3.528,28.605 33.723,44.925 61.012,55.937 -0.652,2.067 -1.304,4.207 -1.969,6.434 -0.418,1.406 -0.769,2.773 -1.144,4.16 -18.93,-5.273 -37.934,-12.191 -44.77,-25.371 l -3.625,1.887 c 8.176,15.761 27.082,24.64 46.496,31.015 -0.429,1.879 -0.824,3.742 -1.187,5.582 -25.609,-6.64 -54.535,-17.582 -57.703,-44.277 l -2.727,0.98 c 3.762,31.696 32.969,44.231 59.028,51.399 -1.164,7.828 -1.739,15.308 -1.836,22.453 -0.571,-0.055 -1.114,-0.117 -1.692,-0.172 -25.937,-2.547 -55.336,-5.437 -58.98,-36.195 l -3.168,1.414 c 4.437,37.41 35.164,40.508 61.328,43.074 0.879,0.086 1.742,0.176 2.609,0.262 0.086,2.297 0.211,4.574 0.379,6.804 -23.019,-0.992 -53.054,-0.5 -58.402,-13.488 l -2.438,0.996 c 7.454,18.094 36.141,19.633 61.684,20.871 0.02,0.16 0.039,0.313 0.059,0.477 -12.743,14.844 -28.899,37.113 -52.223,35.879 l -0.145,2.773 c 24.184,1.293 41.164,-13.746 54.02,-27.945 0.176,0.969 0.344,1.941 0.527,2.894 -6.484,7.043 -13.168,15.68 -19.996,24.567 -11.472,14.93 -23.332,30.363 -33.097,36.055 l 1.808,3.113 c 11.184,-6.512 25.383,-17.805 37.895,-34.09 4.949,-6.438 10.308,-13.41 15.586,-19.578 6.152,25.836 14.879,46.91 13.89,66.332 -0.414,8.207 -7.875,12.887 -6.711,0 1.067,-11.832 -5.023,-24.254 -10.984,-53.484 -0.539,-2.645 -1.172,-3.379 -1.41,-0.239 -2.078,27.5 -25.809,86.926 -25.891,141.016 -0.066,44.88502 29.481,60.01502 31.391,98.20502 1.91,38.2 5.941,72.81 34.379,109.82 7.519,9.78 48.703,49.53 60.16,57.77 2.515,1.81 3.453,3.1 3.41,3.97 5.023,5.14 10.012,12.16 8.766,14.66 -15.45,30.91 -37.957,166.87 -86.661,185.5 -13.16,-29.37 -11.746,-104.44 27.215,-157.57 6.492,-8.84 -9.718,-37.61 9.055,-42.28 4.02,-1 17.633,4.39 1.453,5.51 -14.113,0.97 1.168,30.31 -5.828,38.3 -29.305,33.45 -40.578,121.79 -28.555,145.29 34.352,-12.47 61.942,-159.09 65.11,-189.12 -3.621,-1.05 -52.891,-39.6 -52.891,-39.6 -13.605,13.61 -22.008,46.08 -10.547,60.41 11.457,14.32 -26.258,68.9 -35.57,113.3 -9.313,44.41 13.672,80.01 32.293,92.19 48.703,-24.35 106.969,-96.53 129.332,-151.77 4.058,-10.03 15.515,6.72 19.812,6.68 49.668,-0.5 116.981,20.53 145.149,-8.14 4.847,-4.94 1.199,-12.15 -6.68,-25.76 -7.875,-13.6 -98.836,-179.77 -106.711,-216.29 -7.883,-36.53 10.024,-9.32 16.469,10.73 6.445,20.06 98.574,220.84 138.949,226.1 121.281,15.74 178.629,-43.79 212,-40.95 4.293,-15.28 -27.758,-38.87 -48.531,-46.13 -23.867,-8.37 -4.031,-11.29 3.644,-8.42 82.33902,30.72 148.01902,144.2 163.29902,172.84 15.28,28.65 36.71,-9.08 47.44,-37 23.88,-62.07 -49.35,-148.73 -34.07,-175.48 15.28,-26.73 -33.43,-81.64 -33.43,-81.64 -8.58,-13.37 11.46,-8.59 21.01,5.73 9.55,14.32 -9.03,-153.65602 -36.28,-198.63602 -4.78,-7.871 38.81,-3.762 40.1,-15.512 11.67,-105.621 -43.17,-214.977 -130.55702,-260.621 -34.828,-18.199 -75.918,-21.574 -115.363,-18.719 -32.781,46.352 -68.582,70.148 -102.789,81.789 1.531,3.715 2.949,7.578 4.144,11.688 26.571,-6.957 54.77,-21.274 79.532,-50.77 l 2.128,1.789 c -25.246,30.063 -53.859,45.367 -80.585,53.172 3.734,14.773 5.246,31.977 3.293,52.262 -3.118,32.402 -10.809,14.066 -10.743,6.933 0.196,-20.613 -3.382,-38.972 -9.406,-55.144 -20.559,3.933 -39.176,4.058 -53.144,4.058 l 0,-5.73 c 14.027,0 31.89,0.164 51.343,-2.918 -1.437,-3.504 -3,-6.902 -4.672,-10.191 -22.211,5.078 -43.363,5.652 -62.086,4.746 l 0.274,-5.723 c 17.738,0.859 37.91,0.434 59.176,-4.016 -1.481,-2.656 -3.028,-5.242 -4.637,-7.75 -23.055,4.575 -44.961,4.211 -63.617,3.899 l -0.66,-0.012 0.101,-5.73 0.653,0.007 c 17.55,0.309 38.277,0.743 60.183,-3.105 -2.051,-2.918 -4.187,-5.715 -6.383,-8.406 -20.336,3.234 -39.629,2.242 -56.004,1.394 -6.3,-0.328 -12.25,-0.636 -17.48,-0.636 l 0,-5.731 c 5.375,0 11.402,0.309 17.777,0.645 14.996,0.781 32.715,1.773 51.504,-0.618 -2.887,-3.238 -5.863,-6.308 -8.902,-9.179 -31.293,4.562 -59.891,0.258 -64.785,-0.555 l 0.937,-5.652 c 4.531,0.754 30.551,5.242 59.571,2.347 m 519.78702,313.114 c -21.96,18.144 -55.08,107.42102 -99.96,139.89102 0,0 5.9,-93.43 -28.65,-169.97702 -18.59,-41.172 35.33,-3.348 35.33,-50.137 0,-93.332 -43.16,-206.754 -116.02,-260.898 -41.48702,-30.825 -92.44802,-36.86 -143.37802,-32.805 5.66,-9.211 11.23,-19.11 16.648,-29.883 l -2.847,-1.43 c -5.77,11.477 -11.715,21.973 -17.801,31.625 -6.442,0.582 -12.879,1.321 -19.297,2.184 5.605,-9.477 11.043,-19.863 16.273,-31.332 l -3.007,-1.375 c -5.625,12.336 -11.528,23.375 -17.633,33.328 -6.625,0.953 -13.211,2.023 -19.746,3.195 3.812,-6.066 7.543,-12.566 11.172,-19.632 l -3.168,-1.625 c -4.145,8.085 -8.461,15.41 -12.883,22.136 -35.285,6.594 -68.918,15.731 -97.512,22.231 -12.851,2.918 -35.812,3.383 -60.476,-12.41 -27.395,-17.532 -67.875,-43.743 -104.727,-42.262 -5.055,0.203 -17.25,-3.25 -12.461,-7.676 202.645,-187.258 -72.16479,-404.4373 -72.16479,-404.4373 l 866.10371,0.80461 0.8278,498.2485 c 0.2782,167.4769 -101.2812,301.2151 -114.6237,312.23619 m -720.20502,-300.817 c 14.328,0 16.234,-20.051 24.832,-22.918 8.593,-2.863 15.277,10.504 37.238,-1.91 21.969,-12.414 75.445,-20.051 65.414,-27.687 -10.024,-7.645 -55.863,-33.43 -90.242,-27.704 -34.379,5.726 -63.574,27.618 -81.172,70.672 -5.336,13.059 29.605,9.547 43.93,9.547"
           id="path3752"
           inkscape:connector-curvature="0"
           style="fill:#000000"
           sodipodi:nodetypes="csssccsssccccccccccccccccccccccscccssscccccccccccccccccscccccccccccccccccccccccccccccccccccccccccccccccccccccccccccsccccccccccccccccccccccsccccccccccccccccccccccccccccccccccccccscccccccccccccccccccscccccscc" /></g></g></g></svg>